<svg width="65" height="65" viewBox="0 0 65 65" fill="none" xmlns="http://www.w3.org/2000/svg">
<circle cx="32.5" cy="32.5" r="32.5" fill="#EDF6FF"/>
<path d="M47.2901 30.499H17.6797V49.3693H47.2901V30.499Z" fill="#4487FF" stroke="#4487FF" stroke-width="4" stroke-miterlimit="10" stroke-linecap="round" stroke-linejoin="round"/>
<path d="M44.7401 27.2891H35.08C34.09 27.2891 33.1899 27.6491 32.4999 28.2791C31.8099 27.6791 30.9099 27.2891 29.9199 27.2891H20.2598V46.4593H44.7401V27.2891Z" fill="#B5D2FF" stroke="#B5D2FF" stroke-width="4" stroke-miterlimit="10" stroke-linecap="round"/>
<path d="M36.7911 26.5693C36.7911 32.7794 34.871 37.7894 32.501 37.7894C30.131 37.7894 28.2109 32.7494 28.2109 26.5693C28.2109 20.3892 30.131 15.3491 32.501 15.3491C34.871 15.3491 36.7911 20.3892 36.7911 26.5693Z" stroke="#4487FF" stroke-width="2" stroke-miterlimit="10" stroke-linecap="round" stroke-linejoin="round"/>
<path d="M34.6307 22.8793C40.0008 25.9693 43.3908 30.1694 42.2208 32.2094C41.0208 34.2494 35.7107 33.4094 30.3406 30.3194C24.9706 27.1993 21.5805 23.0293 22.7805 20.9592C23.9806 18.8892 29.2606 19.7592 34.6307 22.8793Z" stroke="#4487FF" stroke-width="2" stroke-miterlimit="10" stroke-linecap="round" stroke-linejoin="round"/>
<path d="M30.3406 22.879C24.9706 25.9691 21.5805 30.1391 22.7805 32.2091C23.9806 34.2492 29.2906 33.4092 34.6607 30.3191C40.0308 27.2291 43.4208 23.029 42.2508 20.989C41.0508 18.919 35.7407 19.759 30.3406 22.879Z" stroke="#4487FF" stroke-width="2" stroke-miterlimit="10" stroke-linecap="round" stroke-linejoin="round"/>
<path d="M33.8811 26.5695C33.8811 25.7895 33.2511 25.1895 32.5011 25.1895C31.7211 25.1895 31.1211 25.8195 31.1211 26.5695C31.1211 27.3495 31.7511 27.9495 32.5011 27.9495C33.2511 27.9795 33.8811 27.3495 33.8811 26.5695Z" fill="#4487FF" stroke="#4487FF" stroke-width="3" stroke-miterlimit="10" stroke-linecap="round" stroke-linejoin="round"/>
<path d="M35.9881 35.0614C35.9881 34.5572 35.5784 34.1475 35.0741 34.1475C34.5699 34.1475 34.1602 34.5572 34.1602 35.0614C34.1602 35.5657 34.5699 35.9754 35.0741 35.9754C35.5784 35.9754 35.9881 35.5657 35.9881 35.0614Z" fill="white" stroke="white" stroke-width="4" stroke-miterlimit="10" stroke-linecap="round"/>
<path d="M24.0389 26.8344C24.0389 26.3301 23.6292 25.9204 23.1249 25.9204C22.6206 25.9204 22.2109 26.3301 22.2109 26.8344C22.2109 27.3386 22.6206 27.7483 23.1249 27.7483C23.6292 27.7483 24.0389 27.3386 24.0389 26.8344Z" fill="white" stroke="white" stroke-width="4" stroke-miterlimit="10" stroke-linecap="round"/>
<path d="M40.492 26.7509C40.492 26.2466 40.0823 25.8369 39.578 25.8369C39.0738 25.8369 38.6641 26.2466 38.6641 26.7509C38.6641 27.2551 39.0738 27.6649 39.578 27.6649C40.0823 27.6649 40.492 27.2551 40.492 26.7509Z" fill="white" stroke="white" stroke-width="4" stroke-miterlimit="10" stroke-linecap="round"/>
<path d="M26.8594 40.4189H38.1422" stroke="white" stroke-width="2" stroke-miterlimit="10" stroke-linecap="round"/>
<path d="M23.8965 43.4761H41.1043" stroke="white" stroke-width="2" stroke-miterlimit="10" stroke-linecap="round"/>
</svg>
