<svg width="23" height="20" viewBox="0 0 23 20" fill="none" xmlns="http://www.w3.org/2000/svg">
<g clip-path="url(#clip0_170_54)">
<path d="M19.4372 15.4528H3.56286C2.2182 15.4528 1.17236 14.3352 1.17236 12.9865V3.15988C1.17236 1.7726 2.25555 0.693604 3.56286 0.693604H19.4372C20.7819 0.693604 21.8277 1.81114 21.8277 3.15988V12.9865C21.8277 14.3738 20.7445 15.4528 19.4372 15.4528Z" fill="white"/>
<path d="M19.4372 16.1464H3.56282C1.882 16.1464 0.5 14.7206 0.5 12.9865V3.15992C0.5 1.42582 1.882 0 3.56282 0H19.4372C21.118 0 22.5 1.42582 22.5 3.15992V12.9865C22.5 14.7206 21.118 16.1464 19.4372 16.1464ZM3.56282 1.34875C2.59168 1.34875 1.8073 2.158 1.8073 3.15992V12.9865C1.8073 13.9884 2.59168 14.7977 3.56282 14.7977H19.4372C20.4083 14.7977 21.1927 13.9884 21.1927 12.9865V3.15992C21.1927 2.158 20.4083 1.34875 19.4372 1.34875H3.56282Z" fill="#727272"/>
<path d="M10.3608 20C9.98729 20 9.68848 19.6917 9.68848 19.3064V15.4528C9.68848 15.0674 9.98729 14.7592 10.3608 14.7592C10.7343 14.7592 11.0331 15.0674 11.0331 15.4528V19.3064C11.0331 19.6917 10.7343 20 10.3608 20Z" fill="#727272"/>
<path d="M12.602 20C12.2285 20 11.9297 19.6917 11.9297 19.3064V15.4528C11.9297 15.0674 12.2285 14.7592 12.602 14.7592C12.9755 14.7592 13.2743 15.0674 13.2743 15.4528V19.3064C13.2743 19.6917 12.9755 20 12.602 20Z" fill="#727272"/>
<path d="M17.719 20H5.24362C4.8701 20 4.57129 19.6917 4.57129 19.3063C4.57129 18.921 4.8701 18.6127 5.24362 18.6127H17.719C18.0925 18.6127 18.3913 18.921 18.3913 19.3063C18.3913 19.6917 18.0925 20 17.719 20Z" fill="#727272"/>
<path d="M14.4692 13.449C14.3571 13.449 14.2451 13.4104 14.1704 13.3719L11.4811 11.9461L8.82913 13.3719C8.60502 13.4875 8.34356 13.4875 8.15681 13.3333C7.97005 13.1792 7.858 12.9095 7.89535 12.6782L8.41827 9.63393L6.25188 7.47593C6.06513 7.28325 6.02778 7.0135 6.10248 6.78229C6.17718 6.55107 6.40129 6.3584 6.6254 6.31986L9.61351 5.85743L10.9208 3.08287C11.0329 2.85165 11.257 2.69751 11.5184 2.69751C11.7799 2.69751 12.004 2.85165 12.1161 3.08287L13.4607 5.85743L16.4488 6.31986C16.7103 6.3584 16.897 6.55107 16.9717 6.78229C17.0464 7.0135 16.9717 7.28325 16.8223 7.47593L14.656 9.63393L15.1789 12.6782C15.2162 12.948 15.1042 13.1792 14.9174 13.3333C14.7307 13.4104 14.5813 13.449 14.4692 13.449ZM8.11946 7.43739L9.57616 8.90175C9.72557 9.05589 9.80027 9.28711 9.76292 9.47978L9.3894 11.5607L11.1823 10.5973C11.369 10.4817 11.5931 10.4817 11.7799 10.5973L13.5728 11.5607L13.2366 9.51832C13.1993 9.28711 13.274 9.09443 13.4234 8.94028L14.8801 7.47593L12.8631 7.16764C12.639 7.12911 12.4522 7.0135 12.3775 6.78229L11.4811 4.89404L10.5847 6.74375C10.4726 6.93643 10.3232 7.09057 10.0991 7.12911L8.11946 7.43739Z" fill="#91C2D8"/>
</g>
<defs>
<clipPath id="clip0_170_54">
<rect width="22" height="20" fill="white" transform="translate(0.5)"/>
</clipPath>
</defs>
</svg>
