<svg width="21" height="21" viewBox="0 0 21 21" fill="none" xmlns="http://www.w3.org/2000/svg">
<path d="M20.5 10.3692C20.5 4.923 16.0236 0.509277 10.5 0.509277C4.97644 0.509277 0.5 4.923 0.5 10.3692C0.5 15.8153 4.97644 20.2291 10.5 20.2291C16.0236 20.2291 20.5 15.8153 20.5 10.3692Z" fill="#54AAFD"/>
<path d="M7.56779 15.5316C7.0704 15.5316 6.67773 15.1445 6.67773 14.654V9.67247C6.67773 9.18206 7.0704 8.79489 7.56779 8.79489H11.9133C12.5154 8.79489 13.0128 8.30448 13.0128 7.71082C13.0128 7.11716 12.5154 6.62675 11.9133 6.62675H7.56779C7.0704 6.62675 6.67773 6.23958 6.67773 5.74916C6.67773 5.25875 7.0704 4.87158 7.56779 4.87158H11.9133C13.5102 4.87158 14.7929 6.13633 14.7929 7.71082C14.7929 9.2853 13.5102 10.5501 11.9133 10.5501H8.45784V14.6282C8.45784 15.1186 8.06517 15.5316 7.56779 15.5316Z" fill="white"/>
<path d="M12.7515 15.764H5.6049C5.10751 15.764 4.71484 15.3768 4.71484 14.8864C4.71484 14.396 5.10751 14.0088 5.6049 14.0088H12.7515C13.7201 14.0088 14.5054 13.2345 14.5054 12.2794C14.5054 11.3244 13.7201 10.5501 12.7515 10.5501H9.11275C8.61537 10.5501 8.2227 10.1629 8.2227 9.6725C8.2227 9.18209 8.61537 8.79492 9.11275 8.79492H12.7515C14.6887 8.79492 16.2855 10.3694 16.2855 12.2794C16.2855 14.1895 14.6887 15.764 12.7515 15.764Z" fill="white"/>
<path d="M9.32169 17.3897C8.82431 17.3897 8.43164 17.0026 8.43164 16.5122V15.0925C8.43164 14.6021 8.82431 14.215 9.32169 14.215C9.81908 14.215 10.2117 14.6021 10.2117 15.0925V16.5122C10.2117 16.9768 9.81908 17.3897 9.32169 17.3897Z" fill="white"/>
<path d="M11.6781 17.3897C11.1808 17.3897 10.7881 17.0026 10.7881 16.5122V15.0925C10.7881 14.6021 11.1808 14.215 11.6781 14.215C12.1755 14.215 12.5682 14.6021 12.5682 15.0925V16.5122C12.5682 16.9768 12.1493 17.3897 11.6781 17.3897Z" fill="white"/>
<path d="M9.32169 6.52317C8.82431 6.52317 8.43164 6.136 8.43164 5.64559V4.22597C8.43164 3.73556 8.82431 3.34839 9.32169 3.34839C9.81908 3.34839 10.2117 3.73556 10.2117 4.22597V5.64559C10.2117 6.11019 9.81908 6.52317 9.32169 6.52317Z" fill="white"/>
<path d="M11.6781 6.52317C11.1808 6.52317 10.7881 6.136 10.7881 5.64559V4.22597C10.7881 3.73556 11.1808 3.34839 11.6781 3.34839C12.1755 3.34839 12.5682 3.73556 12.5682 4.22597V5.64559C12.5682 6.11019 12.1493 6.52317 11.6781 6.52317Z" fill="white"/>
</svg>
