<svg width="29" height="28" viewBox="0 0 29 28" fill="none" xmlns="http://www.w3.org/2000/svg">
<path d="M20.4791 28C19.4269 28 18.3383 27.8549 17.1409 27.5283C13.585 26.6212 9.88394 24.3715 6.76344 21.2147C3.60665 18.0579 1.39326 14.3932 0.449857 10.8372C-0.493551 7.13617 0.0507258 4.01567 2.0464 2.02C6.03774 -1.97134 14.6373 0.133183 21.2411 6.73704C27.845 13.3409 29.9495 21.9404 25.9582 25.9318C24.6156 27.3106 22.7288 28 20.4791 28ZM7.5617 1.43944C5.74746 1.43944 4.1872 1.98371 3.06237 3.07226C1.46583 4.6688 1.03042 7.3176 1.82868 10.4744C2.69952 13.7763 4.80405 17.2234 7.74313 20.1987C10.6822 23.1741 14.1656 25.2786 17.4675 26.1132C20.6243 26.9477 23.2731 26.5123 24.8696 24.8795C28.2804 21.4687 26.1759 13.7763 20.1526 7.71673C16.1612 3.72539 11.3353 1.43944 7.5617 1.43944Z" fill="white"/>
<path d="M7.52524 27.9637C5.34814 27.9637 3.42504 27.3106 2.0825 25.9318C-1.90884 21.9404 0.195683 13.3409 6.79954 6.73704C13.4034 0.133183 22.0029 -1.97134 25.9943 2.02C29.9856 6.01134 27.8811 14.6109 21.2772 21.2147C16.923 25.5689 11.698 27.9637 7.52524 27.9637ZM20.4427 1.43944C16.669 1.43944 11.8431 3.72539 7.77923 7.7893C1.75593 13.8126 -0.348591 21.505 3.06219 24.9521C6.47297 28.3628 14.1654 26.2583 20.225 20.235C26.2483 14.2117 28.3528 6.51933 24.942 3.07226C23.8172 1.94743 22.2569 1.43944 20.4427 1.43944Z" fill="white"/>
<path d="M14.019 20.8159C17.6863 20.8159 20.6592 17.843 20.6592 14.1758C20.6592 10.5085 17.6863 7.53564 14.019 7.53564C10.3518 7.53564 7.37891 10.5085 7.37891 14.1758C7.37891 17.843 10.3518 20.8159 14.019 20.8159Z" fill="white"/>
<path d="M23.1273 18.6384C23.1273 18.3481 22.9096 18.1304 22.6193 18.1304C22.329 18.1304 22.1113 18.3481 22.1113 18.6384C22.1113 18.9286 22.329 19.1463 22.6193 19.1463C22.9096 19.1463 23.1273 18.9286 23.1273 18.6384Z" fill="white"/>
<path d="M14.5297 2.3825C14.5297 2.09222 14.3119 1.87451 14.0217 1.87451C13.7314 1.87451 13.5137 2.09222 13.5137 2.3825C13.5137 2.67278 13.7314 2.89049 14.0217 2.89049C14.2757 2.89049 14.5297 2.67278 14.5297 2.3825Z" fill="white"/>
<path d="M2.88121 13.9938C2.88121 13.7035 2.6635 13.4858 2.37322 13.4858C2.08294 13.4858 1.86523 13.7035 1.86523 13.9938C1.86523 14.2841 2.08294 14.5018 2.37322 14.5018C2.62722 14.5018 2.88121 14.2841 2.88121 13.9938Z" fill="white"/>
<path d="M16.5234 13.2686H14.8906V11.6357C14.8906 11.3092 14.6366 11.0552 14.31 11.0552H13.7295C13.4029 11.0552 13.1489 11.3092 13.1489 11.6357V13.2686H11.5161C11.1895 13.2686 10.9355 13.5225 10.9355 13.8491V14.4297C10.9355 14.7562 11.1895 15.0102 11.5161 15.0102H13.1489V16.6431C13.1489 16.9696 13.4029 17.2236 13.7295 17.2236H14.31C14.6366 17.2236 14.8906 16.9696 14.8906 16.6431V15.0102H16.5234C16.85 15.0102 17.104 14.7562 17.104 14.4297V13.8491C17.104 13.5225 16.85 13.2686 16.5234 13.2686Z" fill="#54AAFD"/>
</svg>
