<svg width="15" height="20" viewBox="0 0 15 20" fill="none" xmlns="http://www.w3.org/2000/svg">
<path d="M7.5 20C11.6421 20 15 19.5523 15 19C15 18.4477 11.6421 18 7.5 18C3.35786 18 0 18.4477 0 19C0 19.5523 3.35786 20 7.5 20Z" fill="#54AAFD"/>
<path d="M2.19983 2.18763C-0.733276 5.10448 -0.733276 9.81237 2.19983 12.7292L7.5 18L12.8002 12.7292C15.7333 9.81237 15.7333 5.10448 12.8002 2.18763C9.8928 -0.729211 5.13293 -0.729211 2.19983 2.18763ZM9.68697 9.63326C8.4777 10.8358 6.5223 10.8358 5.31304 9.63326C4.10378 8.4307 4.10378 6.48614 5.31304 5.28358C6.5223 4.08102 8.4777 4.08102 9.68697 5.28358C10.8962 6.48614 10.8962 8.4307 9.68697 9.63326Z" fill="#54AAFD"/>
</svg>
