<svg width="25" height="28" viewBox="0 0 25 28" fill="none" xmlns="http://www.w3.org/2000/svg">
<g clip-path="url(#clip0_323_120)">
<path d="M22.2133 0H5.07733L0 5.07733V25.7227C0 26.992 1.008 28 2.27733 28H22.2133C23.4827 28 24.4907 26.992 24.4907 25.7227V2.27733C24.4907 1.04533 23.4827 0 22.2133 0Z" fill="white"/>
<g filter="url(#filter0_d_323_120)">
<path d="M6.27149 5.48781C6.34616 5.89848 5.89816 6.34648 5.48749 6.27181L2.94882 5.82381L0.372822 5.37581C-0.0378445 5.30114 -0.149844 4.77848 0.223489 4.40514L2.31416 2.31448L4.40482 0.223809C4.74082 -0.112191 5.30082 -0.0375241 5.37549 0.373143L5.82349 2.91181L6.27149 5.48781Z" fill="white"/>
</g>
<path d="M6.3846 16.688L6.08594 19.7866C6.08594 19.8986 6.12327 19.9733 6.19794 20.048C6.2726 20.1226 6.3846 20.16 6.45927 20.16L9.5206 19.8613C9.59527 19.8613 9.66994 19.824 9.7446 19.7493L15.9046 13.5893L12.6566 10.3413L6.4966 16.5013C6.42194 16.5386 6.3846 16.6133 6.3846 16.688Z" fill="#54AAFD"/>
<path d="M17.8081 8.84779L17.3975 8.43712C16.6135 7.65312 15.3441 7.65312 14.5601 8.43712L13.3281 9.66912L16.5761 12.9171L17.8081 11.6851C18.5921 10.9385 18.5921 9.63179 17.8081 8.84779Z" fill="#54AAFD"/>
</g>
<defs>
<filter id="filter0_d_323_120" x="-2.00391" y="-1.98779" width="12.2832" height="12.2676" filterUnits="userSpaceOnUse" color-interpolation-filters="sRGB">
<feFlood flood-opacity="0" result="BackgroundImageFix"/>
<feColorMatrix in="SourceAlpha" type="matrix" values="0 0 0 0 0 0 0 0 0 0 0 0 0 0 0 0 0 0 127 0" result="hardAlpha"/>
<feOffset dx="1" dy="1"/>
<feGaussianBlur stdDeviation="1.5"/>
<feComposite in2="hardAlpha" operator="out"/>
<feColorMatrix type="matrix" values="0 0 0 0 0 0 0 0 0 0 0 0 0 0 0 0 0 0 0.1 0"/>
<feBlend mode="normal" in2="BackgroundImageFix" result="effect1_dropShadow_323_120"/>
<feBlend mode="normal" in="SourceGraphic" in2="effect1_dropShadow_323_120" result="shape"/>
</filter>
<clipPath id="clip0_323_120">
<rect width="24.4907" height="28" fill="white"/>
</clipPath>
</defs>
</svg>
