<svg width="65" height="65" viewBox="0 0 65 65" fill="none" xmlns="http://www.w3.org/2000/svg">
<circle cx="32.5" cy="32.5" r="32.5" fill="#FFF8F0"/>
<path d="M42.2778 19H14.7222C13.7716 19 13 19.7738 13 20.7273V38H44V20.7273C44 19.7738 43.2284 19 42.2778 19Z" fill="#FFCA8F"/>
<path d="M13 38V39.2174C13 40.0574 13.7716 40.7391 14.7222 40.7391H26.0889V43.1739H21.9556C21.5767 43.1739 21.2667 43.4478 21.2667 43.7826V45H35.7333V43.7826C35.7333 43.4478 35.4233 43.1739 35.0444 43.1739H31.2556V40.7391H42.2778C43.2284 40.7391 44 40.0574 44 39.2174V38H13Z" fill="#FFBF77"/>
<path d="M34.7187 33.3785L32.4075 31.0877C33.0844 30.1441 33.4879 28.9885 33.4879 27.7439C33.4879 24.5711 30.9168 22 27.7439 22C24.5711 22 22 24.5711 22 27.7439C22 30.9168 24.5711 33.4879 27.7439 33.4879C28.9885 33.4879 30.1373 33.0844 31.0809 32.4143L33.4195 34.7324C33.7888 35.0948 34.3768 35.088 34.7324 34.7187C35.0948 34.3358 35.088 33.7409 34.7187 33.3785ZM27.7508 32.004C25.3985 32.004 23.4907 30.0962 23.4907 27.7439C23.4907 25.3917 25.3985 23.4839 27.7508 23.4839C30.1031 23.4839 32.0109 25.3917 32.0109 27.7439C32.0109 30.0962 30.1031 32.004 27.7508 32.004Z" fill="white"/>
<path d="M48 38V43.292C48 44.2347 48.8945 45 50 45C51.1055 45 52 44.2347 52 43.292V38H48Z" fill="#FFBF77"/>
<path d="M49.449 44.8619C48.7595 44.6186 48.2896 44.0186 48.2896 43.332V30.8333C48.2896 30.3733 47.8581 30 47.3265 30H35.963C35.4314 30 35 30.3733 35 30.8333V44.1653C35 44.6252 35.4314 44.9985 35.963 44.9985H48.4822C48.6825 44.9985 50.0153 45.0019 49.9999 44.9985C49.8496 44.9885 49.5607 44.8985 49.449 44.8619Z" fill="#FFCA8F"/>
<path d="M45.5 33H37.5C37.224 33 37 33.224 37 33.5C37 33.776 37.224 34 37.5 34H45.5C45.776 34 46 33.776 46 33.5C46 33.224 45.776 33 45.5 33Z" fill="white"/>
<path d="M45.5 36H37.5C37.224 36 37 36.224 37 36.5C37 36.776 37.224 37 37.5 37H45.5C45.776 37 46 36.776 46 36.5C46 36.224 45.776 36 45.5 36Z" fill="white"/>
<path d="M41.5 38H37.5C37.224 38 37 38.224 37 38.5C37 38.776 37.224 39 37.5 39H41.5C41.776 39 42 38.776 42 38.5C42 38.224 41.776 38 41.5 38Z" fill="white"/>
<path d="M41.5 41H37.5C37.224 41 37 41.224 37 41.5C37 41.776 37.224 42 37.5 42H41.5C41.776 42 42 41.776 42 41.5C42 41.224 41.776 41 41.5 41Z" fill="white"/>
<path d="M44 41V42.875C44 42.945 44.055 43 44.125 43L44.875 42.6675C44.9475 42.6375 45 42.5425 45 42.5425V41H44Z" fill="white"/>
<path d="M45 41V42.5425C45 42.5425 45.0575 42.6425 45.125 42.6675L45.875 43C45.945 43 46 42.945 46 42.875V41H45Z" fill="white"/>
<path d="M45 42C46.1046 42 47 41.1046 47 40C47 38.8954 46.1046 38 45 38C43.8954 38 43 38.8954 43 40C43 41.1046 43.8954 42 45 42Z" fill="white"/>
<path d="M45.9884 39.75C45.9717 39.6933 45.9284 39.6467 45.8751 39.6233L45.4485 39.44L45.1486 39.0733C45.112 39.0267 45.0553 39 44.9986 39C44.942 39 44.8853 39.0267 44.8487 39.0733L44.5488 39.44L44.1222 39.6233C44.0689 39.6467 44.0289 39.6933 44.0089 39.75C43.9923 39.8067 43.9989 39.87 44.0289 39.92L44.2722 40.33L44.3088 40.81C44.3122 40.87 44.3422 40.9233 44.3888 40.96C44.4221 40.9867 44.4621 41 44.5055 41C44.5221 41 44.5354 40.9967 44.5521 40.9933L45.002 40.88L45.4519 40.9933C45.4685 40.9967 45.4818 41 45.4985 41C45.5385 41 45.5818 40.9867 45.6151 40.96C45.6618 40.9233 45.6918 40.87 45.6951 40.81L45.7318 40.33L45.975 39.92C46.0017 39.87 46.0084 39.8067 45.9884 39.75Z" fill="#FFBF77"/>
</svg>
