<svg width="35" height="28" viewBox="0 0 35 28" fill="none" xmlns="http://www.w3.org/2000/svg">
<path d="M30.3333 16.1336V11.2474C30.3333 5.03763 24.8033 0 17.5 0C10.1967 0 4.66667 5.03763 4.66667 11.254V16.1336C2.08444 16.1665 0 17.9972 0 20.2493C0 22.5212 2.12333 24.365 4.74444 24.365L6.22222 24.3387C6.68111 24.2004 7.01556 23.8119 7.01556 23.3772L7.02333 11.2606C7.02333 6.28881 11.3711 1.92944 17.2122 1.92944H17.8033C23.6444 1.92944 27.9922 6.28881 27.9922 11.2606V21.3754C27.5489 25.1486 25.06 26.0047 19.7711 26.0047L17.9044 26.0113C17.2589 26.0113 16.73 26.4591 16.73 27.0056C16.73 27.5522 17.2589 28 17.9044 28H19.7711C24.8422 28 27.9456 27.0188 29.3844 24.3782H30.2556C32.8767 24.3782 35 22.5343 35 20.2625C35 17.9972 32.9156 16.1731 30.3333 16.1336Z" fill="#7DBAFF"/>
<path d="M17.7335 18.0437C16.668 18.0437 15.7969 17.3118 15.7969 16.4166V16.3186C15.7969 16.0702 16.038 15.8677 16.3335 15.8677C16.6291 15.8677 16.8702 16.0702 16.8702 16.3186V16.4166C16.8702 16.8152 17.2591 17.1419 17.7335 17.1419C18.208 17.1419 18.5969 16.8152 18.5969 16.4166V16.3186C18.5969 16.0702 18.838 15.8677 19.1335 15.8677C19.4291 15.8677 19.6702 16.0702 19.6702 16.3186V16.4166C19.6702 17.3118 18.7991 18.0437 17.7335 18.0437Z" fill="#7DBAFF"/>
<ellipse cx="12.1157" cy="11.24" rx="1.34615" ry="1.35471" fill="#7DBAFF"/>
<ellipse cx="22.8852" cy="11.24" rx="1.34615" ry="1.35471" fill="#7DBAFF"/>
</svg>
