<svg width="34" height="38" viewBox="0 0 34 38" fill="none" xmlns="http://www.w3.org/2000/svg">
<path d="M26.0869 22.8159C26.0869 18.9203 23.962 15.4674 20.819 13.6082L25.113 9.31416L18.0301 2.18701L7.93703 12.2801L9.70775 14.0508L7.84849 15.9101L11.3899 19.4515L13.2492 17.5923L15.0199 19.363L18.9597 15.4231C21.6601 16.7512 23.5636 19.5843 23.5636 22.8159C23.5636 27.3312 19.8894 31.0497 15.3298 31.0497C11.4342 31.0497 8.15836 28.3051 7.31727 24.6309H12.8508V22.1076H0.5V24.6309H4.74973C5.50229 28.9692 8.82238 32.4221 13.0721 33.3074V35.4765H6.16631V37.9998H24.449V35.4765H17.5875V33.3074C22.4569 32.245 26.0869 27.951 26.0869 22.8159Z" fill="#77BCFF"/>
<path d="M21.8289 0.000222484L20.0449 1.78467L25.4609 7.19913L27.2449 5.41468L21.8289 0.000222484Z" fill="#77BCFF"/>
<path d="M20.7537 32.5376C25.3379 32.5376 29.0542 28.8213 29.0542 24.2371C29.0542 19.6528 25.3379 15.9365 20.7537 15.9365C16.1694 15.9365 12.4531 19.6528 12.4531 24.2371C12.4531 28.8213 16.1694 32.5376 20.7537 32.5376Z" fill="white" stroke="#D2D2D2" stroke-width="2" stroke-linecap="round"/>
<path d="M27.0605 30.5449L32.8154 36.2998L27.0605 30.5449Z" fill="white"/>
<path d="M27.0605 30.5449L32.8154 36.2998" stroke="#D2D2D2" stroke-width="2" stroke-linecap="round"/>
<path d="M21.5001 24.2095C21.5001 23.8186 21.1762 23.4946 20.7852 23.4946C20.3943 23.4946 20.0703 23.8186 20.0703 24.2095C20.0703 24.6005 20.3943 24.9244 20.7852 24.9244C21.1762 24.9356 21.5001 24.6117 21.5001 24.2095Z" fill="#77BCFF"/>
<path d="M25.556 24.2099C25.556 23.9529 25.4555 23.7184 25.2879 23.4949C25.2433 23.5955 25.1874 23.6848 25.1092 23.763C25.0757 23.7966 25.031 23.8301 24.9863 23.8636C25.0534 23.9753 25.0869 24.087 25.0869 24.2099C25.0869 24.7125 24.4837 25.137 23.6124 25.4386C23.5007 25.0476 23.3555 24.6343 23.1767 24.2099C23.3555 23.7966 23.5118 23.3832 23.6124 22.9811C23.7352 23.0258 23.8581 23.0705 23.9698 23.1152C23.9587 23.2715 24.0033 23.4279 24.1262 23.5508C24.3385 23.763 24.6959 23.763 24.9081 23.5508C25.1204 23.3386 25.1204 22.9811 24.9081 22.7689C24.7183 22.579 24.4278 22.5566 24.2044 22.7019C24.048 22.6348 23.8916 22.5678 23.7129 22.512C23.7353 22.3779 23.7576 22.255 23.7799 22.121C23.914 21.1045 23.6906 20.3672 23.1656 20.0656C22.998 19.9651 22.8081 19.9204 22.5959 19.9204C22.0597 19.9204 21.423 20.2555 20.7751 20.814C20.1272 20.2444 19.4905 19.9204 18.9543 19.9204C18.7421 19.9204 18.5522 19.9651 18.3846 20.0656C18.1612 20.1885 17.9936 20.4007 17.8931 20.6688C17.6585 20.7359 17.4798 20.9481 17.4798 21.205C17.4798 21.5066 17.7256 21.7524 18.0272 21.7524C18.3288 21.7524 18.5745 21.5066 18.5745 21.205C18.5745 21.0263 18.4851 20.8699 18.3623 20.7694C18.4293 20.6353 18.5187 20.546 18.6192 20.4789C18.7086 20.4231 18.8203 20.4007 18.9543 20.4007C19.3341 20.4007 19.8591 20.6577 20.4288 21.1492C20.1384 21.4396 19.8591 21.7747 19.5798 22.1433C19.1219 22.1992 18.6862 22.2774 18.2953 22.3779C18.2729 22.2774 18.2617 22.1657 18.2394 22.0651C18.2394 22.054 18.2394 22.0316 18.2394 22.0205C18.1724 22.0428 18.1054 22.0428 18.0272 22.0428C17.9378 22.0428 17.8484 22.0316 17.7591 21.9981C17.7591 22.0428 17.7702 22.0763 17.7702 22.121C17.7814 22.2439 17.8038 22.3779 17.8373 22.512C16.709 22.9029 15.9941 23.5061 15.9941 24.1987C15.9941 24.8913 16.709 25.5056 17.8373 25.8854C17.8149 26.0195 17.7926 26.1423 17.7702 26.2764C17.6362 27.2929 17.8596 28.0301 18.3846 28.3317C18.5522 28.4323 18.7421 28.477 18.9543 28.477C19.0102 28.477 19.0772 28.477 19.133 28.4658C19.0437 28.3206 18.999 28.1642 18.999 28.0078C18.9878 28.0078 18.9655 28.0078 18.9543 28.0078C18.8314 28.0078 18.7197 27.9855 18.6192 27.9296C18.2729 27.7285 18.1389 27.1588 18.2394 26.3434C18.2506 26.2429 18.2729 26.1423 18.2953 26.0306C18.6862 26.1312 19.1219 26.2205 19.5798 26.2652C19.8479 26.6338 20.1384 26.969 20.4288 27.2594C20.3171 27.3599 20.2054 27.4493 20.0937 27.5275C19.8815 27.4158 19.6245 27.4493 19.4458 27.6168C19.2336 27.8291 19.2336 28.1865 19.4458 28.3988C19.658 28.611 20.0155 28.611 20.2277 28.3988C20.3618 28.2647 20.4176 28.0748 20.3729 27.8961C20.507 27.7956 20.641 27.695 20.7751 27.5722C21.423 28.1418 22.0597 28.4658 22.5959 28.4658C22.8081 28.4658 22.998 28.4211 23.1656 28.3206C23.6906 28.019 23.9028 27.2929 23.7799 26.2652C23.7688 26.1423 23.7464 26.0083 23.7129 25.8743C24.8411 25.5168 25.556 24.9136 25.556 24.2099ZM22.607 20.4119C22.7299 20.4119 22.8416 20.4343 22.9421 20.4901C23.2884 20.6912 23.4225 21.2609 23.3219 22.0763C23.3108 22.1768 23.2884 22.2774 23.2661 22.3891C22.8751 22.2885 22.4395 22.1992 21.9815 22.1545C21.7134 21.7859 21.423 21.4508 21.1325 21.1603C21.7022 20.6577 22.2272 20.4119 22.607 20.4119ZM22.8975 23.6402C22.8081 23.4726 22.7299 23.3162 22.6294 23.1487C22.54 22.9923 22.4395 22.8359 22.3501 22.6795C22.6294 22.7242 22.8975 22.78 23.1544 22.8471C23.0874 23.1152 22.998 23.3721 22.8975 23.6402ZM23.1544 25.5727C22.8975 25.6397 22.6294 25.6955 22.3501 25.7402C22.4506 25.595 22.54 25.4386 22.6294 25.271C22.7187 25.1035 22.8081 24.9471 22.8975 24.7795C22.998 25.0588 23.0874 25.3157 23.1544 25.5727ZM20.7863 21.4731C20.9762 21.663 21.1549 21.8641 21.3448 22.0986C21.166 22.0875 20.9762 22.0875 20.7863 22.0875C20.5964 22.0875 20.4065 22.0875 20.2277 22.0986C20.4065 21.8641 20.5964 21.663 20.7863 21.4731ZM19.2224 22.6907C19.1219 22.8359 19.0325 22.9923 18.9431 23.1598C18.8538 23.3274 18.7644 23.4838 18.675 23.6513C18.5745 23.3832 18.4851 23.1263 18.4181 22.8694C18.675 22.7912 18.9431 22.7354 19.2224 22.6907ZM17.9601 25.4386C17.0888 25.1482 16.4856 24.7237 16.4856 24.2099C16.4856 23.7072 17.0888 23.2827 17.9601 22.9811C18.0718 23.3721 18.2171 23.7854 18.3958 24.2099C18.2171 24.6343 18.0718 25.0476 17.9601 25.4386ZM18.4181 25.5727C18.4851 25.3157 18.5745 25.0588 18.675 24.7907C18.7644 24.9583 18.8426 25.1147 18.9431 25.2822C19.0325 25.4386 19.133 25.595 19.2224 25.7514C18.9431 25.6955 18.675 25.6397 18.4181 25.5727ZM19.3453 25.0365C19.1889 24.7572 19.0437 24.4891 18.9096 24.2099C19.0325 23.9306 19.1777 23.6625 19.3453 23.3832C19.5017 23.104 19.6692 22.8471 19.8368 22.6013C20.1495 22.5678 20.4623 22.5566 20.7751 22.5566C21.0879 22.5566 21.4006 22.5678 21.7134 22.6013C21.881 22.8471 22.0485 23.104 22.2049 23.3832C22.3613 23.6625 22.5065 23.9306 22.6406 24.2099C22.5177 24.4891 22.3725 24.7572 22.2049 25.0365C22.0485 25.3157 21.881 25.5727 21.7134 25.8184C21.4006 25.8519 21.0879 25.8631 20.7751 25.8631C20.4623 25.8631 20.1495 25.8519 19.8368 25.8184C19.6804 25.5838 19.5128 25.3269 19.3453 25.0365ZM20.2277 26.3322C20.4065 26.3434 20.5964 26.3434 20.7863 26.3434C20.9762 26.3434 21.166 26.3434 21.3448 26.3322C21.1549 26.5668 20.9762 26.7791 20.7863 26.9578C20.5964 26.7679 20.4065 26.5556 20.2277 26.3322ZM22.931 27.9408C22.8416 27.9966 22.7299 28.019 22.5959 28.019C22.2161 28.019 21.6911 27.7621 21.1214 27.2706C21.4118 26.9801 21.6911 26.645 21.9703 26.2764C22.4283 26.2205 22.864 26.1423 23.2549 26.0418C23.2773 26.1423 23.2884 26.254 23.3108 26.3546C23.4113 27.1589 23.2773 27.7397 22.931 27.9408Z" fill="#77BCFF"/>
</svg>
