<svg width="36" height="38" viewBox="0 0 36 38" fill="none" xmlns="http://www.w3.org/2000/svg">
<path d="M0.5 37.9997L4.00511 23.2632H32.0083L35.5134 37.9997" fill="#D2D2D2"/>
<path d="M30.2377 12.145C30.2754 21.5296 20.6269 29.1052 18.441 30.6881C18.1771 30.8766 17.8379 30.8766 17.5741 30.6881C15.4258 29.1052 5.77734 21.5673 5.77734 12.2203C5.77734 5.32319 11.5061 -0.254837 18.4786 0.00898879C24.9612 0.272814 30.2 5.66239 30.2377 12.145Z" fill="#77BCFF"/>
<path d="M18.1759 20.2771C22.5263 20.2771 26.053 16.7504 26.053 12.4C26.053 8.04963 22.5263 4.52295 18.1759 4.52295C13.8255 4.52295 10.2988 8.04963 10.2988 12.4C10.2988 16.7504 13.8255 20.2771 18.1759 20.2771Z" fill="white"/>
<path d="M18.7256 12.3389C18.7256 11.9012 18.3629 11.5386 17.9253 11.5386C17.4876 11.5386 17.125 11.9012 17.125 12.3389C17.125 12.7765 17.4876 13.1391 17.9253 13.1391C18.3629 13.1516 18.7256 12.789 18.7256 12.3389Z" fill="#77BCFF"/>
<path d="M23.2643 12.3398C23.2643 12.0522 23.1518 11.7896 22.9642 11.5395C22.9142 11.652 22.8517 11.7521 22.7641 11.8396C22.7266 11.8771 22.6766 11.9146 22.6266 11.9521C22.7016 12.0772 22.7391 12.2022 22.7391 12.3398C22.7391 12.9025 22.0639 13.3776 21.0885 13.7153C20.9635 13.2776 20.801 12.8149 20.6009 12.3398C20.801 11.8771 20.976 11.4145 21.0885 10.9643C21.2261 11.0143 21.3636 11.0643 21.4887 11.1143C21.4762 11.2894 21.5262 11.4645 21.6638 11.602C21.9013 11.8396 22.3015 11.8396 22.5391 11.602C22.7766 11.3644 22.7766 10.9643 22.5391 10.7267C22.3265 10.5141 22.0014 10.4891 21.7513 10.6517C21.5762 10.5767 21.4012 10.5016 21.2011 10.4391C21.2261 10.2891 21.2511 10.1515 21.2761 10.0015C21.4262 8.86355 21.1761 8.03827 20.5884 7.70065C20.4008 7.58811 20.1882 7.53809 19.9507 7.53809C19.3504 7.53809 18.6377 7.91322 17.9124 8.53844C17.1872 7.90071 16.4744 7.53809 15.8742 7.53809C15.6366 7.53809 15.4241 7.58811 15.2365 7.70065C14.9864 7.8382 14.7988 8.07578 14.6863 8.37588C14.4237 8.45091 14.2236 8.68849 14.2236 8.97609C14.2236 9.31371 14.4987 9.58881 14.8363 9.58881C15.174 9.58881 15.4491 9.31371 15.4491 8.97609C15.4491 8.77602 15.349 8.60096 15.2115 8.48843C15.2865 8.33837 15.3865 8.23833 15.4991 8.16331C15.5991 8.10078 15.7242 8.07578 15.8742 8.07578C16.2994 8.07578 16.8871 8.36338 17.5248 8.91357C17.1997 9.23868 16.8871 9.61382 16.5745 10.0265C16.0618 10.089 15.5741 10.1765 15.1365 10.2891C15.1114 10.1765 15.0989 10.0515 15.0739 9.93893C15.0739 9.92643 15.0739 9.90142 15.0739 9.88892C14.9989 9.91393 14.9239 9.91392 14.8363 9.91392C14.7363 9.91392 14.6363 9.90142 14.5362 9.86391C14.5362 9.91393 14.5487 9.95144 14.5487 10.0015C14.5613 10.139 14.5863 10.2891 14.6238 10.4391C13.3608 10.8768 12.5605 11.552 12.5605 12.3273C12.5605 13.1026 13.3608 13.7903 14.6238 14.2154C14.5988 14.3655 14.5738 14.503 14.5487 14.6531C14.3987 15.791 14.6488 16.6163 15.2365 16.9539C15.4241 17.0664 15.6366 17.1165 15.8742 17.1165C15.9367 17.1165 16.0118 17.1165 16.0743 17.104C15.9742 16.9414 15.9242 16.7663 15.9242 16.5913C15.9117 16.5913 15.8867 16.5913 15.8742 16.5913C15.7367 16.5913 15.6116 16.5663 15.4991 16.5037C15.1114 16.2787 14.9614 15.6409 15.0739 14.7281C15.0864 14.6156 15.1114 14.503 15.1365 14.378C15.5741 14.4905 16.0618 14.5906 16.5745 14.6406C16.8746 15.0532 17.1997 15.4284 17.5248 15.7535C17.3997 15.866 17.2747 15.9661 17.1497 16.0536C16.9121 15.9285 16.6245 15.9661 16.4244 16.1536C16.1868 16.3912 16.1868 16.7913 16.4244 17.0289C16.662 17.2665 17.0621 17.2665 17.2997 17.0289C17.4498 16.8789 17.5123 16.6663 17.4623 16.4662C17.6123 16.3537 17.7624 16.2412 17.9124 16.1036C18.6377 16.7413 19.3504 17.104 19.9507 17.104C20.1882 17.104 20.4008 17.0539 20.5884 16.9414C21.1761 16.6038 21.4137 15.791 21.2761 14.6406C21.2636 14.503 21.2386 14.353 21.2011 14.2029C22.464 13.8028 23.2643 13.1276 23.2643 12.3398ZM19.9632 8.08828C20.1007 8.08828 20.2257 8.11329 20.3383 8.17582C20.7259 8.40089 20.876 9.03862 20.7634 9.95144C20.7509 10.064 20.7259 10.1765 20.7009 10.3016C20.2633 10.189 19.7756 10.089 19.2629 10.039C18.9628 9.62632 18.6377 9.25119 18.3126 8.92608C18.9503 8.36338 19.538 8.08828 19.9632 8.08828ZM20.2883 11.7021C20.1882 11.5145 20.1007 11.3394 19.9882 11.1519C19.8881 10.9768 19.7756 10.8017 19.6756 10.6267C19.9882 10.6767 20.2883 10.7392 20.5759 10.8142C20.5008 11.1143 20.4008 11.402 20.2883 11.7021ZM20.5759 13.8653C20.2883 13.9403 19.9882 14.0029 19.6756 14.0529C19.7881 13.8903 19.8881 13.7153 19.9882 13.5277C20.0882 13.3401 20.1882 13.1651 20.2883 12.9775C20.4008 13.2901 20.5008 13.5777 20.5759 13.8653ZM17.9249 9.2762C18.1375 9.48878 18.3376 9.71385 18.5502 9.97644C18.3501 9.96394 18.1375 9.96394 17.9249 9.96394C17.7124 9.96394 17.4998 9.96394 17.2997 9.97644C17.4998 9.71385 17.7124 9.48878 17.9249 9.2762ZM16.1743 10.6392C16.0618 10.8017 15.9617 10.9768 15.8617 11.1644C15.7617 11.3519 15.6616 11.527 15.5616 11.7146C15.4491 11.4145 15.349 11.1269 15.274 10.8393C15.5616 10.7517 15.8617 10.6892 16.1743 10.6392ZM14.7613 13.7153C13.786 13.3901 13.1107 12.915 13.1107 12.3398C13.1107 11.7771 13.786 11.3019 14.7613 10.9643C14.8864 11.4019 15.0489 11.8646 15.249 12.3398C15.0489 12.8149 14.8864 13.2776 14.7613 13.7153ZM15.274 13.8653C15.349 13.5777 15.4491 13.2901 15.5616 12.99C15.6616 13.1776 15.7492 13.3526 15.8617 13.5402C15.9617 13.7153 16.0743 13.8903 16.1743 14.0654C15.8617 14.0029 15.5616 13.9403 15.274 13.8653ZM16.3119 13.2651C16.1368 12.9525 15.9742 12.6524 15.8242 12.3398C15.9617 12.0272 16.1243 11.7271 16.3119 11.4145C16.4869 11.1018 16.6745 10.8142 16.8621 10.5391C17.2122 10.5016 17.5623 10.4891 17.9124 10.4891C18.2626 10.4891 18.6127 10.5016 18.9628 10.5391C19.1504 10.8142 19.3379 11.1018 19.513 11.4145C19.6881 11.7271 19.8506 12.0272 20.0007 12.3398C19.8631 12.6524 19.7006 12.9525 19.513 13.2651C19.3379 13.5777 19.1504 13.8653 18.9628 14.1404C18.6127 14.1779 18.2626 14.1904 17.9124 14.1904C17.5623 14.1904 17.2122 14.1779 16.8621 14.1404C16.687 13.8778 16.4994 13.5902 16.3119 13.2651ZM17.2997 14.7156C17.4998 14.7281 17.7124 14.7281 17.9249 14.7281C18.1375 14.7281 18.3501 14.7281 18.5502 14.7156C18.3376 14.9782 18.1375 15.2158 17.9249 15.4159C17.7124 15.2033 17.4998 14.9657 17.2997 14.7156ZM20.3258 16.5163C20.2257 16.5788 20.1007 16.6038 19.9507 16.6038C19.5255 16.6038 18.9378 16.3162 18.3001 15.766C18.6252 15.4409 18.9378 15.0657 19.2504 14.6531C19.7631 14.5906 20.2508 14.503 20.6884 14.3905C20.7134 14.503 20.7259 14.6281 20.7509 14.7406C20.8635 15.6409 20.7134 16.2912 20.3258 16.5163Z" fill="#77BCFF"/>
</svg>
