<svg width="42" height="42" viewBox="0 0 42 42" fill="none" xmlns="http://www.w3.org/2000/svg">
<path d="M0 5C0 2.23858 2.23858 0 5 0H37C39.7614 0 42 2.23858 42 5V42H0V5Z" fill="white"/>
<path d="M11 20.45C11 20.0634 11.2985 19.75 11.6667 19.75H30.3333C30.7015 19.75 31 20.0634 31 20.45V22.55C31 22.9366 30.7015 23.25 30.3333 23.25H11.6667C11.2985 23.25 11 22.9366 11 22.55V20.45Z" fill="black"/>
<path d="M22 11C22.3682 11 22.6667 11.3134 22.6667 11.7L22.6667 31.3C22.6667 31.6866 22.3682 32 22 32H20C19.6318 32 19.3333 31.6866 19.3333 31.3L19.3333 11.7C19.3333 11.3134 19.6318 11 20 11L22 11Z" fill="black"/>
</svg>
