<svg width="42" height="42" viewBox="0 0 42 42" fill="none" xmlns="http://www.w3.org/2000/svg">
<path d="M0 5C0 2.23858 2.23858 0 5 0H37C39.7614 0 42 2.23858 42 5V37C42 39.7614 39.7614 42 37 42H5C2.23858 42 0 39.7614 0 37V5Z" fill="white"/>
<path d="M21 16.3332C18.79 16.3332 17 18.1978 17 20.4998C17 22.8019 18.79 24.6665 21 24.6665C23.21 24.6665 25 22.8019 25 20.4998C25 18.1978 23.21 16.3332 21 16.3332ZM29.94 19.4582C29.48 15.1144 26.17 11.6665 22 11.1873V9.0415H20V11.1873C15.83 11.6665 12.52 15.1144 12.06 19.4582H10V21.5415H12.06C12.52 25.8853 15.83 29.3332 20 29.8123V31.9582H22V29.8123C26.17 29.3332 29.48 25.8853 29.94 21.5415H32V19.4582H29.94ZM21 27.7915C17.13 27.7915 14 24.5311 14 20.4998C14 16.4686 17.13 13.2082 21 13.2082C24.87 13.2082 28 16.4686 28 20.4998C28 24.5311 24.87 27.7915 21 27.7915Z" fill="black"/>
</svg>
