<svg width="125" height="108" viewBox="0 0 125 108" fill="none" xmlns="http://www.w3.org/2000/svg">
<path d="M91.5247 56.9566C93.1177 56.9566 94.4095 55.6098 94.4095 53.949C94.4095 52.2882 93.1177 50.9414 91.5247 50.9414C89.9317 50.9414 88.6399 52.2882 88.6399 53.949C88.6399 55.6098 89.9317 56.9566 91.5247 56.9566Z" fill="black" stroke="black" stroke-width="8.65448" stroke-linecap="round" stroke-linejoin="round"/>
<path d="M62.6766 56.9566C64.2696 56.9566 65.5614 55.6098 65.5614 53.949C65.5614 52.2882 64.2696 50.9414 62.6766 50.9414C61.0836 50.9414 59.7917 52.2882 59.7917 53.949C59.7917 55.6098 61.0836 56.9566 62.6766 56.9566Z" fill="black" stroke="black" stroke-width="8.65448" stroke-linecap="round" stroke-linejoin="round"/>
<path d="M33.8282 56.9566C35.4214 56.9566 36.713 55.6098 36.713 53.949C36.713 52.2882 35.4214 50.9414 33.8282 50.9414C32.235 50.9414 30.9434 52.2882 30.9434 53.949C30.9434 55.6098 32.235 56.9566 33.8282 56.9566Z" fill="black" stroke="black" stroke-width="8.65448" stroke-linecap="round" stroke-linejoin="round"/>
<path d="M62.5 103C94.2561 103 120 81.0617 120 54C120 26.938 94.2561 5 62.5 5C30.7436 5 5 26.938 5 54C5 62.9249 7.80008 71.2926 12.6925 78.5L7.875 100.55L33.75 96.4448C42.2075 100.614 52.0269 103 62.5 103Z" stroke="black" stroke-width="8.65448" stroke-linecap="round" stroke-linejoin="round"/>
</svg>
