<svg width="42" height="39" viewBox="0 0 42 39" fill="none" xmlns="http://www.w3.org/2000/svg">
<path d="M32.693 12.7989C32.693 6.01971 26.9673 0.568849 20.0965 1.0269C14.1876 1.39335 9.4238 6.20294 9.05736 12.1119C8.87414 15.0892 9.83606 17.8833 11.5309 20.0362C12.7676 21.6394 13.5005 23.5632 13.5005 25.6245V26.9987H28.2499V25.6245C28.2499 23.6549 28.8454 21.731 30.0821 20.2194C31.7311 18.204 32.693 15.5931 32.693 12.7989Z" fill="#77BCFF" stroke="#77BCFF" stroke-width="2" stroke-miterlimit="10" stroke-linecap="round" stroke-linejoin="round"/>
<path d="M28.5718 31.4418H13.1811C11.9901 31.4418 10.9824 30.4798 10.9824 29.2431C10.9824 28.0522 11.9443 27.0444 13.1811 27.0444H28.5718C29.7627 27.0444 30.7704 28.0063 30.7704 29.2431C30.7704 30.4798 29.8085 31.4418 28.5718 31.4418Z" fill="#D2D2D2"/>
<path d="M28.5718 35.8397H13.1811C11.9901 35.8397 10.9824 34.8778 10.9824 33.641C10.9824 32.4501 11.9443 31.4424 13.1811 31.4424H28.5718C29.7627 31.4424 30.7704 32.4043 30.7704 33.641C30.7704 34.832 29.8085 35.8397 28.5718 35.8397Z" fill="#D2D2D2"/>
<path d="M25.8217 35.519C25.8217 37.4429 24.2643 39.0003 22.3405 39.0003H19.409C17.4851 39.0003 15.9277 37.4429 15.9277 35.519" fill="#D2D2D2"/>
<path d="M4.84383 13.4404H1.5" stroke="#77BCFF" stroke-width="3" stroke-miterlimit="10" stroke-linecap="round" stroke-linejoin="round"/>
<path d="M40.252 13.4404H36.9082" stroke="#77BCFF" stroke-width="3" stroke-miterlimit="10" stroke-linecap="round" stroke-linejoin="round"/>
<path d="M6.40206 6.56939L3.37891 5.14941" stroke="#77BCFF" stroke-width="3" stroke-miterlimit="10" stroke-linecap="round" stroke-linejoin="round"/>
<path d="M38.4197 21.6856L35.3965 20.2656" stroke="#77BCFF" stroke-width="3" stroke-miterlimit="10" stroke-linecap="round" stroke-linejoin="round"/>
<path d="M35.3965 6.56939L38.4197 5.14941" stroke="#77BCFF" stroke-width="3" stroke-miterlimit="10" stroke-linecap="round" stroke-linejoin="round"/>
<path d="M3.37891 21.6856L6.40206 20.2656" stroke="#77BCFF" stroke-width="3" stroke-miterlimit="10" stroke-linecap="round" stroke-linejoin="round"/>
<path d="M21.9935 12.0973C21.9935 11.3781 21.3976 10.7822 20.6784 10.7822C19.9592 10.7822 19.3633 11.3781 19.3633 12.0973C19.3633 12.8165 19.9592 13.4124 20.6784 13.4124C21.3976 13.433 21.9935 12.8371 21.9935 12.0973Z" fill="white"/>
<path d="M29.6245 12.0971C29.6245 11.6245 29.4395 11.193 29.1313 10.782C29.0491 10.9669 28.9464 11.1313 28.8026 11.2752C28.7409 11.3368 28.6587 11.3985 28.5765 11.4601C28.6998 11.6656 28.7615 11.8711 28.7615 12.0971C28.7615 13.0218 27.6518 13.8026 26.0491 14.3574C25.8436 13.6382 25.5765 12.8779 25.2477 12.0971C25.5765 11.3368 25.8641 10.5765 26.0491 9.83678C26.2751 9.91897 26.5011 10.0012 26.7066 10.0834C26.6861 10.371 26.7683 10.6587 26.9943 10.8847C27.3847 11.2752 28.0423 11.2752 28.4327 10.8847C28.8231 10.4943 28.8231 9.83677 28.4327 9.44635C28.0834 9.09703 27.5491 9.05594 27.1381 9.32307C26.8505 9.19978 26.5628 9.07649 26.234 8.97375C26.2751 8.72717 26.3162 8.50114 26.3573 8.25456C26.6039 6.38466 26.1929 5.02848 25.2271 4.47368C24.9189 4.28875 24.5696 4.20654 24.1792 4.20654C23.1929 4.20654 22.0216 4.82299 20.8298 5.85041C19.638 4.80244 18.4668 4.20654 17.4805 4.20654C17.09 4.20654 16.7407 4.28875 16.4325 4.47368C16.0215 4.69971 15.7133 5.09012 15.5284 5.58328C15.0968 5.70657 14.7681 6.09698 14.7681 6.5696C14.7681 7.1244 15.2201 7.57647 15.7749 7.57647C16.3297 7.57647 16.7818 7.1244 16.7818 6.5696C16.7818 6.24082 16.6174 5.95315 16.3914 5.76822C16.5147 5.52164 16.6791 5.35725 16.864 5.23396C17.0284 5.13122 17.2339 5.09013 17.4805 5.09013C18.1791 5.09013 19.1449 5.56273 20.1928 6.46685C19.6586 7.00111 19.1449 7.61756 18.6312 8.29566C17.7887 8.3984 16.9873 8.54223 16.2681 8.72716C16.227 8.54223 16.2065 8.33675 16.1654 8.15182C16.1654 8.13127 16.1654 8.09018 16.1654 8.06963C16.0421 8.11073 15.9188 8.11072 15.7749 8.11072C15.6106 8.11072 15.4462 8.09018 15.2818 8.02853C15.2818 8.11072 15.3023 8.17236 15.3023 8.25456C15.3229 8.48059 15.364 8.72717 15.4256 8.97375C13.3502 9.69294 12.0352 10.8026 12.0352 12.0765C12.0352 13.3505 13.3502 14.4807 15.4256 15.1793C15.3845 15.4259 15.3434 15.6519 15.3023 15.8985C15.0558 17.7684 15.4667 19.1246 16.4325 19.6794C16.7407 19.8643 17.09 19.9465 17.4805 19.9465C17.5832 19.9465 17.7065 19.9465 17.8092 19.926C17.6448 19.6589 17.5626 19.3712 17.5626 19.0835C17.5421 19.0835 17.501 19.0835 17.4805 19.0835C17.2544 19.0835 17.0489 19.0424 16.864 18.9397C16.227 18.5698 15.9804 17.5218 16.1654 16.0218C16.1859 15.8369 16.227 15.6519 16.2681 15.4465C16.9873 15.6314 17.7887 15.7958 18.6312 15.878C19.1243 16.5561 19.6586 17.1725 20.1928 17.7068C19.9873 17.8917 19.7819 18.0561 19.5764 18.1999C19.186 17.9944 18.7133 18.0561 18.3846 18.3643C17.9942 18.7547 17.9942 19.4123 18.3846 19.8027C18.775 20.1931 19.4325 20.1931 19.823 19.8027C20.0695 19.5561 20.1723 19.2068 20.0901 18.878C20.3367 18.6931 20.5832 18.5081 20.8298 18.2821C22.0216 19.3301 23.1929 19.926 24.1792 19.926C24.5696 19.926 24.9189 19.8438 25.2271 19.6589C26.1929 19.104 26.5833 17.7684 26.3573 15.878C26.3368 15.6519 26.2957 15.4054 26.234 15.1588C28.3094 14.5012 29.6245 13.3916 29.6245 12.0971ZM24.1997 5.11067C24.4258 5.11067 24.6312 5.15177 24.8162 5.25451C25.4532 5.62438 25.6998 6.67235 25.5148 8.17237C25.4943 8.35731 25.4532 8.54224 25.4121 8.74772C24.6929 8.56279 23.8915 8.39839 23.049 8.3162C22.5559 7.63811 22.0216 7.02167 21.4874 6.48741C22.5353 5.56274 23.5011 5.11067 24.1997 5.11067ZM24.734 11.0491C24.5696 10.7409 24.4258 10.4532 24.2408 10.145C24.0764 9.85733 23.8915 9.56965 23.7271 9.28197C24.2408 9.36416 24.734 9.46691 25.2066 9.5902C25.0833 10.0834 24.9189 10.556 24.734 11.0491ZM25.2066 14.604C24.734 14.7273 24.2408 14.83 23.7271 14.9122C23.9121 14.6451 24.0764 14.3574 24.2408 14.0492C24.4052 13.741 24.5696 13.4533 24.734 13.145C24.9189 13.6588 25.0833 14.1314 25.2066 14.604ZM20.8504 7.06276C21.1997 7.41208 21.5285 7.78194 21.8778 8.21346C21.549 8.19291 21.1997 8.19291 20.8504 8.19291C20.501 8.19291 20.1517 8.19291 19.823 8.21346C20.1517 7.78194 20.501 7.41208 20.8504 7.06276ZM17.9736 9.30253C17.7887 9.56965 17.6243 9.85732 17.4599 10.1655C17.2955 10.4738 17.1311 10.7614 16.9667 11.0697C16.7818 10.5765 16.6174 10.1039 16.4941 9.63129C16.9667 9.48746 17.4599 9.38472 17.9736 9.30253ZM15.6517 14.3574C14.0489 13.8231 12.9393 13.0423 12.9393 12.0971C12.9393 11.1724 14.0489 10.3916 15.6517 9.83678C15.8571 10.556 16.1243 11.3163 16.453 12.0971C16.1243 12.8779 15.8571 13.6382 15.6517 14.3574ZM16.4941 14.604C16.6174 14.1314 16.7818 13.6588 16.9667 13.1656C17.1311 13.4738 17.275 13.7615 17.4599 14.0697C17.6243 14.3574 17.8092 14.6451 17.9736 14.9327C17.4599 14.83 16.9667 14.7273 16.4941 14.604ZM18.1996 13.6177C17.912 13.104 17.6448 12.6108 17.3983 12.0971C17.6243 11.5834 17.8914 11.0902 18.1996 10.5765C18.4873 10.0628 18.7955 9.59019 19.1038 9.13813C19.6791 9.07649 20.2545 9.05594 20.8298 9.05594C21.4052 9.05594 21.9805 9.07649 22.5559 9.13813C22.8641 9.59019 23.1723 10.0628 23.46 10.5765C23.7477 11.0902 24.0148 11.5834 24.2614 12.0971C24.0354 12.6108 23.7682 13.104 23.46 13.6177C23.1723 14.1314 22.8641 14.604 22.5559 15.056C21.9805 15.1177 21.4052 15.1382 20.8298 15.1382C20.2545 15.1382 19.6791 15.1177 19.1038 15.056C18.8161 14.6245 18.5079 14.1519 18.1996 13.6177ZM19.823 16.0013C20.1517 16.0218 20.501 16.0218 20.8504 16.0218C21.1997 16.0218 21.549 16.0218 21.8778 16.0013C21.5285 16.4328 21.1997 16.8232 20.8504 17.152C20.501 16.8026 20.1517 16.4122 19.823 16.0013ZM24.7956 18.9602C24.6313 19.063 24.4258 19.104 24.1792 19.104C23.4805 19.104 22.5148 18.6314 21.4668 17.7273C22.0011 17.1931 22.5148 16.5766 23.0285 15.8985C23.871 15.7958 24.6724 15.6519 25.3915 15.467C25.4326 15.6519 25.4532 15.8574 25.4943 16.0424C25.6792 17.5218 25.4326 18.5904 24.7956 18.9602Z" fill="white"/>
</svg>
