<svg width="65" height="65" viewBox="0 0 65 65" fill="none" xmlns="http://www.w3.org/2000/svg">
<circle cx="32.5" cy="32.5" r="32.5" fill="#EFFBFF"/>
<path d="M30.7363 43.0259H34.931" stroke="white" stroke-width="2" stroke-miterlimit="10" stroke-linecap="round" stroke-linejoin="round"/>
<path d="M31.3691 37.4666V39.5128" stroke="white" stroke-width="2" stroke-miterlimit="10" stroke-linecap="round" stroke-linejoin="round"/>
<path d="M34.4551 37.4668V39.513" stroke="white" stroke-width="2" stroke-miterlimit="10" stroke-linecap="round" stroke-linejoin="round"/>
<path d="M32.9112 49.6669C31.3679 49.6669 30.1016 48.4314 30.1016 46.9257V40.092H35.7208V46.9257C35.7208 48.4701 34.4545 49.6669 32.9112 49.6669Z" stroke="#7DDBFF" stroke-width="2" stroke-miterlimit="10" stroke-linecap="round" stroke-linejoin="round"/>
<path d="M32.9516 34.8022C37.3226 34.8022 40.866 31.3451 40.866 27.0806C40.866 22.816 37.3226 19.3589 32.9516 19.3589C28.5805 19.3589 25.0371 22.816 25.0371 27.0806C25.0371 31.3451 28.5805 34.8022 32.9516 34.8022Z" fill="#DAF2FB"/>
<path d="M20.0117 20.324L28.5593 25.4203" stroke="white" stroke-width="2" stroke-miterlimit="10" stroke-linecap="round" stroke-linejoin="round"/>
<path d="M28.4395 25.4207L37.0267 29.1271" stroke="white" stroke-width="2" stroke-miterlimit="10" stroke-linecap="round" stroke-linejoin="round"/>
<path d="M36.9082 29.1272L45.4558 17.5061" stroke="white" stroke-width="2" stroke-miterlimit="10" stroke-linecap="round" stroke-linejoin="round"/>
<path d="M11.543 25.4203L20.1302 20.324" stroke="white" stroke-width="2" stroke-miterlimit="10" stroke-linecap="round" stroke-linejoin="round"/>
<path d="M13.1262 25.4203C13.1262 24.5709 12.4139 23.9146 11.5829 23.9146C10.7519 23.9146 10 24.6095 10 25.4203C10 26.2311 10.7123 26.926 11.5433 26.926C12.3743 26.926 13.1262 26.2697 13.1262 25.4203Z" fill="#7DDBFF" stroke="#7DDBFF" stroke-width="2" stroke-miterlimit="10" stroke-linecap="round" stroke-linejoin="round"/>
<path d="M21.6745 20.3241C21.6745 19.4747 20.9622 18.8184 20.1312 18.8184C19.3002 18.8184 18.5879 19.5133 18.5879 20.3241C18.5879 21.1349 19.3002 21.8298 20.1312 21.8298C20.9622 21.8298 21.6745 21.1735 21.6745 20.3241Z" fill="#7DDBFF" stroke="#7DDBFF" stroke-width="2" stroke-miterlimit="10" stroke-linecap="round" stroke-linejoin="round"/>
<path d="M30.1023 25.4203C30.1023 24.5709 29.39 23.9146 28.5589 23.9146C27.7279 23.9146 27.0156 24.6095 27.0156 25.4203C27.0156 26.2311 27.7279 26.926 28.5589 26.926C29.39 26.926 30.1023 26.2697 30.1023 25.4203Z" fill="#7DDBFF" stroke="#7DDBFF" stroke-width="2" stroke-miterlimit="10" stroke-linecap="round" stroke-linejoin="round"/>
<path d="M38.571 29.1271C38.571 28.2777 37.8587 27.6213 37.0277 27.6213C36.1967 27.6213 35.4844 28.3163 35.4844 29.1271C35.4844 29.9378 36.1967 30.6328 37.0277 30.6328C37.8587 30.6328 38.571 29.9764 38.571 29.1271Z" fill="#7DDBFF" stroke="#7DDBFF" stroke-width="2" stroke-miterlimit="10" stroke-linecap="round" stroke-linejoin="round"/>
<path d="M47.0007 17.5057C47.0007 16.6563 46.2884 16 45.4574 16C44.5868 16 43.9141 16.695 43.9141 17.5057C43.9141 18.3165 44.6264 19.0115 45.4574 19.0115C46.328 19.0501 47.0007 18.3551 47.0007 17.5057Z" fill="#7DDBFF" stroke="#7DDBFF" stroke-width="2" stroke-miterlimit="10" stroke-linecap="round" stroke-linejoin="round"/>
<path d="M32.9113 36.9254C38.4843 36.9254 43.0022 32.5176 43.0022 27.0802C43.0022 21.6429 38.4843 17.2351 32.9113 17.2351C27.3382 17.2351 22.8203 21.6429 22.8203 27.0802C22.8203 32.5176 27.3382 36.9254 32.9113 36.9254Z" stroke="#7DDBFF" stroke-width="2" stroke-miterlimit="10" stroke-linecap="round" stroke-linejoin="round"/>
</svg>
