<svg width="61" height="61" viewBox="0 0 61 61" fill="none" xmlns="http://www.w3.org/2000/svg">
<g clip-path="url(#clip0_305_10679)">
<path d="M14.418 28.9834H23.1974V31.8597H17.3235V34.8146H26.1029V37.6752H28.977V40.6616H31.8825V43.4907H34.7723V37.6752H37.6778V52.3083H31.8825V49.4006H34.7723V46.4457H31.8825V49.4006H26.1029V46.4457H28.977V43.4907H20.2133V40.6616H17.3235V37.6752H14.418V34.8146H11.5439V37.6752H8.5913V34.8146H5.63867V31.8597H14.418V28.9834Z" fill="#69747C"/>
<path d="M61.0002 0.0314941V20.2286H40.7559V0.0314941H61.0002ZM43.5828 17.2894H58.0476V2.90781H43.5828V17.2894Z" fill="#69747C"/>
<path d="M40.7559 40.6616H60.9845V61.0002H40.7559V40.6616ZM58.0947 43.4908H43.5828V58.0767H58.0947V43.4908Z" fill="#69747C"/>
<path d="M20.2129 20.2443H0V0.0314941H20.2129V20.2443ZM17.3231 2.92353H2.74846V17.3051H17.3231V2.92353Z" fill="#69747C"/>
<path d="M8.59089 55.2002H0V52.3081H5.63826V49.4004H2.74846V46.4455H5.63826V43.4906H0V34.8145H2.74846V37.6751H5.63826V40.6614H8.59089V43.4906H11.5435V40.6614H14.4176V43.4906H17.3231V46.4455H14.4176V49.4004H11.5435V46.4455H8.59089V49.4004H11.5435V52.3081H8.59089V55.2002Z" fill="#69747C"/>
<path d="M23.1973 23.1677V17.4937H26.1028V20.2285H28.9769V14.5073V14.5545H31.8824V20.1971H34.7722V17.4622H37.6777V23.1677H52.3152V26.0283H37.6777V28.9832H34.7722V23.1677H31.8824V26.0283H26.1028V23.1677H23.1973Z" fill="#69747C"/>
<path d="M43.5826 34.8146V37.6752H37.6774V34.8146H34.7719V37.6752H31.8821V34.8146H28.9766V31.8597H37.6774V28.9834H43.5826V31.8597H40.7557V34.8146H43.5826Z" fill="#69747C"/>
<path d="M52.3157 28.9834V31.8597H58.1268V28.9834H60.9537V34.8146H58.1268V37.6752H52.3157V34.8146H49.3945V28.9834H52.3157Z" fill="#69747C"/>
<path d="M14.4185 52.3081V55.2001H20.2138V58.1393H17.324V60.9999H8.5918V55.2001H11.5444V52.3081H14.4185Z" fill="#69747C"/>
<path d="M5.63826 31.8598H2.74846V28.9835H0V23.168H2.74846V26.0286H8.59089V28.9835H5.63826V31.8598Z" fill="#69747C"/>
<path d="M31.8821 8.56609V2.90776H28.9766V0H37.6774V2.75058H34.7719V8.56609H31.8821Z" fill="#69747C"/>
<path d="M26.1028 11.5366H23.1973V0.015625H26.1028V11.5838V11.5366Z" fill="#69747C"/>
<path d="M31.8821 52.3081V55.2001H34.7719V58.1393H28.9766V52.3081H31.8821Z" fill="#69747C"/>
<path d="M14.418 49.4004H23.1188V52.3081H14.418V49.4004Z" fill="#69747C"/>
<path d="M20.2129 58.1392H28.9765V60.9998H20.2129V58.1392Z" fill="#69747C"/>
<path d="M23.1961 26.0286H17.3223V23.168H23.1961V26.0286Z" fill="#69747C"/>
<path d="M14.4171 28.9835H11.543V23.168H14.4171V28.9835Z" fill="#69747C"/>
<path d="M37.677 11.6782H34.7715V14.3659H37.677V11.6782Z" fill="#69747C"/>
<path d="M34.7715 58.1392H37.677V60.9998H34.7715V58.1392Z" fill="#69747C"/>
<path d="M23.1973 28.9832V26.0283H26.1028V28.9832H23.1973Z" fill="#69747C"/>
<path d="M46.4875 34.8143H43.582V31.8594H46.4875V34.8143Z" fill="#69747C"/>
<path d="M49.3938 34.8145V37.6751H46.4883V34.8145H49.3938Z" fill="#69747C"/>
<path d="M52.3145 26.0283H55.1414V28.9832H52.3145V26.0283Z" fill="#69747C"/>
<path d="M60.9363 23.168H58.125V26.0286H60.9363V23.168Z" fill="#69747C"/>
<path d="M26.1016 11.5838H28.9757V14.5544V14.5072H26.1016V11.5366V11.5838Z" fill="#69747C"/>
<path d="M2.74846 58.1392H0V60.9998H2.74846V58.1392Z" fill="#69747C"/>
<path d="M28.9757 28.9834H26.1016V31.8597H28.9757V28.9834Z" fill="#69747C"/>
<path d="M55.1263 5.81543H46.4883V14.3815H55.1263V5.81543Z" fill="#69747C"/>
<path d="M55.142 46.4453H46.4883V55.1843H55.142V46.4453Z" fill="#69747C"/>
<path d="M14.418 5.7998H5.63867V14.3502H14.418V5.7998Z" fill="#69747C"/>
</g>
<defs>
<clipPath id="clip0_305_10679">
<rect width="61" height="61" fill="white"/>
</clipPath>
</defs>
</svg>
