<svg width="37" height="38" viewBox="0 0 37 38" fill="none" xmlns="http://www.w3.org/2000/svg">
<path d="M30.3517 24.442L30.0584 23.5295C29.9281 23.171 29.537 22.9429 29.1459 23.0733L20.2489 25.9738V22.063H17.8372V25.9738L8.94015 23.0733C8.58166 22.9429 8.15799 23.171 8.02763 23.5295L7.73432 24.442C7.60396 24.8005 7.83209 25.2242 8.19058 25.3546L17.8372 28.4832V28.7113H18.4238C18.5868 28.8417 18.8149 28.9069 19.0104 28.8743C19.2386 28.9069 19.4341 28.8417 19.5971 28.7113H20.1837V28.4832L29.8955 25.322C30.2866 25.2242 30.4821 24.8005 30.3517 24.442Z" fill="#D2D2D2"/>
<path d="M30.353 19.1306C28.365 20.2061 27.5177 22.7155 27.1918 23.9865C27.0614 24.4428 27.3221 24.899 27.7784 25.062C29.0168 25.4856 31.5914 26.1374 33.5794 25.062C35.5674 23.9865 36.4147 21.4771 36.7406 20.2061C36.871 19.7498 36.6103 19.2935 36.154 19.1306C34.883 18.7069 32.341 18.0551 30.353 19.1306Z" fill="#77BCFF"/>
<path d="M7.80009 19.1306C9.78808 20.2061 10.6354 22.7155 10.9613 23.9865C11.0917 24.4428 10.831 24.899 10.3747 25.062C9.13628 25.4856 6.56168 26.1374 4.57369 25.062C2.5857 23.9865 1.73836 21.4771 1.41246 20.2061C1.2821 19.7498 1.54282 19.2935 1.99908 19.1306C3.2375 18.7069 5.8121 18.0551 7.80009 19.1306Z" fill="#77BCFF"/>
<path d="M19.0764 22.813C25.376 22.813 30.4829 17.7061 30.4829 11.4065C30.4829 5.10685 25.376 0 19.0764 0C12.7768 0 7.66992 5.10685 7.66992 11.4065C7.66992 17.7061 12.7768 22.813 19.0764 22.813Z" fill="#77BCFF"/>
<path d="M19.0754 20.2709C23.9711 20.2709 27.9399 16.3022 27.9399 11.4065C27.9399 6.51075 23.9711 2.54199 19.0754 2.54199C14.1797 2.54199 10.2109 6.51075 10.2109 11.4065C10.2109 16.3022 14.1797 20.2709 19.0754 20.2709Z" fill="white"/>
<path d="M26.7348 28.3208H11.3849C10.9939 28.3208 10.668 28.6467 10.668 29.0378V30.0155C10.668 30.4066 10.9939 30.7324 11.3849 30.7324H12.2975C12.2649 30.7976 12.2649 30.8954 12.2649 30.9606V37.0875C12.2649 37.6089 12.6885 38 13.1774 38H24.9098C25.4312 38 25.8223 37.5763 25.8223 37.0875V30.9606C25.8223 30.8628 25.8223 30.7976 25.7897 30.7324H26.7022C27.0933 30.7324 27.4192 30.4066 27.4192 30.0155V29.0378C27.4518 28.6141 27.1259 28.3208 26.7348 28.3208Z" fill="#77BCFF"/>
<path d="M34.9153 14.1113C35.7972 14.1113 36.5122 13.3963 36.5122 12.5144C36.5122 11.6324 35.7972 10.9175 34.9153 10.9175C34.0333 10.9175 33.3184 11.6324 33.3184 12.5144C33.3184 13.3963 34.0333 14.1113 34.9153 14.1113Z" fill="#77BCFF"/>
<path d="M2.0969 16.3603C2.97885 16.3603 3.69381 15.6453 3.69381 14.7634C3.69381 13.8815 2.97885 13.1665 2.0969 13.1665C1.21496 13.1665 0.5 13.8815 0.5 14.7634C0.5 15.6453 1.21496 16.3603 2.0969 16.3603Z" fill="#77BCFF"/>
<path d="M3.69291 6.38778C5.02483 6.38778 6.10456 5.30804 6.10456 3.97612C6.10456 2.6442 5.02483 1.56445 3.69291 1.56445C2.36099 1.56445 1.28125 2.6442 1.28125 3.97612C1.28125 5.30804 2.36099 6.38778 3.69291 6.38778Z" fill="#77BCFF"/>
<path d="M31.9488 31.9053C33.2807 31.9053 34.3604 30.8256 34.3604 29.4937C34.3604 28.1618 33.2807 27.082 31.9488 27.082C30.6168 27.082 29.5371 28.1618 29.5371 29.4937C29.5371 30.8256 30.6168 31.9053 31.9488 31.9053Z" fill="#77BCFF"/>
<path d="M19.9923 11.3297C19.9923 10.802 19.5551 10.3647 19.0274 10.3647C18.4997 10.3647 18.0625 10.802 18.0625 11.3297C18.0625 11.8573 18.4997 12.2946 19.0274 12.2946C19.5551 12.3096 19.9923 11.8724 19.9923 11.3297Z" fill="#77BCFF"/>
<path d="M25.4642 11.3295C25.4642 10.9827 25.3285 10.6661 25.1024 10.3646C25.0421 10.5003 24.9667 10.6209 24.8611 10.7264C24.8159 10.7716 24.7556 10.8169 24.6953 10.8621C24.7858 11.0129 24.831 11.1636 24.831 11.3295C24.831 12.0079 24.0168 12.5808 22.8409 12.9879C22.6901 12.4602 22.4941 11.9024 22.2529 11.3295C22.4941 10.7716 22.7052 10.2138 22.8409 9.67105C23.0067 9.73135 23.1726 9.79166 23.3233 9.85197C23.3082 10.063 23.3686 10.2741 23.5344 10.44C23.8209 10.7264 24.3033 10.7264 24.5898 10.44C24.8762 10.1535 24.8762 9.67104 24.5898 9.38459C24.3335 9.12828 23.9415 9.09813 23.6399 9.29413C23.4289 9.20367 23.2178 9.11321 22.9766 9.03783C23.0067 8.85691 23.0369 8.69106 23.067 8.51014C23.2479 7.13817 22.9464 6.14311 22.2378 5.73604C22.0117 5.60035 21.7554 5.54004 21.4689 5.54004C20.7452 5.54004 19.8859 5.99234 19.0114 6.74617C18.137 5.97726 17.2776 5.54004 16.5539 5.54004C16.2675 5.54004 16.0111 5.60035 15.785 5.73604C15.4835 5.90189 15.2573 6.18834 15.1216 6.55018C14.805 6.64064 14.5638 6.92709 14.5638 7.27385C14.5638 7.68092 14.8955 8.01261 15.3025 8.01261C15.7096 8.01261 16.0413 7.68092 16.0413 7.27385C16.0413 7.03263 15.9207 6.82156 15.7548 6.68587C15.8453 6.50495 15.9659 6.38433 16.1016 6.29387C16.2222 6.21849 16.373 6.18834 16.5539 6.18834C17.0665 6.18834 17.7751 6.5351 18.544 7.19847C18.152 7.59046 17.7751 8.04277 17.3982 8.5403C16.7801 8.61568 16.1921 8.72121 15.6644 8.8569C15.6342 8.72121 15.6192 8.57045 15.589 8.43476C15.589 8.41968 15.589 8.38953 15.589 8.37446C15.4985 8.40461 15.4081 8.4046 15.3025 8.4046C15.1819 8.4046 15.0613 8.38953 14.9407 8.3443C14.9407 8.40461 14.9558 8.44984 14.9558 8.51014C14.9709 8.67599 15.001 8.85691 15.0462 9.03783C13.5235 9.56551 12.5586 10.3797 12.5586 11.3144C12.5586 12.2492 13.5235 13.0784 15.0462 13.591C15.0161 13.7719 14.9859 13.9377 14.9558 14.1187C14.7749 15.4906 15.0764 16.4857 15.785 16.8928C16.0111 17.0285 16.2675 17.0888 16.5539 17.0888C16.6293 17.0888 16.7198 17.0888 16.7951 17.0737C16.6745 16.8777 16.6142 16.6666 16.6142 16.4555C16.5991 16.4555 16.569 16.4555 16.5539 16.4555C16.3881 16.4555 16.2373 16.4254 16.1016 16.35C15.6342 16.0786 15.4533 15.3097 15.589 14.2091C15.6041 14.0734 15.6342 13.9377 15.6644 13.787C16.1921 13.9227 16.7801 14.0433 17.3982 14.1036C17.76 14.6011 18.152 15.0534 18.544 15.4454C18.3933 15.5811 18.2425 15.7017 18.0917 15.8072C17.8053 15.6565 17.4585 15.7017 17.2173 15.9279C16.9308 16.2143 16.9308 16.6968 17.2173 16.9832C17.5037 17.2697 17.9862 17.2697 18.2726 16.9832C18.4536 16.8023 18.5289 16.546 18.4686 16.3048C18.6496 16.1691 18.8305 16.0334 19.0114 15.8675C19.8859 16.6365 20.7452 17.0737 21.4689 17.0737C21.7554 17.0737 22.0117 17.0134 22.2378 16.8777C22.9464 16.4706 23.2329 15.4906 23.067 14.1036C23.0519 13.9377 23.0218 13.7568 22.9766 13.5759C24.4993 13.0935 25.4642 12.2793 25.4642 11.3295ZM21.484 6.20342C21.6498 6.20342 21.8006 6.23357 21.9363 6.30895C22.4036 6.58033 22.5846 7.34925 22.4489 8.44984C22.4338 8.58553 22.4036 8.72122 22.3735 8.87199C21.8458 8.7363 21.2578 8.61568 20.6397 8.55537C20.2778 8.05784 19.8859 7.60555 19.4939 7.21355C20.2628 6.5351 20.9714 6.20342 21.484 6.20342ZM21.876 10.5606C21.7554 10.3344 21.6498 10.1233 21.5141 9.8972C21.3935 9.68612 21.2578 9.47505 21.1372 9.26398C21.5141 9.32428 21.876 9.39967 22.2227 9.49012C22.1323 9.85196 22.0117 10.1987 21.876 10.5606ZM22.2227 13.1688C21.876 13.2593 21.5141 13.3347 21.1372 13.395C21.2729 13.199 21.3935 12.9879 21.5141 12.7618C21.6347 12.5356 21.7554 12.3245 21.876 12.0984C22.0117 12.4753 22.1323 12.8221 22.2227 13.1688ZM19.0265 7.6357C19.2828 7.892 19.524 8.16338 19.7803 8.47999C19.5391 8.46491 19.2828 8.46491 19.0265 8.46491C18.7702 8.46491 18.5139 8.46491 18.2726 8.47999C18.5139 8.16338 18.7702 7.892 19.0265 7.6357ZM16.9157 9.27906C16.7801 9.47505 16.6594 9.68612 16.5388 9.91227C16.4182 10.1384 16.2976 10.3495 16.177 10.5756C16.0413 10.2138 15.9207 9.86704 15.8302 9.52028C16.177 9.41474 16.5388 9.33936 16.9157 9.27906ZM15.2121 12.9879C14.0361 12.5959 13.222 12.023 13.222 11.3295C13.222 10.651 14.0361 10.0781 15.2121 9.67105C15.3629 10.1987 15.5588 10.7566 15.8001 11.3295C15.5588 11.9024 15.3629 12.4602 15.2121 12.9879ZM15.8302 13.1688C15.9207 12.8221 16.0413 12.4753 16.177 12.1135C16.2976 12.3396 16.4031 12.5507 16.5388 12.7768C16.6594 12.9879 16.7951 13.199 16.9157 13.4101C16.5388 13.3347 16.177 13.2593 15.8302 13.1688ZM17.0816 12.4452C16.8705 12.0682 16.6745 11.7064 16.4936 11.3295C16.6594 10.9526 16.8554 10.5907 17.0816 10.2138C17.2927 9.83689 17.5188 9.49012 17.745 9.15844C18.1671 9.11321 18.5893 9.09814 19.0114 9.09814C19.4336 9.09814 19.8557 9.11321 20.2778 9.15844C20.504 9.49012 20.7301 9.83689 20.9412 10.2138C21.1523 10.5907 21.3483 10.9526 21.5292 11.3295C21.3634 11.7064 21.1674 12.0682 20.9412 12.4452C20.7301 12.8221 20.504 13.1688 20.2778 13.5005C19.8557 13.5458 19.4336 13.5608 19.0114 13.5608C18.5893 13.5608 18.1671 13.5458 17.745 13.5005C17.5339 13.1839 17.3077 12.8371 17.0816 12.4452ZM18.2726 14.194C18.5139 14.2091 18.7702 14.2091 19.0265 14.2091C19.2828 14.2091 19.5391 14.2091 19.7803 14.194C19.524 14.5107 19.2828 14.7971 19.0265 15.0383C18.7702 14.782 18.5139 14.4956 18.2726 14.194ZM21.9212 16.3651C21.8006 16.4405 21.6498 16.4706 21.4689 16.4706C20.9563 16.4706 20.2477 16.1239 19.4788 15.4605C19.8708 15.0685 20.2477 14.6162 20.6246 14.1187C21.2428 14.0433 21.8307 13.9377 22.3584 13.8021C22.3886 13.9377 22.4037 14.0885 22.4338 14.2242C22.5695 15.3097 22.3886 16.0937 21.9212 16.3651Z" fill="#77BCFF"/>
</svg>
