<svg width="51" height="41" viewBox="0 0 51 41" fill="none" xmlns="http://www.w3.org/2000/svg">
<path d="M30.1007 17.8516V12.7491L27.7173 12.3127C27.4152 11.1043 26.9453 9.99648 26.341 8.95585L27.7173 6.97527L24.1255 3.38339L22.1449 4.75973C21.1043 4.15549 19.9965 3.68551 18.788 3.38339L18.3516 1H13.2491L12.8127 3.38339C11.6043 3.68551 10.4965 4.15549 9.45585 4.75973L7.47527 3.38339L3.88339 6.97527L5.25973 8.95585C4.65549 9.99648 4.18551 11.1043 3.88339 12.3127L1.5 12.7491V17.8516L3.88339 18.288C4.18551 19.4965 4.65549 20.6043 5.25973 21.6449L3.88339 23.6255L7.47527 27.2173L9.45585 25.841C10.4965 26.4453 11.6043 26.9152 12.8127 27.2173L13.2491 29.6007H18.3516L18.788 27.2173C19.9965 26.9152 21.1043 26.4453 22.1449 25.841L24.1255 27.2173L27.7173 23.6255L26.341 21.6449C26.9453 20.6043 27.4152 19.4965 27.7173 18.288L30.1007 17.8516Z" fill="#77BCFF" stroke="#77BCFF" stroke-width="2" stroke-miterlimit="10" stroke-linecap="round" stroke-linejoin="round"/>
<path d="M49.8986 31.0091V27.1044L48.0747 26.7704C47.8435 25.8456 47.4839 24.9979 47.0215 24.2015L48.0747 22.6859L45.326 19.9372L43.8104 20.9904C43.014 20.528 42.1663 20.1684 41.2415 19.9372L40.9075 18.1133H37.0028L36.6689 19.9372C35.7441 20.1684 34.8963 20.528 34.1 20.9904L32.5843 19.9372L29.8356 22.6859L30.8889 24.2015C30.4265 24.9979 30.0668 25.8456 29.8356 26.7704L28.0117 27.1044V31.0091L29.8356 31.343C30.0668 32.2678 30.4265 33.1156 30.8889 33.9119L29.8356 35.4276L32.5843 38.1763L34.1 37.123C34.8963 37.5854 35.7441 37.9451 36.6689 38.1763L37.0028 40.0002H40.9075L41.2415 38.1763C42.1663 37.9451 43.014 37.5854 43.8104 37.123L45.326 38.1763L48.0747 35.4276L47.0215 33.9119C47.4839 33.1156 47.8435 32.2678 48.0747 31.343L49.8986 31.0091Z" fill="#77BCFF" stroke="#77BCFF" stroke-width="2" stroke-miterlimit="10" stroke-linecap="round" stroke-linejoin="round"/>
<circle cx="15.7666" cy="15.2671" r="9.23146" fill="white"/>
<circle cx="38.9224" cy="29.023" r="7.21733" fill="white"/>
<path d="M16.8765 15.3552C16.8765 14.8117 16.4261 14.3613 15.8826 14.3613C15.339 14.3613 14.8887 14.8117 14.8887 15.3552C14.8887 15.8988 15.339 16.3491 15.8826 16.3491C16.4261 16.3646 16.8765 15.9143 16.8765 15.3552Z" fill="#77BCFF"/>
<path d="M22.514 15.3554C22.514 14.9983 22.3742 14.6721 22.1413 14.3616C22.0792 14.5013 22.0015 14.6256 21.8928 14.7343C21.8462 14.7809 21.7841 14.8274 21.722 14.874C21.8152 15.0293 21.8618 15.1846 21.8618 15.3554C21.8618 16.0543 21.0232 16.6444 19.8119 17.0637C19.6566 16.5202 19.4547 15.9456 19.2062 15.3554C19.4547 14.7809 19.6721 14.2063 19.8119 13.6472C19.9827 13.7093 20.1535 13.7714 20.3088 13.8336C20.2933 14.051 20.3554 14.2684 20.5262 14.4392C20.8213 14.7343 21.3182 14.7343 21.6133 14.4392C21.9084 14.1441 21.9084 13.6472 21.6133 13.3521C21.3493 13.0881 20.9455 13.0571 20.6349 13.259C20.4175 13.1658 20.2001 13.0726 19.9516 12.995C19.9827 12.8086 20.0137 12.6378 20.0448 12.4514C20.2312 11.0382 19.9206 10.0133 19.1907 9.59398C18.9577 9.45422 18.6937 9.39209 18.3987 9.39209C17.6533 9.39209 16.7681 9.85798 15.8674 10.6345C14.9666 9.84245 14.0815 9.39209 13.336 9.39209C13.041 9.39209 12.777 9.45422 12.544 9.59398C12.2334 9.76481 12.0005 10.0599 11.8607 10.4326C11.5346 10.5257 11.2861 10.8208 11.2861 11.178C11.2861 11.5973 11.6278 11.9389 12.0471 11.9389C12.4664 11.9389 12.808 11.5973 12.808 11.178C12.808 10.9295 12.6838 10.7121 12.513 10.5723C12.6061 10.386 12.7304 10.2617 12.8702 10.1686C12.9944 10.0909 13.1497 10.0599 13.336 10.0599C13.864 10.0599 14.5939 10.417 15.3859 11.1003C14.9822 11.5041 14.5939 11.97 14.2057 12.4825C13.569 12.5601 12.9633 12.6688 12.4198 12.8086C12.3887 12.6688 12.3732 12.5135 12.3421 12.3738C12.3421 12.3582 12.3421 12.3272 12.3421 12.3117C12.249 12.3427 12.1558 12.3427 12.0471 12.3427C11.9228 12.3427 11.7986 12.3272 11.6744 12.2806C11.6744 12.3427 11.6899 12.3893 11.6899 12.4514C11.7054 12.6222 11.7365 12.8086 11.7831 12.995C10.2146 13.5385 9.2207 14.3771 9.2207 15.3399C9.2207 16.3028 10.2146 17.1569 11.7831 17.6849C11.752 17.8712 11.721 18.0421 11.6899 18.2284C11.5035 19.6416 11.8141 20.6666 12.544 21.0859C12.777 21.2256 13.041 21.2877 13.336 21.2877C13.4137 21.2877 13.5069 21.2877 13.5845 21.2722C13.4603 21.0703 13.3982 20.8529 13.3982 20.6355C13.3826 20.6355 13.3516 20.6355 13.336 20.6355C13.1652 20.6355 13.0099 20.6044 12.8702 20.5268C12.3887 20.2473 12.2024 19.4552 12.3421 18.3216C12.3577 18.1818 12.3887 18.0421 12.4198 17.8868C12.9633 18.0265 13.569 18.1508 14.2057 18.2129C14.5784 18.7254 14.9822 19.1912 15.3859 19.595C15.2306 19.7348 15.0754 19.859 14.9201 19.9677C14.625 19.8124 14.2678 19.859 14.0193 20.092C13.7243 20.387 13.7243 20.884 14.0193 21.179C14.3144 21.4741 14.8113 21.4741 15.1064 21.179C15.2928 20.9927 15.3704 20.7287 15.3083 20.4802C15.4946 20.3404 15.681 20.2007 15.8674 20.0298C16.7681 20.8218 17.6533 21.2722 18.3987 21.2722C18.6937 21.2722 18.9577 21.2101 19.1907 21.0703C19.9206 20.651 20.2156 19.6416 20.0448 18.2129C20.0293 18.0421 19.9982 17.8557 19.9516 17.6694C21.5201 17.1724 22.514 16.3338 22.514 15.3554ZM18.4142 10.0754C18.585 10.0754 18.7403 10.1065 18.8801 10.1841C19.3615 10.4636 19.5479 11.2556 19.4081 12.3893C19.3926 12.5291 19.3615 12.6688 19.3305 12.8241C18.7869 12.6844 18.1813 12.5601 17.5445 12.498C17.1718 11.9855 16.7681 11.5196 16.3643 11.1159C17.1563 10.417 17.8862 10.0754 18.4142 10.0754ZM18.818 14.5634C18.6937 14.3305 18.585 14.1131 18.4453 13.8801C18.321 13.6627 18.1813 13.4453 18.057 13.2279C18.4453 13.29 18.818 13.3677 19.1752 13.4608C19.082 13.8335 18.9577 14.1907 18.818 14.5634ZM19.1752 17.2501C18.818 17.3432 18.4453 17.4209 18.057 17.483C18.1968 17.2811 18.321 17.0637 18.4453 16.8308C18.5695 16.5978 18.6937 16.3804 18.818 16.1474C18.9577 16.5357 19.082 16.8929 19.1752 17.2501ZM15.8829 11.5507C16.1469 11.8147 16.3954 12.0942 16.6594 12.4204C16.4109 12.4048 16.1469 12.4048 15.8829 12.4048C15.6189 12.4048 15.3549 12.4048 15.1064 12.4204C15.3549 12.0942 15.6189 11.8147 15.8829 11.5507ZM13.7087 13.2434C13.569 13.4453 13.4447 13.6627 13.3205 13.8957C13.1963 14.1286 13.072 14.346 12.9478 14.579C12.808 14.2063 12.6838 13.8491 12.5906 13.4919C12.9478 13.3832 13.3205 13.3055 13.7087 13.2434ZM11.9539 17.0637C10.7426 16.6599 9.904 16.0698 9.904 15.3554C9.904 14.6566 10.7426 14.0665 11.9539 13.6472C12.1092 14.1907 12.3111 14.7653 12.5596 15.3554C12.3111 15.9456 12.1092 16.5202 11.9539 17.0637ZM12.5906 17.2501C12.6838 16.8929 12.808 16.5357 12.9478 16.163C13.072 16.3959 13.1807 16.6133 13.3205 16.8463C13.4447 17.0637 13.5845 17.2811 13.7087 17.4985C13.3205 17.4209 12.9478 17.3432 12.5906 17.2501ZM13.8796 16.5046C13.6622 16.1164 13.4603 15.7437 13.2739 15.3554C13.4447 14.9672 13.6466 14.5945 13.8796 14.2063C14.097 13.818 14.3299 13.4608 14.5629 13.1192C14.9977 13.0726 15.4325 13.0571 15.8674 13.0571C16.3022 13.0571 16.737 13.0726 17.1718 13.1192C17.4048 13.4608 17.6377 13.818 17.8551 14.2063C18.0726 14.5945 18.2744 14.9672 18.4608 15.3554C18.29 15.7437 18.0881 16.1164 17.8551 16.5046C17.6377 16.8929 17.4048 17.2501 17.1718 17.5917C16.737 17.6383 16.3022 17.6538 15.8674 17.6538C15.4325 17.6538 14.9977 17.6383 14.5629 17.5917C14.3455 17.2656 14.1125 16.9084 13.8796 16.5046ZM15.1064 18.3061C15.3549 18.3216 15.6189 18.3216 15.8829 18.3216C16.1469 18.3216 16.4109 18.3216 16.6594 18.3061C16.3954 18.6322 16.1469 18.9272 15.8829 19.1757C15.6189 18.9117 15.3549 18.6167 15.1064 18.3061ZM18.8646 20.5423C18.7403 20.62 18.585 20.651 18.3987 20.651C17.8707 20.651 17.1408 20.2939 16.3488 19.6106C16.7525 19.2068 17.1408 18.7409 17.529 18.2284C18.1657 18.1508 18.7714 18.0421 19.3149 17.9023C19.346 18.0421 19.3615 18.1974 19.3926 18.3371C19.5323 19.4553 19.346 20.2628 18.8646 20.5423Z" fill="#77BCFF"/>
<path d="M39.7809 29.0985C39.7809 28.6825 39.4363 28.3379 39.0203 28.3379C38.6044 28.3379 38.2598 28.6825 38.2598 29.0985C38.2598 29.5144 38.6044 29.8591 39.0203 29.8591C39.4363 29.8709 39.7809 29.5263 39.7809 29.0985Z" fill="#77BCFF"/>
<path d="M44.0947 29.0987C44.0947 28.8253 43.9877 28.5757 43.8094 28.3381C43.7619 28.445 43.7025 28.5401 43.6193 28.6233C43.5836 28.6589 43.5361 28.6946 43.4886 28.7302C43.5599 28.8491 43.5955 28.9679 43.5955 29.0987C43.5955 29.6334 42.9538 30.085 42.0268 30.4059C41.908 29.99 41.7535 29.5502 41.5633 29.0987C41.7535 28.6589 41.9199 28.2192 42.0268 27.7914C42.1575 27.8389 42.2883 27.8865 42.4071 27.934C42.3952 28.1004 42.4428 28.2668 42.5735 28.3975C42.7993 28.6233 43.1796 28.6233 43.4054 28.3975C43.6312 28.1717 43.6312 27.7914 43.4054 27.5656C43.2034 27.3636 42.8944 27.3398 42.6567 27.4943C42.4903 27.423 42.3239 27.3517 42.1338 27.2923C42.1576 27.1497 42.1813 27.0189 42.2051 26.8763C42.3477 25.7949 42.11 25.0105 41.5515 24.6897C41.3732 24.5827 41.1712 24.5352 40.9454 24.5352C40.3749 24.5352 39.6975 24.8917 39.0083 25.4859C38.319 24.8798 37.6416 24.5352 37.0712 24.5352C36.8454 24.5352 36.6433 24.5827 36.4651 24.6897C36.2274 24.8204 36.0491 25.0462 35.9422 25.3314C35.6926 25.4027 35.5025 25.6285 35.5025 25.9018C35.5025 26.2227 35.7639 26.4842 36.0848 26.4842C36.4057 26.4842 36.6671 26.2227 36.6671 25.9018C36.6671 25.7117 36.572 25.5453 36.4413 25.4384C36.5126 25.2957 36.6077 25.2007 36.7146 25.1294C36.8097 25.0699 36.9286 25.0462 37.0712 25.0462C37.4752 25.0462 38.0338 25.3195 38.6399 25.8424C38.3309 26.1514 38.0338 26.5079 37.7367 26.9001C37.2494 26.9595 36.7859 27.0427 36.37 27.1497C36.3462 27.0427 36.3343 26.9239 36.3106 26.8169C36.3106 26.805 36.3106 26.7813 36.3106 26.7694C36.2393 26.7931 36.168 26.7931 36.0848 26.7931C35.9897 26.7931 35.8946 26.7813 35.7996 26.7456C35.7996 26.7931 35.8114 26.8288 35.8114 26.8763C35.8233 27.007 35.8471 27.1497 35.8828 27.2923C34.6825 27.7082 33.9219 28.35 33.9219 29.0868C33.9219 29.8236 34.6825 30.4772 35.8828 30.8813C35.859 31.0239 35.8352 31.1546 35.8114 31.2972C35.6688 32.3787 35.9065 33.163 36.4651 33.4839C36.6433 33.5908 36.8454 33.6384 37.0712 33.6384C37.1306 33.6384 37.2019 33.6384 37.2613 33.6265C37.1662 33.472 37.1187 33.3056 37.1187 33.1392C37.1068 33.1392 37.083 33.1392 37.0712 33.1392C36.9404 33.1392 36.8216 33.1155 36.7146 33.0561C36.3462 32.8421 36.2036 32.236 36.3106 31.3685C36.3225 31.2616 36.3462 31.1546 36.37 31.0358C36.7859 31.1427 37.2494 31.2378 37.7367 31.2853C38.0219 31.6775 38.3309 32.034 38.6399 32.343C38.521 32.45 38.4022 32.545 38.2833 32.6282C38.0575 32.5094 37.7842 32.545 37.5941 32.7233C37.3683 32.9491 37.3683 33.3294 37.5941 33.5552C37.8199 33.781 38.2001 33.781 38.4259 33.5552C38.5686 33.4126 38.628 33.2105 38.5804 33.0204C38.723 32.9134 38.8657 32.8065 39.0083 32.6758C39.6975 33.2818 40.3749 33.6265 40.9454 33.6265C41.1712 33.6265 41.3732 33.579 41.5515 33.472C42.11 33.1511 42.3358 32.3787 42.2051 31.2853C42.1932 31.1546 42.1694 31.012 42.1338 30.8694C43.3341 30.4891 44.0947 29.8473 44.0947 29.0987ZM40.9573 25.0581C41.088 25.0581 41.2068 25.0818 41.3138 25.1412C41.6822 25.3552 41.8248 25.9613 41.7178 26.8288C41.706 26.9357 41.6822 27.0427 41.6584 27.1615C41.2425 27.0546 40.779 26.9595 40.2917 26.912C40.0065 26.5198 39.6975 26.1633 39.3886 25.8543C39.9947 25.3195 40.5532 25.0581 40.9573 25.0581ZM41.2662 28.4926C41.1712 28.3143 41.088 28.1479 40.981 27.9697C40.886 27.8033 40.779 27.6369 40.6839 27.4705C40.981 27.5181 41.2662 27.5775 41.5396 27.6488C41.4683 27.934 41.3732 28.2073 41.2662 28.4926ZM41.5396 30.5485C41.2662 30.6198 40.981 30.6792 40.6839 30.7268C40.7909 30.5723 40.886 30.4059 40.981 30.2276C41.0761 30.0494 41.1712 29.883 41.2662 29.7047C41.3732 30.0018 41.4683 30.2752 41.5396 30.5485ZM39.0202 26.187C39.2222 26.3891 39.4123 26.603 39.6144 26.8526C39.4242 26.8407 39.2222 26.8407 39.0202 26.8407C38.8181 26.8407 38.6161 26.8407 38.4259 26.8526C38.6161 26.603 38.8181 26.3891 39.0202 26.187ZM37.3564 27.4824C37.2494 27.6369 37.1543 27.8033 37.0593 27.9815C36.9642 28.1598 36.8691 28.3262 36.7741 28.5044C36.6671 28.2192 36.572 27.9459 36.5007 27.6726C36.7741 27.5894 37.0593 27.53 37.3564 27.4824ZM36.0135 30.4059C35.0865 30.0969 34.4448 29.6453 34.4448 29.0987C34.4448 28.5639 35.0865 28.1123 36.0135 27.7914C36.1323 28.2073 36.2868 28.6471 36.477 29.0987C36.2868 29.5502 36.1323 29.99 36.0135 30.4059ZM36.5007 30.5485C36.572 30.2752 36.6671 30.0018 36.7741 29.7166C36.8691 29.8949 36.9523 30.0613 37.0593 30.2395C37.1543 30.4059 37.2613 30.5723 37.3564 30.7387C37.0593 30.6792 36.7741 30.6198 36.5007 30.5485ZM37.4871 29.9781C37.3207 29.681 37.1662 29.3958 37.0236 29.0987C37.1543 28.8015 37.3088 28.5163 37.4871 28.2192C37.6535 27.9221 37.8317 27.6488 38.01 27.3873C38.3428 27.3517 38.6755 27.3398 39.0083 27.3398C39.341 27.3398 39.6738 27.3517 40.0065 27.3873C40.1848 27.6488 40.3631 27.9221 40.5294 28.2192C40.6958 28.5163 40.8503 28.8015 40.9929 29.0987C40.8622 29.3958 40.7077 29.681 40.5294 29.9781C40.3631 30.2752 40.1848 30.5485 40.0065 30.81C39.6738 30.8456 39.341 30.8575 39.0083 30.8575C38.6755 30.8575 38.3428 30.8456 38.01 30.81C37.8436 30.5604 37.6654 30.2871 37.4871 29.9781ZM38.4259 31.3566C38.6161 31.3685 38.8181 31.3685 39.0202 31.3685C39.2222 31.3685 39.4242 31.3685 39.6144 31.3566C39.4123 31.6062 39.2222 31.832 39.0202 32.0221C38.8181 31.8201 38.6161 31.5943 38.4259 31.3566ZM41.3019 33.0679C41.2068 33.1274 41.088 33.1511 40.9454 33.1511C40.5413 33.1511 39.9828 32.8778 39.3767 32.3549C39.6857 32.0459 39.9828 31.6894 40.2799 31.2972C40.7671 31.2378 41.2306 31.1546 41.6465 31.0476C41.6703 31.1546 41.6822 31.2734 41.706 31.3804C41.8129 32.2361 41.6703 32.854 41.3019 33.0679Z" fill="#77BCFF"/>
</svg>
