<svg width="81" height="81" viewBox="0 0 81 81" fill="none" xmlns="http://www.w3.org/2000/svg">
<path d="M44.25 1.68956L51.05 8.48955C52.15 9.58955 53.55 10.1896 55.05 10.1896H64.65C67.75 10.1896 70.35 12.6895 70.35 15.8895V25.4895C70.35 26.9895 70.95 28.3895 72.05 29.4895L78.85 36.2896C81.05 38.4896 81.05 42.0896 78.85 44.2896L72.05 51.0896C70.95 52.1896 70.35 53.5896 70.35 55.0896V64.6896C70.35 67.7896 67.85 70.3895 64.65 70.3895H55.05C53.55 70.3895 52.15 70.9896 51.05 72.0896L44.25 78.5896C42.05 80.7896 38.45 80.7896 36.25 78.5896L29.45 71.7896C28.35 70.6896 26.95 70.0896 25.45 70.0896H15.85C12.75 70.0896 10.15 67.5895 10.15 64.3895V54.7896C10.15 53.2896 9.55 51.8896 8.45 50.7896L1.65 43.9895C-0.55 41.7895 -0.55 38.1895 1.65 35.9895L8.45 29.1896C9.55 28.0896 10.15 26.6896 10.15 25.1896V15.5896C10.15 12.4896 12.65 9.88954 15.85 9.88954H25.45C26.95 9.88954 28.35 9.28956 29.45 8.18956L36.25 1.38956C38.45 -0.510442 42.05 -0.510439 44.25 1.68956Z" fill="url(#paint0_linear_95_540)"/>
<path d="M40.2502 66.889C55.0514 66.889 67.0502 54.8903 67.0502 40.0891C67.0502 25.2878 55.0514 13.2891 40.2502 13.2891C25.449 13.2891 13.4502 25.2878 13.4502 40.0891C13.4502 54.8903 25.449 66.889 40.2502 66.889Z" fill="url(#paint1_linear_95_540)"/>
<defs>
<linearGradient id="paint0_linear_95_540" x1="40.2255" y1="79.4057" x2="40.2255" y2="4.76256" gradientUnits="userSpaceOnUse">
<stop stop-color="#F6E06F"/>
<stop offset="1" stop-color="#DE5766"/>
</linearGradient>
<linearGradient id="paint1_linear_95_540" x1="40.2257" y1="63.9623" x2="40.2257" y2="12.5921" gradientUnits="userSpaceOnUse">
<stop stop-color="#FFFF76"/>
<stop offset="1" stop-color="#E79B58"/>
</linearGradient>
</defs>
</svg>
