<svg width="81" height="81" viewBox="0 0 81 81" fill="none" xmlns="http://www.w3.org/2000/svg">
<path d="M40.25 80.5C62.4795 80.5 80.5 62.4795 80.5 40.25C80.5 18.0205 62.4795 0 40.25 0C18.0205 0 0 18.0205 0 40.25C0 62.4795 18.0205 80.5 40.25 80.5Z" fill="url(#paint0_linear_96_885)"/>
<path d="M23.9224 42.3862C27.2941 39.1063 27.3684 33.7142 24.0885 30.3425C20.8086 26.9709 15.4164 26.8965 12.0448 30.1764C8.67319 33.4563 8.59884 38.8485 11.8787 42.2201C15.1587 45.5918 20.5508 45.6661 23.9224 42.3862Z" fill="#FF6674"/>
<path d="M63.8147 44.6897C68.4582 43.9394 71.6143 39.5669 70.864 34.9234C70.1138 30.2799 65.7413 27.1237 61.0978 27.874C56.4543 28.6242 53.2981 32.9967 54.0484 37.6403C54.7986 42.2838 59.1711 45.4399 63.8147 44.6897Z" fill="#FF6674"/>
<path d="M27.8215 34.8245C30.1211 34.8245 31.9853 32.7061 31.9853 30.0929C31.9853 27.4797 30.1211 25.3613 27.8215 25.3613C25.5219 25.3613 23.6577 27.4797 23.6577 30.0929C23.6577 32.7061 25.5219 34.8245 27.8215 34.8245Z" fill="#3E3A39"/>
<path d="M52.615 34.8245C54.9146 34.8245 56.7788 32.7061 56.7788 30.0929C56.7788 27.4797 54.9146 25.3613 52.615 25.3613C50.3154 25.3613 48.4512 27.4797 48.4512 30.0929C48.4512 32.7061 50.3154 34.8245 52.615 34.8245Z" fill="#3E3A39"/>
<path d="M26.8123 28.0758C26.8123 27.508 26.3706 27.0664 25.8029 27.0664C25.2351 27.0664 24.7935 27.508 24.7935 28.0758C24.7935 28.6436 25.2351 29.0852 25.8029 29.0852C26.3706 29.0852 26.8123 28.6436 26.8123 28.0758Z" fill="white"/>
<path d="M51.5427 28.0758C51.5427 27.508 51.1011 27.0664 50.5333 27.0664C49.9655 27.0664 49.5239 27.508 49.5239 28.0758C49.5239 28.6436 49.9655 29.0852 50.5333 29.0852C51.1011 29.0852 51.5427 28.6436 51.5427 28.0758Z" fill="white"/>
<path d="M40.2501 50.724C46.1173 50.724 51.3536 52.932 55.1388 56.5911C58.7979 53.0582 61.0691 48.2635 61.0691 43.0272C61.0691 41.7655 60.9429 40.5037 60.6906 39.3051C60.5013 38.4218 59.4288 37.9802 58.6087 38.3588C53.4355 40.7561 47.1267 42.144 40.2501 42.144C33.3736 42.144 27.0017 40.7561 21.8916 38.3588C21.0083 37.9802 19.9989 38.4218 19.8097 39.3051C19.5573 40.5037 19.4312 41.7655 19.4312 43.0272C19.4312 48.3266 21.7023 53.1213 25.3614 56.5911C29.1467 52.932 34.383 50.724 40.2501 50.724Z" fill="#FBAE62"/>
<path d="M40.25 61.7636C48.4729 61.7636 55.1388 59.1368 55.1388 55.8965C55.1388 52.6561 48.4729 50.0293 40.25 50.0293C32.0272 50.0293 25.3613 52.6561 25.3613 55.8965C25.3613 59.1368 32.0272 61.7636 40.25 61.7636Z" fill="#FF6674"/>
<defs>
<linearGradient id="paint0_linear_96_885" x1="40.25" y1="0" x2="40.25" y2="80.5" gradientUnits="userSpaceOnUse">
<stop stop-color="#FFE466"/>
<stop offset="1" stop-color="#FFF1B4"/>
</linearGradient>
</defs>
</svg>
