<svg width="9" height="16" viewBox="0 0 9 16" fill="none" xmlns="http://www.w3.org/2000/svg">
<g clip-path="url(#clip0_514_72)">
<path d="M4.82898 10.2651C6.686 10.2651 8.19141 8.25742 8.19141 5.78077C8.19141 3.30411 6.686 1.29639 4.82898 1.29639C2.97196 1.29639 1.46655 3.30411 1.46655 5.78077C1.46655 8.25742 2.97196 10.2651 4.82898 10.2651Z" fill="#1C74C9"/>
<path fill-rule="evenodd" clip-rule="evenodd" d="M7.93457 9.50537C7.37915 10.6338 6.21765 11.4107 4.87475 11.4107C3.48657 11.4107 2.29223 10.581 1.76086 9.39014C1.57177 9.95068 1.46655 10.5727 1.46655 11.2276C1.46655 13.7041 2.97192 15.712 4.82898 15.712C6.68603 15.712 8.1914 13.7041 8.1914 11.2276C8.1914 10.6172 8.10009 10.0356 7.93457 9.50537Z" fill="#54AAFD"/>
</g>
<defs>
<clipPath id="clip0_514_72">
<rect width="8" height="15" fill="white" transform="translate(0.503174 0.88916)"/>
</clipPath>
</defs>
</svg>
