<svg width="20" height="20" viewBox="0 0 20 20" fill="none" xmlns="http://www.w3.org/2000/svg">
<rect width="20" height="20" fill="#1F931D"/>
<path d="M4.92188 14.625L8.28188 8.945L5.24188 3.793H8.12188L9.64188 6.529C9.68454 6.60367 9.73254 6.705 9.78588 6.833C9.84988 6.95033 9.91921 7.073 9.99388 7.201C10.0685 7.08367 10.1325 6.96633 10.1859 6.849C10.2499 6.73167 10.3085 6.63033 10.3619 6.545L11.8979 3.793H14.7779L11.7219 8.961L15.0819 14.625H12.1699L10.3779 11.425C10.3245 11.3397 10.2659 11.2383 10.2019 11.121C10.1379 10.993 10.0685 10.865 9.99388 10.737L9.62587 11.425L7.83388 14.625H4.92188Z" fill="white"/>
</svg>
