<svg width="20" height="21" viewBox="0 0 20 21" fill="none" xmlns="http://www.w3.org/2000/svg">
<rect width="20" height="20" transform="translate(0 0.0996094)" fill="#7E5BE3"/>
<path d="M14.375 4.47461H5.625C4.93464 4.47461 4.375 5.03425 4.375 5.72461V14.4746C4.375 15.165 4.93464 15.7246 5.625 15.7246H14.375C15.0654 15.7246 15.625 15.165 15.625 14.4746V5.72461C15.625 5.03425 15.0654 4.47461 14.375 4.47461Z" stroke="white" stroke-linecap="round" stroke-linejoin="round"/>
<path d="M7.8125 8.84961C8.33027 8.84961 8.75 8.42988 8.75 7.91211C8.75 7.39434 8.33027 6.97461 7.8125 6.97461C7.29473 6.97461 6.875 7.39434 6.875 7.91211C6.875 8.42988 7.29473 8.84961 7.8125 8.84961Z" stroke="white" stroke-linecap="round" stroke-linejoin="round"/>
<path d="M15.625 11.9746L12.5 8.84961L5.625 15.7246" stroke="white" stroke-linecap="round" stroke-linejoin="round"/>
</svg>
