<svg width="20" height="20" viewBox="0 0 20 20" fill="none" xmlns="http://www.w3.org/2000/svg">
<g clip-path="url(#clip0_377_84)">
<rect width="20" height="20" fill="#54AAFD"/>
<path d="M10.0444 9.5755C9.37343 9.5755 8.86743 9.3225 8.86743 8.8165C8.86743 8.3105 9.37343 8.0575 10.0444 8.0575C10.7044 8.0575 11.2214 8.3105 11.2214 8.8165C11.2214 9.3225 10.7044 9.5755 10.0444 9.5755ZM10.0444 6.8365C8.51543 6.8365 7.38243 7.6615 7.38243 8.8165C7.38243 9.9715 8.51543 10.7855 10.0444 10.7855C11.5734 10.7855 12.6954 9.9715 12.6954 8.8165C12.6954 7.6615 11.5734 6.8365 10.0444 6.8365ZM10.7704 5.1425V3.8995H9.31843V5.1425H6.68943V6.3195H13.3664V5.1425H10.7704Z" fill="white"/>
<path d="M10.5098 11.8285C10.8178 11.8285 11.0524 11.9202 11.2138 12.1035C11.3824 12.2868 11.4668 12.5178 11.4668 12.7965C11.4668 13.0752 11.3824 13.3135 11.2138 13.5115C11.0524 13.7022 10.8104 13.7975 10.4878 13.7975C10.1798 13.7975 9.94142 13.7022 9.77275 13.5115C9.60409 13.3208 9.51975 13.0972 9.51975 12.8405C9.51975 12.5545 9.60409 12.3162 9.77275 12.1255C9.94142 11.9275 10.1871 11.8285 10.5098 11.8285Z" fill="white"/>
<path d="M13.465 16.1015V14.8365H8.13V12.6915C8.13 12.5375 8.262 12.3505 8.262 12.2075C8.262 12.0865 8.141 11.9875 7.679 11.9875H6.645V16.1015H13.465Z" fill="white"/>
</g>
<defs>
<clipPath id="clip0_377_84">
<rect width="20" height="20" fill="white"/>
</clipPath>
</defs>
</svg>
