<svg width="20" height="21" viewBox="0 0 20 21" fill="none" xmlns="http://www.w3.org/2000/svg">
<g clip-path="url(#clip0_377_82)">
<rect width="20" height="20" transform="translate(0 0.5)" fill="#B92D19"/>
<path d="M2.34228 7.407C2.38428 7.407 2.48328 7.407 2.63928 7.407C2.80128 7.401 2.97828 7.398 3.17028 7.398C3.36228 7.398 3.55428 7.398 3.74628 7.398C3.93828 7.392 4.09428 7.389 4.21428 7.389C4.98228 7.389 5.55828 7.554 5.94228 7.884C6.32628 8.208 6.51828 8.661 6.51828 9.243C6.51828 9.885 6.30228 10.368 5.87028 10.692C5.43828 11.01 4.84728 11.169 4.09728 11.169H3.82728V13.5H2.34228V7.407ZM3.82728 10.188H4.20528C4.40928 10.188 4.58628 10.119 4.73628 9.981C4.88628 9.837 4.96128 9.615 4.96128 9.315C4.96128 9.063 4.89828 8.844 4.77228 8.658C4.65228 8.472 4.44828 8.376 4.16028 8.37C4.08228 8.37 4.01628 8.373 3.96228 8.379C3.90828 8.379 3.86328 8.382 3.82728 8.388V10.188ZM7.33779 7.407C7.37979 7.407 7.47579 7.407 7.62579 7.407C7.78179 7.401 7.95879 7.398 8.15679 7.398C8.35479 7.398 8.55879 7.398 8.76879 7.398C8.98479 7.392 9.17679 7.389 9.34479 7.389C9.85479 7.389 10.2928 7.467 10.6588 7.623C11.0308 7.773 11.3368 7.986 11.5768 8.262C11.8168 8.538 11.9938 8.868 12.1078 9.252C12.2218 9.63 12.2788 10.047 12.2788 10.503C12.2788 10.971 12.2188 11.391 12.0988 11.763C11.9848 12.135 11.8048 12.453 11.5588 12.717C11.3188 12.975 11.0128 13.173 10.6408 13.311C10.2688 13.449 9.82779 13.518 9.31779 13.518C9.14379 13.518 8.98479 13.515 8.84079 13.509C8.69679 13.509 8.54979 13.509 8.39979 13.509C8.24979 13.509 8.09079 13.506 7.92279 13.5C7.75479 13.5 7.55979 13.5 7.33779 13.5V7.407ZM9.28179 8.433C9.17979 8.433 9.10179 8.436 9.04779 8.442C8.99379 8.442 8.91879 8.442 8.82279 8.442V12.465C8.90079 12.471 8.96979 12.474 9.02979 12.474C9.08979 12.474 9.17379 12.474 9.28179 12.474C9.54579 12.474 9.76479 12.429 9.93879 12.339C10.1188 12.249 10.2628 12.12 10.3708 11.952C10.4788 11.784 10.5568 11.58 10.6048 11.34C10.6528 11.094 10.6768 10.821 10.6768 10.521C10.6768 9.129 10.2118 8.433 9.28179 8.433ZM13.2649 7.407H17.1439V8.487H14.7499V9.882H16.7569L16.5769 10.953H14.7499V13.5H13.2649V7.407Z" fill="white"/>
</g>
<defs>
<clipPath id="clip0_377_82">
<rect width="20" height="20" fill="white" transform="translate(0 0.5)"/>
</clipPath>
</defs>
</svg>
