<svg width="20" height="20" viewBox="0 0 20 20" fill="none" xmlns="http://www.w3.org/2000/svg">
<g clip-path="url(#clip0_377_78)">
<rect width="20" height="20" fill="#FF5C38"/>
<path d="M8.75513 16V11.392C8.99513 11.44 9.28313 11.456 9.61913 11.456C11.4591 11.456 14.2751 10.704 14.2751 7.328C14.2751 6.192 13.8271 5.2 13.0911 4.576C12.3071 3.904 11.1391 3.6 9.58713 3.6C8.22713 3.6 7.17113 3.712 6.40313 3.856V16H8.75513ZM8.75513 5.536C8.96313 5.488 9.29913 5.44 9.77913 5.44C11.0911 5.44 11.9231 6.128 11.9231 7.44C11.9231 8.768 11.0591 9.6 9.58713 9.6C9.23513 9.6 8.97913 9.584 8.75513 9.536V5.536Z" fill="white"/>
</g>
<defs>
<clipPath id="clip0_377_78">
<rect width="20" height="20" fill="white"/>
</clipPath>
</defs>
</svg>
