<svg width="20" height="20" viewBox="0 0 20 20" fill="none" xmlns="http://www.w3.org/2000/svg">
<g clip-path="url(#clip0_377_76)">
<rect width="20" height="20" fill="#2376C2"/>
<path d="M13.298 8.84C13.074 10.128 12.864 11.346 12.696 12.62H12.654C12.514 11.36 12.304 10.17 12.066 8.91L11.156 4.234H9.11204L8.13204 8.854C7.85204 10.198 7.58604 11.444 7.43204 12.648H7.39004C7.23604 11.5 7.02604 10.17 6.80204 8.882L5.97604 4.234H3.77804L6.14404 15H8.32804L9.37804 10.436C9.64404 9.302 9.84004 8.224 10.022 7.006H10.05C10.19 8.224 10.358 9.316 10.596 10.436L11.52 15H13.718L16.266 4.234H14.18L13.298 8.84Z" fill="white"/>
</g>
<defs>
<clipPath id="clip0_377_76">
<rect width="20" height="20" fill="white"/>
</clipPath>
</defs>
</svg>
