<svg width="452" height="137" viewBox="0 0 452 137" fill="none" xmlns="http://www.w3.org/2000/svg">
<g clip-path="url(#clip0_431_41906)">
<path d="M206.903 93.9377C208.531 106.408 218.727 115.358 229.676 113.928C240.625 112.498 248.18 101.23 246.552 88.7603C244.924 76.2902 234.728 67.3402 223.779 68.7698C212.83 70.1995 205.274 81.4676 206.903 93.9377Z" fill="#FFD29F"/>
<path d="M126.122 157.86C132.222 159.82 138.404 155.852 139.93 148.997C141.455 142.141 137.747 134.995 131.647 133.034C125.547 131.074 119.365 135.042 117.839 141.897C116.313 148.753 120.022 155.899 126.122 157.86Z" fill="#FFD29F"/>
<path d="M23.7538 134.912C26.0828 141.62 32.7058 145.098 38.5467 142.68C44.3875 140.262 47.2345 132.865 44.9055 126.157C42.5765 119.449 35.9535 115.971 30.1127 118.389C24.2718 120.806 21.4248 128.204 23.7538 134.912Z" fill="#FFD29F"/>
<path d="M39.5614 109.638C40.0086 113.062 42.8089 115.521 45.816 115.128C48.8231 114.735 50.8984 111.64 50.4511 108.216C50.0039 104.791 47.2036 102.332 44.1965 102.725C41.1894 103.118 39.1141 106.213 39.5614 109.638Z" fill="#FFD29F"/>
<path d="M125.383 118.663C125.831 122.088 128.631 124.546 131.638 124.154C134.645 123.761 136.72 120.666 136.273 117.241C135.826 113.816 133.026 111.358 130.018 111.751C127.011 112.144 124.936 115.238 125.383 118.663Z" fill="#FFD29F"/>
<path d="M155.375 127.792C157.003 140.262 167.199 149.212 178.148 147.783C189.097 146.353 196.652 135.085 195.024 122.615C193.396 110.145 183.2 101.195 172.251 102.624C161.302 104.054 153.746 115.322 155.375 127.792Z" fill="#B9DDFF"/>
<path d="M64.2089 153.044C65.3985 162.154 72.847 168.693 80.8456 167.648C88.8442 166.604 94.364 158.372 93.1744 149.262C91.9848 140.152 84.5364 133.614 76.5378 134.658C68.5392 135.703 63.0193 143.934 64.2089 153.044Z" fill="#B9DDFF"/>
<path d="M81.1933 126.411C82.9642 131.511 88.0001 134.156 92.4413 132.317C96.8825 130.479 99.0472 124.854 97.2763 119.754C95.5054 114.653 90.4695 112.009 86.0283 113.847C81.5871 115.685 79.4224 121.31 81.1933 126.411Z" fill="#B9DDFF"/>
<path d="M156.65 95.3962C160.989 99.2046 167.112 98.405 170.327 93.6103C173.542 88.8157 172.631 81.8416 168.293 78.0333C163.955 74.225 157.831 75.0245 154.616 79.8192C151.401 84.6138 152.312 91.5879 156.65 95.3962Z" fill="#B9DDFF"/>
<path d="M313.139 41.2548C315.048 48.117 321.453 52.1099 327.444 50.1732C333.435 48.2365 336.744 41.1036 334.834 34.2415C332.925 27.3793 326.52 23.3864 320.529 25.3231C314.538 27.2597 311.229 34.3926 313.139 41.2548Z" fill="#FFD29F"/>
<path d="M411.76 62.7453C416.812 67.18 423.943 66.2489 427.687 60.6656C431.431 55.0823 430.37 46.9611 425.318 42.5264C420.266 38.0916 413.136 39.0227 409.392 44.606C405.648 50.1893 406.708 58.3106 411.76 62.7453Z" fill="#FFD29F"/>
<path d="M402.425 74.9798C402.872 78.4047 405.672 80.8628 408.679 80.4702C411.686 80.0775 413.762 76.9827 413.314 73.5578C412.867 70.1329 410.067 67.6748 407.06 68.0674C404.053 68.4601 401.977 71.5549 402.425 74.9798Z" fill="#FFD29F"/>
<path d="M325.408 20.8286C328.415 20.4359 330.49 17.3414 330.043 13.9162C329.596 10.491 326.796 8.03313 323.788 8.42583C320.781 8.81853 318.706 11.913 319.153 15.3382C319.6 18.7634 322.4 21.2213 325.408 20.8286Z" fill="#FFD29F"/>
<path d="M322.856 71.4355C325.864 71.0428 327.939 67.9483 327.491 64.5231C327.044 61.098 324.244 58.6401 321.237 59.0328C318.229 59.4255 316.154 62.5199 316.602 65.9451C317.049 69.3703 319.849 71.8282 322.856 71.4355Z" fill="#FFD29F"/>
<path d="M425.786 25.3226C426.233 28.7475 429.034 31.2056 432.041 30.813C435.048 30.4203 437.123 27.3255 436.676 23.9006C436.229 20.4757 433.428 18.0175 430.421 18.4102C427.414 18.8029 425.339 21.8976 425.786 25.3226Z" fill="#FFD29F"/>
<path d="M257.843 60.5724C259.471 73.0426 269.667 81.9926 280.616 80.5629C291.565 79.1332 299.12 67.8652 297.492 55.395C295.864 42.9249 285.668 33.9749 274.719 35.4046C263.77 36.8343 256.214 48.1023 257.843 60.5724Z" fill="#B9DDFF"/>
<path d="M359.692 33.9257C360.882 43.0356 368.33 49.5739 376.329 48.5294C384.328 47.485 389.847 39.2533 388.658 30.1434C387.468 21.0335 380.02 14.4951 372.021 15.5396C364.023 16.584 358.503 24.8158 359.692 33.9257Z" fill="#B9DDFF"/>
<path d="M355.376 62.7612C356.828 67.979 361.698 71.0151 366.254 69.5425C370.809 68.0699 373.325 62.6463 371.873 57.4285C370.421 52.2108 365.551 49.1747 360.996 50.6473C356.44 52.1199 353.924 57.5435 355.376 62.7612Z" fill="#B9DDFF"/>
<path d="M375.471 5.04688C376.923 10.2646 381.793 13.3007 386.348 11.8281C390.904 10.3555 393.42 4.93194 391.968 -0.285815C390.516 -5.50357 385.646 -8.53963 381.09 -7.06705C376.535 -5.59447 374.019 -0.170879 375.471 5.04688Z" fill="#B9DDFF"/>
<path d="M244.169 25.1389C244.963 31.2222 249.937 35.5882 255.278 34.8908C260.619 34.1933 264.305 28.6965 263.511 22.6133C262.716 16.5301 257.742 12.164 252.401 12.8615C247.06 13.5589 243.374 19.0557 244.169 25.1389Z" fill="#B9DDFF"/>
<path d="M284.574 105.159C288.913 108.967 295.036 108.168 298.251 103.373C301.466 98.5784 300.555 91.6043 296.217 87.796C291.879 83.9876 285.755 84.7872 282.54 89.5819C279.325 94.3765 280.236 101.351 284.574 105.159Z" fill="#B9DDFF"/>
<path d="M193.167 67.0892C194.807 72.9821 200.307 76.411 205.452 74.7478C210.597 73.0847 213.438 66.9594 211.799 61.0665C210.159 55.1736 204.659 51.7447 199.514 53.4078C194.369 55.0709 191.528 61.1963 193.167 67.0892Z" fill="#FFD29F"/>
<path d="M245.011 130.215C249.349 134.023 255.472 133.224 258.688 128.429C261.903 123.635 260.992 116.66 256.654 112.852C252.315 109.044 246.192 109.843 242.977 114.638C239.762 119.433 240.672 126.407 245.011 130.215Z" fill="#FFD29F"/>
</g>
<defs>
<clipPath id="clip0_431_41906">
<rect width="155.869" height="434.476" fill="white" transform="translate(431.751 -13.8125) rotate(82.5605)"/>
</clipPath>
</defs>
</svg>
