<svg width="209" height="667" viewBox="0 0 209 667" fill="none" xmlns="http://www.w3.org/2000/svg">
<g opacity="0.3" clip-path="url(#clip0_480_3438)">
<path d="M104.226 363.697C121.088 363.697 134.758 349.955 134.758 333.004C134.758 316.053 121.088 302.311 104.226 302.311C87.3629 302.311 73.6929 316.053 73.6929 333.004C73.6929 349.955 87.3629 363.697 104.226 363.697Z" fill="#FFD29F"/>
<path d="M175.191 499.372C178.857 490.476 174.654 480.276 165.804 476.591C156.954 472.906 146.808 477.131 143.142 486.027C139.477 494.924 143.679 505.123 152.529 508.808C161.379 512.493 171.525 508.268 175.191 499.372Z" fill="#FFD29F"/>
<path d="M126.907 650.642C136.23 648.43 142.004 639.039 139.803 629.667C137.603 620.295 128.261 614.491 118.938 616.703C109.615 618.915 103.841 628.306 106.042 637.678C108.242 647.049 117.584 652.854 126.907 650.642Z" fill="#FFD29F"/>
<path d="M96.047 621.555C100.678 621.555 104.433 617.781 104.433 613.125C104.433 608.469 100.678 604.695 96.047 604.695C91.4156 604.695 87.6611 608.469 87.6611 613.125C87.6611 617.781 91.4156 621.555 96.047 621.555Z" fill="#FFD29F"/>
<path d="M189.791 506.661C194.422 506.661 198.176 502.887 198.176 498.231C198.176 493.576 194.422 489.802 189.791 489.802C185.159 489.802 181.405 493.576 181.405 498.231C181.405 502.887 185.159 506.661 189.791 506.661Z" fill="#FFD29F"/>
<path d="M122.948 492.705C127.579 492.705 131.334 488.931 131.334 484.276C131.334 479.62 127.579 475.846 122.948 475.846C118.316 475.846 114.562 479.62 114.562 484.276C114.562 488.931 118.316 492.705 122.948 492.705Z" fill="#FFD29F"/>
<path d="M149.629 658.57C149.629 663.226 153.383 667 158.015 667C162.646 667 166.401 663.226 166.401 658.57C166.401 653.914 162.646 650.14 158.015 650.14C153.383 650.14 149.629 653.914 149.629 658.57Z" fill="#FFD29F"/>
<path d="M140.292 448.865C157.155 448.865 170.825 435.124 170.825 418.172C170.825 401.221 157.155 387.479 140.292 387.479C123.429 387.479 109.759 401.221 109.759 418.172C109.759 435.124 123.429 448.865 140.292 448.865Z" fill="#B9DDFF"/>
<path d="M158.039 592.663C170.358 592.663 180.344 582.624 180.344 570.241C180.344 557.857 170.358 547.818 158.039 547.818C145.72 547.818 135.733 557.857 135.733 570.241C135.733 582.624 145.72 592.663 158.039 592.663Z" fill="#B9DDFF"/>
<path d="M125.577 561.514C132.665 559.832 137.056 552.692 135.383 545.566C133.71 538.44 126.607 534.026 119.518 535.708C112.429 537.39 108.038 544.53 109.712 551.657C111.385 558.783 118.488 563.196 125.577 561.514Z" fill="#B9DDFF"/>
<path d="M198.814 603.576C205.903 601.894 210.294 594.754 208.62 587.628C206.947 580.502 199.844 576.089 192.755 577.771C185.667 579.452 181.276 586.593 182.949 593.719C184.623 600.845 191.726 605.258 198.814 603.576Z" fill="#B9DDFF"/>
<path d="M193.195 416.343C201.201 414.443 206.159 406.379 204.27 398.331C202.38 390.283 194.358 385.299 186.352 387.198C178.346 389.098 173.387 397.162 175.277 405.21C177.167 413.258 185.189 418.242 193.195 416.343Z" fill="#B9DDFF"/>
<path d="M97.4405 440.484C103.257 434.637 103.257 425.156 97.4405 419.309C91.6238 413.462 82.193 413.462 76.3763 419.309C70.5596 425.156 70.5596 434.637 76.3763 440.484C82.193 446.331 91.6238 446.331 97.4405 440.484Z" fill="#B9DDFF"/>
<path d="M52.6234 191.506C62.0787 189.963 68.4996 181.007 66.9648 171.502C65.43 161.997 56.5207 155.542 47.0653 157.085C37.6099 158.628 31.189 167.584 32.7239 177.089C34.2587 186.594 43.168 193.049 52.6234 191.506Z" fill="#FFD29F"/>
<path d="M98.3192 45.6496C105.093 38.8406 105.093 27.801 98.3192 20.992C91.5458 14.183 80.5638 14.183 73.7903 20.992C67.0169 27.801 67.0169 38.8406 73.7903 45.6496C80.5638 52.4586 91.5458 52.4586 98.3192 45.6496Z" fill="#FFD29F"/>
<path d="M112.965 62.2928C117.596 62.2928 121.351 58.5186 121.351 53.863C121.351 49.2073 117.596 45.4331 112.965 45.4331C108.334 45.4331 104.579 49.2073 104.579 53.863C104.579 58.5186 108.334 62.2928 112.965 62.2928Z" fill="#FFD29F"/>
<path d="M27.5954 168.769C27.5954 164.113 23.8413 160.339 19.2096 160.339C14.5779 160.339 10.8237 164.113 10.8237 168.769C10.8237 173.425 14.5779 177.199 19.2096 177.199C23.8413 177.199 27.5954 173.425 27.5954 168.769Z" fill="#FFD29F"/>
<path d="M94.4382 182.712C94.4382 178.056 90.6841 174.282 86.0523 174.282C81.4206 174.282 77.6665 178.056 77.6665 182.712C77.6665 187.368 81.4206 191.142 86.0523 191.142C90.6841 191.142 94.4382 187.368 94.4382 182.712Z" fill="#FFD29F"/>
<path d="M50.9977 16.8597C55.629 16.8597 59.3835 13.0855 59.3835 8.42986C59.3835 3.77417 55.629 0 50.9977 0C46.3663 0 42.6118 3.77417 42.6118 8.42986C42.6118 13.0855 46.3663 16.8597 50.9977 16.8597Z" fill="#FFD29F"/>
<path d="M68.708 279.521C85.5708 279.521 99.2408 265.779 99.2408 248.828C99.2408 231.876 85.5708 218.135 68.708 218.135C51.8453 218.135 38.1753 231.876 38.1753 248.828C38.1753 265.779 51.8453 279.521 68.708 279.521Z" fill="#B9DDFF"/>
<path d="M50.9611 119.182C63.28 119.182 73.2665 109.143 73.2665 96.7596C73.2665 84.376 63.28 74.3372 50.9611 74.3372C38.6422 74.3372 28.6558 84.376 28.6558 96.7596C28.6558 109.143 38.6422 119.182 50.9611 119.182Z" fill="#B9DDFF"/>
<path d="M88.5511 131.484C95.7407 130.311 100.623 123.501 99.4558 116.274C98.2888 109.046 91.5145 104.138 84.3249 105.312C77.1354 106.485 72.2532 113.295 73.4202 120.522C74.5872 127.749 81.3616 132.657 88.5511 131.484Z" fill="#B9DDFF"/>
<path d="M15.304 89.4221C22.4936 88.249 27.3758 81.4391 26.2088 74.2118C25.0417 66.9845 18.2674 62.0767 11.0779 63.2498C3.88833 64.423 -0.993879 71.2329 0.173147 78.4602C1.34017 85.6874 8.11451 90.5953 15.304 89.4221Z" fill="#B9DDFF"/>
<path d="M19.2218 293.293C27.4478 293.293 34.1164 286.589 34.1164 278.32C34.1164 270.051 27.4478 263.347 19.2218 263.347C10.9957 263.347 4.32715 270.051 4.32715 278.32C4.32715 286.589 10.9957 293.293 19.2218 293.293Z" fill="#B9DDFF"/>
<path d="M132.63 247.691C138.447 241.844 138.447 232.363 132.63 226.516C126.814 220.669 117.383 220.669 111.566 226.516C105.75 232.363 105.75 241.844 111.566 247.691C117.383 253.538 126.814 253.538 132.63 247.691Z" fill="#B9DDFF"/>
<path d="M66.1436 379.269C74.2634 377.944 79.7773 370.253 78.4593 362.09C77.1413 353.928 69.4904 348.385 61.3706 349.71C53.2508 351.035 47.7369 358.726 49.055 366.888C50.373 375.051 58.0238 380.594 66.1436 379.269Z" fill="#FFD29F"/>
<path d="M159.075 312.897C164.892 307.05 164.892 297.57 159.075 291.723C153.259 285.875 143.828 285.875 138.011 291.723C132.194 297.57 132.194 307.05 138.011 312.897C143.828 318.745 153.259 318.745 159.075 312.897Z" fill="#FFD29F"/>
</g>
<defs>
<clipPath id="clip0_480_3438">
<rect width="209" height="667" fill="white"/>
</clipPath>
</defs>
</svg>
