<svg width="282" height="271" viewBox="0 0 282 271" fill="none" xmlns="http://www.w3.org/2000/svg">
<g clip-path="url(#clip0_431_41726)">
<path d="M177.502 72.6721C174.006 74.1274 171.041 76.8824 169.524 80.944C168.28 84.2706 168.298 87.9206 167.766 91.4355C166.622 98.9532 162.673 105.929 157.063 111.005C150.323 117.102 143.075 118.472 134.176 118.318C124.235 118.146 115.22 120.957 106.73 125.966C98.8149 130.635 90.529 131.383 81.6743 128.939C75.8684 127.336 69.8822 124.762 65.0603 121.082C60.0716 117.274 58.0525 110.771 53.0143 106.936C47.8733 103.03 40.8053 102.207 34.9565 104.928C25.7928 109.19 22.1223 120.272 26.8966 129.198C29.9953 134.987 36.2792 138.622 42.8239 138.488C46.3848 138.417 49.0993 136.675 52.4236 135.971C56.5564 135.097 61.1965 135.833 65.2077 136.963C73.0552 139.172 81.2348 142.297 87.0696 148.235C94.0013 155.281 93.7019 165.007 98.0488 173.348C106.486 189.552 127.268 196.136 143.976 189.928C156.221 185.379 171.784 185.88 178.565 199.016C183.688 208.94 182.007 220.485 191.827 227.798C199.701 233.664 210.923 234.819 219.681 230.334C232.564 223.743 237.639 207.856 230.88 194.925C226.624 186.786 217.826 181.483 208.728 181.027C201.258 180.648 194.136 185.68 186.649 183.769C175.279 180.859 170.072 170.502 167.48 159.912C166.183 154.617 165.817 149.225 164.644 143.904C163.434 138.416 161.913 132.74 163.249 127.125C164.925 120.082 169.512 114.537 174.549 109.6C179.922 104.33 186.671 103.397 192.74 99.3472C199.277 94.9804 201.231 86.1737 197.436 79.2965C193.41 72 184.41 69.7882 177.498 72.6639L177.502 72.6721Z" fill="#54AAFD"/>
<path d="M205.176 141.939C211.531 138.741 214.082 130.981 210.874 124.606C207.666 118.232 199.913 115.657 193.559 118.855C187.204 122.053 184.653 129.813 187.861 136.188C191.069 142.562 198.821 145.137 205.176 141.939Z" fill="#54AAFD"/>
<path d="M64.4411 169.852C70.7959 166.654 73.3469 158.894 70.1388 152.519C66.9308 146.145 59.1786 143.57 52.8238 146.768C46.469 149.966 43.918 157.727 47.1261 164.101C50.3341 170.475 58.0863 173.05 64.4411 169.852Z" fill="#54AAFD"/>
</g>
<defs>
<clipPath id="clip0_431_41726">
<rect width="201.556" height="224.958" fill="white" transform="translate(0.0966797 91.2554) rotate(-26.7147)"/>
</clipPath>
</defs>
</svg>
