<svg width="284" height="262" viewBox="0 0 284 262" fill="none" xmlns="http://www.w3.org/2000/svg">
<g opacity="0.7">
<path d="M213.807 48.8152C184.873 71.4299 144.642 55.1583 131.415 39.1625C92.2853 -7.72167 243.017 25.9246 213.807 48.8152Z" fill="url(#paint0_radial_703_4791)"/>
</g>
<g opacity="0.7">
<path d="M258.999 192.502C239.985 225.045 202.509 253.176 160.9 260.346C154.286 261.449 147.397 262.001 140.508 262.001C138.855 262.001 137.202 262.001 135.548 262.001C107.992 260.898 79.8852 249.59 55.3603 223.666C17.3331 183.677 6.03511 144.514 12.9241 111.144C14.853 101.491 18.4353 92.1145 23.3954 83.2892C66.3827 6.61976 115.708 54.6071 176.056 62.8808C217.665 68.6724 264.786 85.2198 274.706 122.727C279.391 140.929 275.808 163.544 258.999 192.502Z" fill="url(#paint1_radial_703_4791)"/>
</g>
<path d="M60.5962 99.284C60.5962 99.5598 60.5962 99.8356 60.3206 99.8356H47.3693C47.3693 99.8356 47.0938 99.5598 47.0938 99.284C47.0938 99.0082 47.0937 98.7324 47.3693 98.7324H60.3206C60.3206 98.7324 60.5962 99.0082 60.5962 99.284Z" fill="url(#paint2_linear_703_4791)"/>
<path d="M65.0048 93.2166C65.0048 93.4924 65.0048 93.7682 64.7292 93.7682H43.2355C42.96 93.7682 42.96 93.4924 42.96 93.2166C42.96 92.9408 42.96 92.665 43.2355 92.665H64.7292C64.7292 92.665 65.0048 92.9408 65.0048 93.2166Z" fill="url(#paint3_linear_703_4791)"/>
<path d="M67.7612 87.1492C67.7612 87.425 67.4857 87.7008 67.4857 87.7008H40.2052C39.9297 87.7008 39.9297 87.425 39.9297 87.1492C39.9297 86.8734 40.2052 86.5977 40.2052 86.5977H67.4857C67.7612 86.5977 67.7612 86.5977 67.7612 87.1492Z" fill="url(#paint4_linear_703_4791)"/>
<path d="M65.0048 80.8065C65.0048 81.0823 65.0048 81.358 64.7292 81.358H43.2355C42.96 81.358 42.96 81.0823 42.96 80.8065C42.96 80.5307 42.96 80.2549 43.2355 80.2549H64.7292C64.7292 80.2549 65.0048 80.5307 65.0048 80.8065Z" fill="url(#paint5_linear_703_4791)"/>
<path d="M60.5962 74.7391C60.5962 75.0149 60.5962 75.2907 60.3206 75.2907H47.3693C47.3693 75.2907 47.0938 75.0149 47.0938 74.7391C47.0938 74.4633 47.0937 74.1875 47.3693 74.1875H60.3206C60.3206 74.1875 60.5962 74.4633 60.5962 74.7391Z" fill="url(#paint6_linear_703_4791)"/>
<path d="M67.7612 131.828C67.7612 132.104 67.4857 132.379 67.4857 132.379H40.2052C39.9297 132.379 39.9297 132.104 39.9297 131.828C39.9297 131.552 40.2052 131.276 40.2052 131.276H67.4857C67.7612 131 67.7612 131.276 67.7612 131.828Z" fill="url(#paint7_linear_703_4791)"/>
<path d="M65.0048 125.484C65.0048 125.76 65.0048 126.036 64.7292 126.036H43.2355C42.96 126.036 42.96 125.76 42.96 125.484C42.96 125.208 42.96 124.933 43.2355 124.933H64.7292C64.7292 124.933 65.0048 125.208 65.0048 125.484Z" fill="url(#paint8_linear_703_4791)"/>
<path d="M60.5962 119.417C60.5962 119.693 60.5962 119.968 60.3206 119.968H47.3693C47.3693 119.968 47.0938 119.693 47.0938 119.417C47.0938 119.141 47.0937 118.865 47.3693 118.865H60.3206C60.3206 118.865 60.5962 119.141 60.5962 119.417Z" fill="url(#paint9_linear_703_4791)"/>
<path d="M60.5962 54.6063C60.5962 54.8821 60.5962 55.1578 60.3206 55.1578H47.3693C47.3693 55.1578 47.0938 54.8821 47.0938 54.6063C47.0938 54.3305 47.0937 54.0547 47.3693 54.0547H60.3206C60.3206 54.0547 60.5962 54.3305 60.5962 54.6063Z" fill="url(#paint10_linear_703_4791)"/>
<path d="M65.0048 48.5389C65.0048 48.8147 65.0048 49.0905 64.7292 49.0905H43.2355C42.96 49.0905 42.96 48.8147 42.96 48.5389C42.96 48.2631 42.96 47.9873 43.2355 47.9873H64.7292C64.7292 47.9873 65.0048 48.2631 65.0048 48.5389Z" fill="url(#paint11_linear_703_4791)"/>
<path d="M67.7612 42.4715C67.7612 42.7473 67.4857 43.0231 67.4857 43.0231H40.2052C39.9297 43.0231 39.9297 42.7473 39.9297 42.4715C39.9297 42.1957 40.2052 41.9199 40.2052 41.9199H67.4857C67.7612 41.9199 67.7612 41.9199 67.7612 42.4715Z" fill="url(#paint12_linear_703_4791)"/>
<path d="M65.0048 36.1287C65.0048 36.4045 65.0048 36.6803 64.7292 36.6803H43.2355C42.96 36.6803 42.96 36.4045 42.96 36.1287C42.96 35.8529 42.96 35.5771 43.2355 35.5771H64.7292C64.7292 35.5771 65.0048 35.8529 65.0048 36.1287Z" fill="url(#paint13_linear_703_4791)"/>
<path d="M60.5962 30.0613C60.5962 30.3371 60.5962 30.6129 60.3206 30.6129H47.3693C47.3693 30.6129 47.0938 30.3371 47.0938 30.0613C47.0938 29.7856 47.0937 29.5098 47.3693 29.5098H60.3206C60.3206 29.5098 60.5962 29.7856 60.5962 30.0613Z" fill="url(#paint14_linear_703_4791)"/>
<path d="M60.5962 9.92853C60.5962 10.2043 60.5962 10.4801 60.3206 10.4801H47.3693C47.3693 10.4801 47.0938 10.2043 47.0938 9.92853C47.0938 9.65274 47.0937 9.37695 47.3693 9.37695H60.3206C60.3206 9.37695 60.5962 9.65274 60.5962 9.92853Z" fill="url(#paint15_linear_703_4791)"/>
<path d="M67.7612 3.86115C67.7612 4.13694 67.4857 4.41273 67.4857 4.41273H40.2052C39.9297 4.41273 39.9297 4.13694 39.9297 3.86115C39.9297 3.58536 40.2052 3.30957 40.2052 3.30957H67.4857C67.7612 3.30957 67.7612 3.58536 67.7612 3.86115Z" fill="url(#paint16_linear_703_4791)"/>
<path d="M77.4051 87.1495C77.4051 97.9053 69.1383 103.973 60.0448 109.213C58.3914 110.04 56.7381 111.143 54.8092 111.971C54.2581 112.246 53.4314 112.798 52.8802 113.074C43.7868 118.038 35.52 123.002 35.2444 131.827C35.2444 133.206 34.1422 134.585 32.7644 134.585C31.111 134.585 30.0088 133.482 30.0088 131.827C30.0088 121.072 38.2756 115.004 47.3691 109.764C49.0224 108.661 50.6758 107.834 52.6047 107.006C53.1558 106.731 53.9825 106.179 54.5336 105.903C63.9026 100.939 72.1694 95.9747 72.1694 87.1495C72.1694 78.3242 63.9026 73.36 54.5336 68.3958C53.9825 68.12 53.1558 67.5684 52.6047 67.2926C50.9513 66.4653 49.298 65.3621 47.3691 64.5347C38.5511 59.5705 30.0088 53.2274 30.0088 42.4716C30.0088 31.7158 38.2756 25.6484 47.3691 20.4084C49.0224 19.3053 50.6758 18.4779 52.6047 17.6505C53.1558 17.3747 53.9825 16.8232 54.5336 16.5474C62.2493 12.4105 69.1383 8.27368 71.3428 1.93053C71.8939 0.55158 72.9961 0 74.3739 0C76.0273 0 77.1295 1.65474 76.854 3.30947C74.6495 10.7558 67.7605 15.72 60.3204 19.8568C58.667 20.6842 57.0137 21.7874 55.0847 22.6147C54.5336 22.8905 53.7069 23.4421 53.1558 23.7179C43.7868 28.6821 35.52 33.6463 35.52 42.4716C35.52 51.2968 43.7868 56.2611 53.1558 61.2253C53.7069 61.5011 54.5336 62.0526 55.0847 62.3284C56.7381 63.1558 58.3915 64.2589 60.3204 65.0863C68.8627 70.0505 77.4051 76.3937 77.4051 87.1495Z" fill="url(#paint17_linear_703_4791)"/>
<path d="M77.9565 131.551C77.9565 133.482 76.5788 135.137 74.6498 135.137C72.7209 135.137 71.0675 133.758 71.0675 131.827C71.0675 123.002 62.2496 118.038 52.8806 113.073C52.605 112.798 52.3295 112.798 52.0539 112.522C50.4006 111.695 48.7472 110.867 47.3694 110.04C38.2759 104.8 29.458 98.4566 29.458 87.425C29.458 76.3935 38.2759 69.7745 47.3694 64.8103C49.0228 63.9829 50.6761 63.1556 52.0539 62.3282C52.3295 62.0524 52.605 62.0524 52.8806 61.7766C62.5252 56.8124 71.0675 51.8482 71.0675 43.0229C71.0675 34.1977 62.2496 29.2335 52.8806 24.2693C52.605 23.9935 52.3295 23.9935 52.0539 23.7177C50.4006 22.8903 48.7472 22.0629 47.3694 21.2356C40.2048 17.3745 33.5914 12.6861 30.8358 5.51557C30.0091 3.30925 31.6625 0.827148 34.1425 0.827148C35.5203 0.827148 36.6226 1.65452 36.8981 2.75767C39.1026 9.10083 46.5427 13.2377 54.534 17.3745C54.8095 17.6503 55.0851 17.6503 55.3606 17.9261C57.014 18.7535 58.6674 19.5808 60.0452 20.4082C69.1386 25.6482 77.9565 31.9914 77.9565 43.0229C77.9565 54.3303 69.1386 60.6735 60.0452 65.6377C58.3918 66.465 56.7384 67.2924 55.3606 68.1198C55.0851 68.3956 54.8095 68.3956 54.534 68.6714C44.8894 73.6356 36.347 78.5998 36.347 87.425C36.347 96.2503 45.1649 101.215 54.534 106.179C54.8095 106.455 55.0851 106.455 55.3606 106.73C57.014 107.558 58.6674 108.385 60.0452 109.212C69.1386 114.177 77.9565 120.52 77.9565 131.551Z" fill="url(#paint18_linear_703_4791)"/>
<path d="M276.911 162.164H133.345C130.038 162.164 127.282 159.406 127.282 156.097V41.3683C127.282 39.162 129.211 37.2314 131.416 37.2314H278.84C281.045 37.2314 282.974 39.162 282.974 41.3683V156.373C282.974 159.406 280.218 162.164 276.911 162.164Z" fill="white"/>
<path d="M276.911 162.992H133.344C129.486 162.992 126.455 159.958 126.455 156.097V41.3685C126.455 38.6106 128.66 36.4043 131.415 36.4043H278.84C281.595 36.4043 283.8 38.6106 283.8 41.3685V156.373C283.8 159.958 280.769 162.992 276.911 162.992ZM131.415 37.7832C129.486 37.7832 128.108 39.438 128.108 41.0927V156.097C128.108 159.131 130.588 161.337 133.344 161.337H276.911C279.942 161.337 282.146 158.855 282.146 156.097V41.3685C282.146 39.438 280.493 38.059 278.84 38.059H131.415V37.7832Z" fill="#FB6648"/>
<path d="M267.817 40.8174C267.266 40.8174 266.715 41.369 266.715 41.9205C266.715 42.4721 267.266 43.0237 267.817 43.0237C268.368 43.0237 268.919 42.4721 268.919 41.9205C268.919 41.369 268.368 40.8174 267.817 40.8174Z" fill="#2B1D40"/>
<path d="M272.226 40.8174C271.675 40.8174 271.124 41.369 271.124 41.9205C271.124 42.4721 271.675 43.0237 272.226 43.0237C272.777 43.0237 273.329 42.4721 273.329 41.9205C273.053 41.369 272.777 40.8174 272.226 40.8174Z" fill="url(#paint19_linear_703_4791)"/>
<path d="M276.359 40.8174C275.808 40.8174 275.257 41.369 275.257 41.9205C275.257 42.4721 275.808 43.0237 276.359 43.0237C276.91 43.0237 277.461 42.4721 277.461 41.9205C277.461 41.369 276.91 40.8174 276.359 40.8174Z" fill="url(#paint20_linear_703_4791)"/>
<path d="M232.821 47.7119H128.108V49.3667H232.821V47.7119Z" fill="#FB6648"/>
<path d="M271.95 120.244C271.95 119.968 271.95 119.417 271.95 119.141C271.95 118.038 271.675 116.659 271.399 115.556H271.124C268.368 115.556 263.959 115.004 260.652 112.798L261.755 111.143C264.51 113.074 268.368 113.349 270.848 113.349C271.399 111.97 271.675 110.316 271.675 108.937C271.675 104.248 269.195 99.8357 265.612 97.3536C260.101 98.181 253.212 100.387 247.977 106.179L246.323 104.8C251.834 98.7326 258.999 96.2505 264.786 95.1473C263.959 91.2863 261.755 87.9768 258.448 86.0463C257.346 88.2526 253.763 93.4926 244.945 93.4926C244.394 93.4926 243.568 93.4926 242.741 93.4926L243.017 91.2863C253.763 92.3894 256.519 84.6673 256.795 84.3915L257.346 84.6673C255.141 80.5305 251.283 77.7726 246.599 77.221C245.772 78.3241 244.945 79.7031 244.119 81.3578L242.19 80.5305C243.017 78.5999 243.843 77.221 244.67 76.1178C241.639 73.0841 237.23 71.1536 232.545 71.1536C232.27 71.1536 231.719 71.1536 231.443 71.1536C230.341 74.1873 229.514 79.1515 231.719 85.4947L229.79 86.322C227.034 79.1515 228.136 73.3599 229.514 70.0505C227.034 68.6715 224.003 67.5684 220.696 67.5684C217.114 67.5684 213.807 68.6715 211.052 70.602C209.949 88.2526 197.274 90.1831 197.274 90.1831L196.998 89.0799L196.722 87.9768C197.274 87.9768 207.745 86.0463 208.847 70.3263C206.918 68.6715 204.438 67.5684 201.683 67.5684C199.478 67.5684 197.274 68.1199 195.62 69.2231C195.345 71.7052 195.62 75.842 200.305 80.2547L198.927 81.9094C193.967 77.4968 193.14 72.8084 193.416 69.7747C191.487 69.2231 189.282 68.6715 186.802 68.6715C180.189 68.6715 174.402 71.7052 170.544 76.3936C173.575 78.0484 179.638 82.461 182.944 92.941L180.74 93.4926C176.882 81.082 168.34 77.7726 168.064 77.7726L168.34 77.221H168.064C159.246 77.221 152.357 84.3915 152.357 92.941C154.286 94.5957 160.073 97.9052 168.891 91.562L170.269 93.2168C165.86 96.2505 162.277 97.3536 159.246 97.3536C155.664 97.3536 152.908 95.9747 151.531 94.8715C147.673 97.0778 145.193 101.49 145.193 106.179C145.193 106.73 145.193 107.558 145.468 108.109C150.428 108.937 160.073 112.246 161.175 122.175L158.971 122.45C158.144 114.177 150.428 111.419 146.019 110.316C144.366 112.246 142.988 115.004 142.988 117.762C142.988 121.623 145.193 125.208 148.224 127.139C151.531 126.036 157.042 125.208 162.277 130.173L160.9 131.827C157.042 128.242 153.184 128.242 150.153 129.069C151.531 132.93 155.388 135.413 159.522 135.413C160.9 135.413 162.002 135.137 163.104 134.861C164.206 135.413 165.584 135.413 166.686 135.413C167.513 135.413 168.615 135.413 169.442 135.137C169.718 132.655 169.718 129.345 166.962 126.587L168.34 124.933C171.922 127.966 172.198 132.103 171.646 135.137C172.749 135.688 173.575 135.964 174.678 136.24C176.331 131.827 180.74 123.829 191.487 124.933L191.211 127.139C181.567 126.312 177.709 133.482 176.607 137.343C178.26 143.962 184.322 148.926 191.487 148.926C193.967 148.926 196.447 148.375 198.651 146.996C197.274 143.135 195.896 137.343 199.202 132.655L200.856 133.758C198.1 137.895 199.478 143.41 200.856 146.72C202.234 147.272 203.611 147.547 205.265 147.547C207.745 147.547 209.949 146.996 211.878 145.893C213.256 145.065 224.003 139.274 232.545 140.101C236.403 140.377 242.741 142.032 249.079 142.583C244.945 138.17 243.017 134.309 243.292 130.724C243.568 127.415 245.772 124.657 249.63 122.726L250.732 124.657C247.425 126.587 245.772 128.518 245.497 131C245.221 133.482 246.323 137.343 252.11 142.583C258.999 142.583 265.888 140.653 270.021 134.034C270.297 133.758 270.297 133.482 270.573 133.206C271.675 131.276 272.501 128.794 272.501 126.312C273.328 124.105 272.777 122.175 271.95 120.244ZM196.998 106.179C194.242 103.973 191.211 103.145 188.456 103.697C182.944 104.524 179.087 109.764 179.087 109.764L177.433 108.385C177.709 108.109 181.842 102.318 188.18 101.49C191.762 100.939 195.069 102.042 198.376 104.524L196.998 106.179ZM213.807 88.8042C215.461 86.322 218.492 84.9431 222.901 84.3915L223.176 86.5978C219.594 86.8736 217.114 87.9768 215.736 89.9073C213.807 92.6652 215.185 96.5263 215.185 96.802L213.256 97.3536C212.705 97.3536 211.327 92.6652 213.807 88.8042ZM213.807 114.728C211.603 114.728 209.398 114.177 208.02 113.625L208.847 111.695C209.123 111.97 218.492 115.28 222.074 107.834L224.003 108.661C221.523 113.349 217.389 114.728 213.807 114.728ZM246.048 115.556C233.923 111.97 229.79 124.381 229.514 124.933L227.31 124.381C227.31 124.105 232.27 109.213 246.323 113.625L246.048 115.556Z" fill="url(#paint21_linear_703_4791)"/>
<path d="M169.718 113.349C169.718 114.176 168.891 115.004 168.064 115.004C167.238 115.004 166.411 114.176 166.411 113.349C166.411 112.522 167.238 111.694 168.064 111.694C168.891 111.694 169.718 112.246 169.718 113.349Z" fill="url(#paint22_linear_703_4791)"/>
<path d="M167.789 115.831C166.411 115.831 165.309 114.728 165.309 113.349C165.309 111.97 166.411 110.867 167.789 110.867C169.166 110.867 170.269 111.97 170.269 113.349C170.544 114.728 169.442 115.831 167.789 115.831ZM167.789 111.143C166.686 111.143 165.584 112.246 165.584 113.349C165.584 114.452 166.686 115.556 167.789 115.556C168.891 115.556 169.993 114.452 169.993 113.349C169.993 111.97 169.166 111.143 167.789 111.143Z" fill="url(#paint23_linear_703_4791)"/>
<path d="M201.683 119.968C201.683 121.347 200.58 122.451 199.203 122.451C197.825 122.451 196.723 121.347 196.723 119.968C196.723 118.589 197.825 117.486 199.203 117.486C200.58 117.486 201.683 118.589 201.683 119.968Z" fill="url(#paint24_linear_703_4791)"/>
<path d="M199.202 123.553C197.273 123.553 195.62 121.899 195.62 119.968C195.62 118.038 197.273 116.383 199.202 116.383C201.131 116.383 202.785 118.038 202.785 119.968C202.785 121.899 201.131 123.553 199.202 123.553ZM199.202 116.934C197.549 116.934 196.171 118.313 196.171 119.968C196.171 121.623 197.549 123.002 199.202 123.002C200.856 123.002 202.234 121.623 202.234 119.968C202.234 118.313 200.856 116.934 199.202 116.934Z" fill="url(#paint25_linear_703_4791)"/>
<path d="M191.487 87.1493C192.4 87.1493 193.141 86.4085 193.141 85.4946C193.141 84.5807 192.4 83.8398 191.487 83.8398C190.574 83.8398 189.834 84.5807 189.834 85.4946C189.834 86.4085 190.574 87.1493 191.487 87.1493Z" fill="url(#paint26_linear_703_4791)"/>
<path d="M191.487 87.9769C190.109 87.9769 189.007 86.8738 189.007 85.4948C189.007 84.1159 190.109 83.0127 191.487 83.0127C192.865 83.0127 193.967 84.1159 193.967 85.4948C193.967 86.8738 192.865 87.9769 191.487 87.9769ZM191.487 83.5643C190.385 83.5643 189.282 84.3916 189.282 85.7706C189.282 87.1495 190.109 87.9769 191.487 87.9769C192.865 87.9769 193.691 87.1495 193.691 85.7706C193.691 84.3916 192.589 83.5643 191.487 83.5643Z" fill="url(#paint27_linear_703_4791)"/>
<path d="M230.066 96.2511C230.066 97.63 228.964 99.009 227.31 99.009C225.657 99.009 224.555 97.9058 224.555 96.2511C224.555 94.8721 225.657 93.4932 227.31 93.4932C228.964 93.4932 230.066 94.8721 230.066 96.2511Z" fill="url(#paint28_linear_703_4791)"/>
<path d="M227.31 100.663C225.106 100.663 223.177 98.7328 223.177 96.5265C223.177 94.3202 225.106 92.3896 227.31 92.3896C229.515 92.3896 231.444 94.3202 231.444 96.5265C231.719 98.7328 229.79 100.663 227.31 100.663ZM227.31 92.9412C225.381 92.9412 223.728 94.596 223.728 96.5265C223.728 98.457 225.381 100.112 227.31 100.112C229.239 100.112 230.892 98.457 230.892 96.5265C230.892 94.3202 229.515 92.9412 227.31 92.9412Z" fill="url(#paint29_linear_703_4791)"/>
<path d="M256.244 105.076C256.244 105.903 255.418 106.73 254.591 106.73C253.764 106.73 252.938 105.903 252.938 105.076C252.938 104.248 253.764 103.421 254.591 103.421C255.418 103.697 256.244 104.248 256.244 105.076Z" fill="url(#paint30_linear_703_4791)"/>
<path d="M254.59 107.558C253.213 107.558 252.11 106.455 252.11 105.076C252.11 103.697 253.213 102.594 254.59 102.594C255.968 102.594 257.07 103.697 257.07 105.076C257.07 106.455 255.968 107.558 254.59 107.558ZM254.59 103.145C253.488 103.145 252.662 103.973 252.662 105.076C252.662 106.179 253.488 107.006 254.59 107.006C255.693 107.006 256.519 106.179 256.519 105.076C256.519 103.973 255.693 103.145 254.59 103.145Z" fill="url(#paint31_linear_703_4791)"/>
<path d="M238.607 129.346C239.521 129.346 240.261 128.605 240.261 127.691C240.261 126.777 239.521 126.036 238.607 126.036C237.694 126.036 236.954 126.777 236.954 127.691C236.954 128.605 237.694 129.346 238.607 129.346Z" fill="url(#paint32_linear_703_4791)"/>
<path d="M238.608 130.173C237.23 130.173 236.128 129.07 236.128 127.691C236.128 126.312 237.23 125.209 238.608 125.209C239.986 125.209 241.088 126.312 241.088 127.691C241.088 129.07 239.986 130.173 238.608 130.173ZM238.608 125.485C237.506 125.485 236.403 126.312 236.403 127.691C236.403 129.07 237.23 129.897 238.608 129.897C239.986 129.897 240.812 129.07 240.812 127.691C240.812 126.312 239.71 125.485 238.608 125.485Z" fill="url(#paint33_linear_703_4791)"/>
<path d="M264.511 128.794C265.272 128.794 265.888 128.177 265.888 127.415C265.888 126.654 265.272 126.036 264.511 126.036C263.75 126.036 263.133 126.654 263.133 127.415C263.133 128.177 263.75 128.794 264.511 128.794Z" fill="url(#paint34_linear_703_4791)"/>
<path d="M264.511 129.345C263.409 129.345 262.582 128.518 262.582 127.415C262.582 126.312 263.409 125.484 264.511 125.484C265.613 125.484 266.44 126.312 266.44 127.415C266.44 128.518 265.613 129.345 264.511 129.345ZM264.511 125.76C263.684 125.76 262.858 126.588 262.858 127.415C262.858 128.242 263.684 129.07 264.511 129.07C265.338 129.07 266.164 128.242 266.164 127.415C266.164 126.588 265.613 125.76 264.511 125.76Z" fill="url(#paint35_linear_703_4791)"/>
<path d="M266.991 260.069H20.916V262H266.991V260.069Z" fill="#1A1A1A"/>
<path d="M201.407 168.783L199.478 165.749L194.518 169.334L196.446 172.368C197.549 173.747 199.478 174.023 200.855 173.195C201.958 172.092 202.509 170.162 201.407 168.783Z" fill="url(#paint36_linear_703_4791)"/>
<path d="M198.1 173.747C197.274 173.472 196.722 173.196 196.171 172.368L193.967 169.335L199.202 165.474L201.407 168.507C202.509 169.886 202.234 172.093 200.58 173.196C200.029 173.747 199.202 174.023 198.1 173.747ZM194.518 169.335L196.447 172.093C196.998 172.644 197.549 173.196 198.376 173.196C199.202 173.196 200.029 173.196 200.58 172.644C201.958 171.817 202.234 169.886 201.131 168.507L199.202 165.749L194.518 169.335Z" fill="#1E1916"/>
<path d="M168.064 130.172L171.371 135.136L175.229 132.654L171.647 127.689L168.064 130.172Z" fill="url(#paint37_linear_703_4791)"/>
<path d="M171.371 135.412L167.789 130.172L171.922 127.414L175.505 132.654L171.371 135.412ZM168.34 130.448L171.647 135.136L174.954 132.654L171.647 127.966L168.34 130.448Z" fill="#1E1916"/>
<path opacity="0.3" d="M173.576 97.3536C180.189 107.006 177.985 120.52 168.615 127.415C159.246 134.309 146.02 132.103 139.131 122.45C132.517 112.798 134.722 99.2841 144.091 92.3893C153.735 85.4946 166.962 87.7009 173.576 97.3536Z" fill="white"/>
<path d="M166.962 132.102L168.064 133.757C168.34 134.309 169.166 134.309 169.442 134.033L174.402 130.448C174.953 130.172 174.953 129.345 174.678 129.069L173.575 127.414L166.962 132.102Z" fill="url(#paint38_linear_703_4791)"/>
<path d="M168.615 134.309C168.34 134.309 168.064 134.033 167.789 133.757L166.687 132.102L173.851 126.862L174.953 128.517C175.229 129.069 175.229 129.896 174.678 130.172L169.718 133.757C169.442 134.309 169.167 134.309 168.615 134.309ZM167.238 132.378L168.34 133.757C168.34 134.033 168.615 134.033 168.891 134.033C169.167 134.033 169.442 134.033 169.442 133.757L174.402 130.172C174.678 129.896 174.953 129.344 174.678 129.069L173.851 127.69L167.238 132.378Z" fill="#1E1916"/>
<path d="M176.882 95.147C168.891 83.8396 153.46 81.0817 142.162 89.3554C130.864 97.6291 128.384 113.349 136.099 124.656C144.091 135.964 159.522 138.722 170.82 130.448C182.118 122.174 184.874 106.454 176.882 95.147ZM139.131 122.174C132.517 112.522 134.722 99.2838 144.091 92.3891C153.735 85.4944 166.687 87.7007 173.576 97.3533C180.189 107.006 177.985 120.244 168.615 127.139C159.246 134.033 146.02 131.827 139.131 122.174Z" fill="url(#paint39_linear_703_4791)"/>
<path d="M170.544 137.895L192.313 169.335C193.691 171.541 196.722 171.817 198.651 170.438C200.856 169.059 201.131 166.025 199.754 163.819L177.984 132.379C177.433 131.552 176.331 131.552 175.78 132.103L170.82 135.688C169.993 136.24 169.993 137.343 170.544 137.895Z" fill="url(#paint40_linear_703_4791)"/>
<path opacity="0.3" d="M173.576 97.3536C180.189 107.006 177.985 120.52 168.615 127.415C159.246 134.309 146.02 132.103 139.131 122.45C132.517 112.798 134.722 99.2841 144.091 92.3893C153.735 85.4946 166.962 87.7009 173.576 97.3536Z" fill="url(#paint41_linear_703_4791)"/>
<mask id="mask0_703_4791" style="mask-type:luminance" maskUnits="userSpaceOnUse" x="0" y="65" width="230" height="196">
<path d="M229.515 65.0859H0.799805V260.069H229.515V65.0859Z" fill="white"/>
</mask>
<g mask="url(#mask0_703_4791)">
<path d="M14.0264 165.749C23.1198 172.093 42.9602 178.16 60.596 177.608C79.3341 177.057 81.5385 142.032 59.2182 138.722C59.2182 138.722 45.7157 137.619 36.6223 137.067L14.0264 165.749Z" fill="#FAAF9A"/>
<path d="M114.33 161.337C114.881 167.404 113.228 174.575 99.4495 179.815C85.6715 185.055 57.5644 185.055 36.3463 180.918C36.3463 180.918 29.1818 148.375 47.9198 134.31C47.9198 134.31 85.1204 140.377 96.9695 143.135C108.819 146.169 113.779 154.442 114.33 161.337Z" fill="url(#paint42_linear_703_4791)"/>
<path d="M56.1865 168.507C56.1865 168.507 61.9733 181.194 77.4046 179.539V178.711C62.8 180.366 57.2888 168.231 57.0132 168.231L56.1865 168.507Z" fill="#1E1916"/>
<path d="M34.1423 166.577C33.8667 174.575 35.5201 180.918 35.5201 180.918V181.194H35.7957C36.0712 181.194 63.0761 192.501 86.4987 186.985L86.2231 186.158C64.1783 191.398 39.1024 181.469 36.3468 180.642C35.7957 178.712 33.8667 167.68 36.0712 156.924L35.2445 156.648C34.4179 159.958 34.1423 163.267 34.1423 166.577Z" fill="#1E1916"/>
<path d="M50.1245 98.7325C49.0222 101.49 47.3689 101.215 44.6133 108.385C44.3377 108.937 44.0622 109.488 43.7866 110.04C38.2754 123.002 36.0709 156.924 33.8664 161.061C26.9774 175.126 3.83043 165.749 6.58603 150.857C8.79051 139.549 24.773 116.107 33.3153 106.455C33.5909 105.903 34.142 105.627 34.4176 105.076C38.551 100.387 32.4887 97.0777 31.9375 93.4925C31.3864 89.9072 31.9375 86.3219 34.142 85.4946C36.3465 84.6672 37.9998 82.1851 40.7554 82.7367C42.9599 83.0125 44.3377 82.4609 45.9911 82.1851C45.1644 79.1514 44.0622 73.9114 44.6133 70.3261C44.8888 67.2925 46.5422 67.844 47.0933 69.223C47.92 72.5325 51.2267 79.703 51.7778 83.8398C52.329 86.8735 50.9512 97.0777 50.1245 98.7325Z" fill="#FAAF9A"/>
<path d="M50.124 98.7325C49.0218 101.49 47.3684 101.215 44.6128 108.385C44.3372 108.937 44.0617 109.488 43.7861 110.04C39.1016 109.488 35.2438 107.558 33.3149 106.455C33.5904 105.903 34.1415 105.627 34.4171 105.076C38.5505 100.387 32.4882 97.0777 31.9371 93.4925C31.3859 89.9072 31.9371 86.3219 34.1415 85.4946C36.346 84.6672 37.9994 82.1851 40.755 82.7367C42.9594 83.0125 44.3372 82.4609 45.9906 82.1851C45.1639 79.1514 44.0617 73.9114 44.6128 70.3262C44.8884 67.2925 46.5417 67.844 47.0929 69.223C47.9195 72.5325 51.2262 79.703 51.7774 83.8398C52.3285 86.8735 50.9507 97.0777 50.124 98.7325Z" fill="url(#paint43_linear_703_4791)"/>
<path d="M41.8582 269.446C39.6537 278.823 38.5515 341.151 43.5115 351.08C47.0938 358.25 85.9478 375.625 89.5301 356.044C92.8368 338.669 102.206 280.753 101.379 270.549C100.552 260.621 48.4716 241.315 41.8582 269.446Z" fill="url(#paint44_linear_703_4791)"/>
<path d="M102.757 250.141C102.205 243.522 79.334 232.49 61.9738 234.145L57.0137 295.646C58.3915 297.301 63.3515 304.747 64.1782 306.678C71.0672 321.846 77.4051 332.602 93.112 336.739C97.2454 306.402 103.308 257.863 102.757 250.141Z" fill="#1E1916"/>
<path d="M59.4936 261.724C60.8714 271.376 91.183 349.976 99.4498 357.423C105.237 362.663 127.006 364.042 138.028 347.219C149.051 330.395 119.841 249.865 115.157 240.488C110.748 231.387 55.3602 233.042 59.4936 261.724Z" fill="url(#paint45_linear_703_4791)"/>
<path d="M124.526 153.89C137.201 163.819 140.233 184.779 137.201 220.08C134.17 255.381 137.752 278.823 133.068 287.648C133.068 287.648 88.4273 319.916 31.9375 289.579C31.9375 289.579 34.9687 279.65 43.7866 236.627C52.8801 193.604 53.9823 181.745 61.698 165.198C69.4137 148.926 98.623 136.516 105.788 141.48C112.401 146.444 114.605 146.168 124.526 153.89Z" fill="url(#paint46_linear_703_4791)"/>
<path d="M178.811 159.682C178.811 159.682 170.545 187.261 167.789 193.88C166.962 196.086 166.136 199.12 165.033 201.326C160.073 194.431 154.562 187.261 154.562 187.261C140.509 170.989 113.779 190.57 122.597 205.738C131.14 220.08 148.224 231.663 157.869 235.524C158.42 235.8 158.971 236.075 159.247 236.075C159.247 236.075 164.207 238.833 175.78 238.833C176.607 238.833 177.158 238.557 177.709 238.282C181.016 236.627 184.598 232.766 185.976 226.974C188.456 215.391 187.629 166.301 187.629 166.301L178.811 159.682Z" fill="#FAAF9A"/>
<path d="M177.985 160.785L173.852 173.196C173.852 173.196 180.741 178.711 188.456 177.608V166.025L177.985 160.785Z" fill="url(#paint47_linear_703_4791)"/>
<path d="M108.544 154.718C103.308 157.476 98.3478 162.44 101.379 175.953C104.135 189.743 118.464 212.358 132.793 227.25C132.793 227.25 162.553 216.494 164.482 194.156C164.482 194.156 140.784 167.128 132.242 159.13C123.699 151.408 114.33 151.684 108.544 154.718Z" fill="url(#paint48_linear_703_4791)"/>
<path d="M132.517 205.188C132.517 205.188 119.29 206.842 112.952 193.88L113.779 193.604C119.841 206.291 132.517 204.636 132.517 204.636V205.188Z" fill="#1E1916"/>
<path d="M145.193 221.734C138.856 225.871 133.069 228.078 133.069 228.078H132.793H132.518C132.242 227.802 109.646 211.806 102.206 190.294L103.033 190.019C110.197 210.151 130.864 225.595 132.793 227.25C134.447 226.699 144.367 222.838 151.807 215.391L152.358 215.943C150.429 218.149 147.673 220.08 145.193 221.734Z" fill="#1E1916"/>
<path d="M168.615 213.737C168.064 206.29 165.033 202.154 165.033 201.878L165.86 201.326C166.135 201.602 169.167 205.739 169.718 213.461L168.615 213.737Z" fill="#1E1916"/>
<path d="M185.149 144.513C185.149 144.513 182.944 145.617 181.567 146.444C180.189 147.271 179.638 148.099 179.086 150.857C178.811 153.615 176.882 159.406 178.26 161.888C179.638 164.095 182.944 170.438 189.833 167.68C196.447 164.922 201.958 154.718 197.273 154.994C197.273 154.994 199.753 151.132 195.345 150.305C195.345 150.305 195.896 145.341 191.762 146.444C191.762 146.168 191.762 139.549 185.149 144.513Z" fill="url(#paint49_linear_703_4791)"/>
<path d="M191.763 146.168C190.936 146.444 190.109 146.995 189.283 147.823C188.456 148.374 187.905 149.202 187.078 149.753C187.905 149.477 188.731 148.926 189.558 148.098C190.385 147.823 190.936 146.995 191.763 146.168Z" fill="#231F20"/>
<path d="M195.345 150.305C194.242 150.856 193.14 151.684 192.038 152.511C190.936 153.338 190.109 154.166 189.007 154.993C189.558 154.717 190.109 154.442 190.66 154.166C191.211 153.89 191.762 153.338 192.314 153.063C193.416 152.235 194.518 151.408 195.345 150.305Z" fill="#231F20"/>
<path d="M197.274 154.718C196.723 155.269 195.896 156.097 195.345 156.648C195.069 156.924 194.794 157.2 194.518 157.476C194.243 157.751 193.967 158.027 193.691 158.579C194.518 158.303 195.345 157.751 195.896 157.2C196.171 156.924 196.447 156.373 196.723 156.097C196.998 155.545 197.274 155.269 197.274 154.718Z" fill="#231F20"/>
<path d="M73.5471 261.724C63.0758 260.621 57.5646 254.278 57.2891 254.002L57.8402 253.45C57.8402 253.726 70.7915 267.791 92.5607 257.035L92.8363 257.863C85.3962 261.448 78.7827 262.275 73.5471 261.724Z" fill="#1E1916"/>
<path d="M95.0414 110.867C98.8992 105.352 103.584 95.9748 109.922 101.215C111.575 102.594 119.291 107.834 120.668 109.764C123.975 114.177 118.74 120.244 116.535 126.863C115.984 128.794 113.779 132.379 112.402 133.482L114.331 134.31L111.024 147.547C111.024 147.547 98.8992 152.512 92.5613 144.79L94.7658 133.482C92.8369 132.931 91.4591 132.379 90.908 131.827C86.2235 128.242 90.6324 117.211 95.0414 110.867Z" fill="#FAAF9A"/>
<path d="M93.3877 140.928C93.3877 140.928 96.1433 136.239 102.206 132.378L96.4189 130.724L93.3877 140.928Z" fill="#ED7662"/>
<path d="M103.859 101.766C104.41 102.318 105.788 104.248 105.788 104.248C105.788 104.248 103.584 109.488 103.033 111.695C102.757 113.901 96.6947 119.141 92.8369 117.762C88.979 116.383 88.979 121.347 88.4279 123.002C87.6012 125.484 84.0189 126.587 87.6012 130.724C89.8057 133.482 98.0725 135.964 98.6236 130.172C99.4503 124.657 99.4503 117.21 105.513 113.901C111.575 110.867 101.379 119.692 105.513 127.139C106.615 129.345 107.442 131 107.993 132.379C109.095 134.585 111.299 135.688 113.779 135.412C114.055 135.412 114.331 135.412 114.606 135.412C116.811 135.688 125.353 132.655 130.037 124.932C134.722 117.21 132.793 112.522 126.455 107.006C120.393 101.49 124.526 100.111 120.668 96.8019C116.811 93.4924 114.331 85.2188 114.331 85.2188C114.331 85.2188 99.4503 95.9745 103.859 101.766Z" fill="#1E1916"/>
<path d="M110.197 123.002C107.442 124.932 104.135 124.381 102.481 122.174C100.828 119.968 101.93 116.659 104.41 114.728C106.89 112.798 110.473 113.349 112.126 115.555C113.779 117.762 112.953 121.071 110.197 123.002Z" fill="#FAAF9A"/>
<path d="M103.308 119.969C103.308 120.244 103.308 120.244 103.583 120.52C103.859 120.796 104.134 121.072 104.41 121.072C105.237 121.072 105.512 120.52 105.788 120.244C106.063 119.969 106.339 119.417 107.165 119.417C107.717 119.417 108.268 119.417 108.819 119.417C109.645 119.693 110.472 119.693 111.023 118.314C111.299 117.762 111.299 117.486 111.023 116.935C110.472 115.556 108.268 114.729 108.268 114.729L107.992 115.556C108.543 115.832 109.921 116.383 110.197 117.211C110.197 117.486 110.197 117.762 110.197 118.038C109.921 118.865 109.645 118.865 108.819 118.59C108.268 118.59 107.717 118.314 106.89 118.59C105.788 118.865 105.237 119.417 104.961 119.969C104.685 120.244 104.685 120.52 104.41 120.52C104.134 120.52 104.134 120.52 104.134 120.244C103.859 119.969 104.134 119.141 104.134 118.865L103.308 118.59C103.583 118.59 103.308 119.417 103.308 119.969Z" fill="#1E1916"/>
<path d="M50.1245 205.739H49.2979C52.329 183.124 61.4225 164.646 61.4225 164.37L61.9736 164.646C62.2492 164.646 53.1557 183.124 50.1245 205.739Z" fill="#1E1916"/>
</g>
<path d="M206.117 180.153L201.051 185.224L206.117 190.294L211.183 185.224L206.117 180.153Z" fill="#1E1916"/>
<path d="M204.714 178.712L199.479 183.952C198.928 184.503 198.928 185.055 199.479 185.606C200.03 186.158 200.581 186.158 201.132 185.606L206.368 180.366C206.919 179.815 206.919 179.263 206.368 178.712C205.817 178.436 204.99 178.436 204.714 178.712Z" fill="#1E1916"/>
<path d="M240.813 233.318H217.391V246.004H240.813V233.318Z" fill="#1E1916"/>
<path d="M254.591 245.729H220.697V253.175L204.715 258.691H257.347V250.968C257.622 247.107 254.591 245.729 254.591 245.729Z" fill="url(#paint50_linear_703_4791)"/>
<path d="M203.612 223.665H217.941V227.251H227.035V219.804H203.612V223.665Z" fill="#1E1916"/>
<path d="M248.804 202.154L230.617 198.568C228.964 198.293 227.862 196.914 227.862 195.259V191.674C227.862 190.019 226.76 188.916 225.382 188.364L213.533 185.882L211.053 183.676L204.715 190.019L210.777 195.811L233.373 204.912L239.711 209.876V216.219H211.328V219.804H228.689V233.318H240.262V246.004H254.867V209.324C254.591 206.015 252.111 202.981 248.804 202.154Z" fill="url(#paint51_linear_703_4791)"/>
<path d="M244.395 221.459C240.262 221.459 237.23 224.768 237.23 228.63C237.23 232.766 240.537 235.8 244.395 235.8C248.528 235.8 251.56 232.491 251.56 228.63C251.56 224.768 248.528 221.459 244.395 221.459ZM244.395 233.594C241.915 233.594 239.71 231.387 239.71 228.905C239.71 226.423 241.915 224.217 244.395 224.217C246.875 224.217 249.08 226.423 249.08 228.905C249.08 231.387 246.875 233.594 244.395 233.594Z" fill="#1E1916"/>
<path d="M222.35 222.562C221.524 222.562 220.973 223.114 220.973 223.941C220.973 224.768 221.524 225.32 222.35 225.32C223.177 225.32 223.728 224.768 223.728 223.941C224.004 223.114 223.177 222.562 222.35 222.562Z" fill="url(#paint52_linear_703_4791)"/>
<path d="M214.794 197.895L209.729 202.568L212.904 206.016L217.969 201.343L214.794 197.895Z" fill="white"/>
<path d="M211.232 201.28L210.219 202.214L213.393 205.662L214.406 204.728L211.232 201.28Z" fill="#1E1916"/>
<path d="M224.362 204.072L224.304 210.966L228.988 211.006L229.047 204.112L224.362 204.072Z" fill="white"/>
<path d="M224.394 208.674L224.382 210.053L229.066 210.093L229.078 208.714L224.394 208.674Z" fill="#1E1916"/>
<path d="M219.382 201.663L216.265 208.424L220.518 210.389L223.636 203.627L219.382 201.663Z" fill="white"/>
<path d="M217.144 206.144L216.451 207.647L220.705 209.611L221.397 208.109L217.144 206.144Z" fill="#1E1916"/>
<path d="M217.666 201.602L224.004 204.36H231.995L213.257 196.638L217.666 201.602Z" fill="url(#paint53_linear_703_4791)"/>
<path d="M260.102 252.348H249.906V258.967H260.102V252.348Z" fill="url(#paint54_linear_703_4791)"/>
<path d="M257.071 258.966H204.99V260.345H257.071V258.966Z" fill="#1E1916"/>
<path d="M255.142 246.28H242.466V245.453H254.315V240.489H255.142V246.28Z" fill="#1E1916"/>
<defs>
<radialGradient id="paint0_radial_703_4791" cx="0" cy="0" r="1" gradientUnits="userSpaceOnUse" gradientTransform="translate(171.31 37.6697) scale(36.3276 36.3579)">
<stop stop-color="#B3D6FF"/>
<stop offset="1" stop-color="#E6F2FE"/>
</radialGradient>
<radialGradient id="paint1_radial_703_4791" cx="0" cy="0" r="1" gradientUnits="userSpaceOnUse" gradientTransform="translate(143.813 151.184) scale(122.177 122.278)">
<stop stop-color="#B3D6FF"/>
<stop offset="1" stop-color="#E6F2FE"/>
</radialGradient>
<linearGradient id="paint2_linear_703_4791" x1="47.2067" y1="99.3761" x2="60.5301" y2="99.3761" gradientUnits="userSpaceOnUse">
<stop stop-color="#F6462E"/>
<stop offset="1" stop-color="#FB7D42"/>
</linearGradient>
<linearGradient id="paint3_linear_703_4791" x1="42.8282" y1="93.2086" x2="64.908" y2="93.2086" gradientUnits="userSpaceOnUse">
<stop stop-color="#F6462E"/>
<stop offset="1" stop-color="#FB7D42"/>
</linearGradient>
<linearGradient id="paint4_linear_703_4791" x1="39.8556" y1="87.0436" x2="67.8825" y2="87.0436" gradientUnits="userSpaceOnUse">
<stop stop-color="#F6462E"/>
<stop offset="1" stop-color="#FB7D42"/>
</linearGradient>
<linearGradient id="paint5_linear_703_4791" x1="42.8282" y1="80.8762" x2="64.908" y2="80.8762" gradientUnits="userSpaceOnUse">
<stop stop-color="#F6462E"/>
<stop offset="1" stop-color="#FB7D42"/>
</linearGradient>
<linearGradient id="paint6_linear_703_4791" x1="47.2067" y1="74.7118" x2="60.5301" y2="74.7118" gradientUnits="userSpaceOnUse">
<stop stop-color="#F6462E"/>
<stop offset="1" stop-color="#FB7D42"/>
</linearGradient>
<linearGradient id="paint7_linear_703_4791" x1="39.8556" y1="131.708" x2="67.8825" y2="131.708" gradientUnits="userSpaceOnUse">
<stop stop-color="#F6462E"/>
<stop offset="1" stop-color="#FB7D42"/>
</linearGradient>
<linearGradient id="paint8_linear_703_4791" x1="42.8282" y1="125.541" x2="64.908" y2="125.541" gradientUnits="userSpaceOnUse">
<stop stop-color="#F6462E"/>
<stop offset="1" stop-color="#FB7D42"/>
</linearGradient>
<linearGradient id="paint9_linear_703_4791" x1="47.2067" y1="119.374" x2="60.5301" y2="119.374" gradientUnits="userSpaceOnUse">
<stop stop-color="#F6462E"/>
<stop offset="1" stop-color="#FB7D42"/>
</linearGradient>
<linearGradient id="paint10_linear_703_4791" x1="47.2067" y1="54.7058" x2="60.5301" y2="54.7058" gradientUnits="userSpaceOnUse">
<stop stop-color="#F6462E"/>
<stop offset="1" stop-color="#FB7D42"/>
</linearGradient>
<linearGradient id="paint11_linear_703_4791" x1="42.8282" y1="48.5383" x2="64.908" y2="48.5383" gradientUnits="userSpaceOnUse">
<stop stop-color="#F6462E"/>
<stop offset="1" stop-color="#FB7D42"/>
</linearGradient>
<linearGradient id="paint12_linear_703_4791" x1="39.8556" y1="42.3733" x2="67.8825" y2="42.3733" gradientUnits="userSpaceOnUse">
<stop stop-color="#F6462E"/>
<stop offset="1" stop-color="#FB7D42"/>
</linearGradient>
<linearGradient id="paint13_linear_703_4791" x1="42.8282" y1="36.209" x2="64.908" y2="36.209" gradientUnits="userSpaceOnUse">
<stop stop-color="#F6462E"/>
<stop offset="1" stop-color="#FB7D42"/>
</linearGradient>
<linearGradient id="paint14_linear_703_4791" x1="47.2067" y1="30.0415" x2="60.5301" y2="30.0415" gradientUnits="userSpaceOnUse">
<stop stop-color="#F6462E"/>
<stop offset="1" stop-color="#FB7D42"/>
</linearGradient>
<linearGradient id="paint15_linear_703_4791" x1="47.2067" y1="10.0168" x2="60.5301" y2="10.0168" gradientUnits="userSpaceOnUse">
<stop stop-color="#F6462E"/>
<stop offset="1" stop-color="#FB7D42"/>
</linearGradient>
<linearGradient id="paint16_linear_703_4791" x1="39.8556" y1="3.85205" x2="67.8825" y2="3.85205" gradientUnits="userSpaceOnUse">
<stop stop-color="#F6462E"/>
<stop offset="1" stop-color="#FB7D42"/>
</linearGradient>
<linearGradient id="paint17_linear_703_4791" x1="29.9115" y1="67.1694" x2="77.2734" y2="67.1694" gradientUnits="userSpaceOnUse">
<stop stop-color="#F6462E"/>
<stop offset="1" stop-color="#FB7D42"/>
</linearGradient>
<linearGradient id="paint18_linear_703_4791" x1="29.2254" y1="67.5128" x2="77.9574" y2="67.5128" gradientUnits="userSpaceOnUse">
<stop stop-color="#237C8F"/>
<stop offset="1" stop-color="#2ABDD1"/>
</linearGradient>
<linearGradient id="paint19_linear_703_4791" x1="271.156" y1="41.8908" x2="273.174" y2="41.8908" gradientUnits="userSpaceOnUse">
<stop stop-color="#0E218A"/>
<stop offset="1" stop-color="#1F72D2"/>
</linearGradient>
<linearGradient id="paint20_linear_703_4791" x1="275.418" y1="41.8908" x2="277.439" y2="41.8908" gradientUnits="userSpaceOnUse">
<stop stop-color="#F6462E"/>
<stop offset="1" stop-color="#FB7D42"/>
</linearGradient>
<linearGradient id="paint21_linear_703_4791" x1="143.114" y1="108.215" x2="273.244" y2="108.215" gradientUnits="userSpaceOnUse">
<stop stop-color="#F6462E"/>
<stop offset="1" stop-color="#FB7D42"/>
</linearGradient>
<linearGradient id="paint22_linear_703_4791" x1="166.225" y1="113.287" x2="169.594" y2="113.287" gradientUnits="userSpaceOnUse">
<stop stop-color="#CAF0DB"/>
<stop offset="1" stop-color="#F8F7DB"/>
</linearGradient>
<linearGradient id="paint23_linear_703_4791" x1="165.315" y1="113.286" x2="170.503" y2="113.286" gradientUnits="userSpaceOnUse">
<stop stop-color="#CAF0DB"/>
<stop offset="1" stop-color="#F8F7DB"/>
</linearGradient>
<linearGradient id="paint24_linear_703_4791" x1="196.833" y1="119.874" x2="201.55" y2="119.874" gradientUnits="userSpaceOnUse">
<stop stop-color="#CAF0DB"/>
<stop offset="1" stop-color="#F8F7DB"/>
</linearGradient>
<linearGradient id="paint25_linear_703_4791" x1="195.559" y1="119.872" x2="202.82" y2="119.872" gradientUnits="userSpaceOnUse">
<stop stop-color="#CAF0DB"/>
<stop offset="1" stop-color="#F8F7DB"/>
</linearGradient>
<linearGradient id="paint26_linear_703_4791" x1="189.833" y1="85.5812" x2="193.095" y2="85.5812" gradientUnits="userSpaceOnUse">
<stop stop-color="#CAF0DB"/>
<stop offset="1" stop-color="#F8F7DB"/>
</linearGradient>
<linearGradient id="paint27_linear_703_4791" x1="188.95" y1="85.5814" x2="193.977" y2="85.5814" gradientUnits="userSpaceOnUse">
<stop stop-color="#CAF0DB"/>
<stop offset="1" stop-color="#F8F7DB"/>
</linearGradient>
<linearGradient id="paint28_linear_703_4791" x1="224.715" y1="96.3699" x2="230.164" y2="96.3699" gradientUnits="userSpaceOnUse">
<stop stop-color="#CAF0DB"/>
<stop offset="1" stop-color="#F8F7DB"/>
</linearGradient>
<linearGradient id="paint29_linear_703_4791" x1="223.242" y1="96.3696" x2="231.633" y2="96.3696" gradientUnits="userSpaceOnUse">
<stop stop-color="#CAF0DB"/>
<stop offset="1" stop-color="#F8F7DB"/>
</linearGradient>
<linearGradient id="paint30_linear_703_4791" x1="253.108" y1="105.145" x2="256.248" y2="105.145" gradientUnits="userSpaceOnUse">
<stop stop-color="#CAF0DB"/>
<stop offset="1" stop-color="#F8F7DB"/>
</linearGradient>
<linearGradient id="paint31_linear_703_4791" x1="252.257" y1="105.145" x2="257.098" y2="105.145" gradientUnits="userSpaceOnUse">
<stop stop-color="#CAF0DB"/>
<stop offset="1" stop-color="#F8F7DB"/>
</linearGradient>
<linearGradient id="paint32_linear_703_4791" x1="236.92" y1="127.656" x2="240.187" y2="127.656" gradientUnits="userSpaceOnUse">
<stop stop-color="#CAF0DB"/>
<stop offset="1" stop-color="#F8F7DB"/>
</linearGradient>
<linearGradient id="paint33_linear_703_4791" x1="236.038" y1="127.656" x2="241.07" y2="127.656" gradientUnits="userSpaceOnUse">
<stop stop-color="#CAF0DB"/>
<stop offset="1" stop-color="#F8F7DB"/>
</linearGradient>
<linearGradient id="paint34_linear_703_4791" x1="263.341" y1="127.491" x2="265.871" y2="127.491" gradientUnits="userSpaceOnUse">
<stop stop-color="#CAF0DB"/>
<stop offset="1" stop-color="#F8F7DB"/>
</linearGradient>
<linearGradient id="paint35_linear_703_4791" x1="262.658" y1="127.491" x2="266.555" y2="127.491" gradientUnits="userSpaceOnUse">
<stop stop-color="#CAF0DB"/>
<stop offset="1" stop-color="#F8F7DB"/>
</linearGradient>
<linearGradient id="paint36_linear_703_4791" x1="197.619" y1="173.452" x2="198.829" y2="165.678" gradientUnits="userSpaceOnUse">
<stop stop-color="#EBEAE5"/>
<stop offset="1" stop-color="#ABAFB8"/>
</linearGradient>
<linearGradient id="paint37_linear_703_4791" x1="170.973" y1="135.165" x2="172.133" y2="127.707" gradientUnits="userSpaceOnUse">
<stop stop-color="#EBEAE5"/>
<stop offset="1" stop-color="#ABAFB8"/>
</linearGradient>
<linearGradient id="paint38_linear_703_4791" x1="170.493" y1="134.464" x2="171.655" y2="126.997" gradientUnits="userSpaceOnUse">
<stop stop-color="#EBEAE5"/>
<stop offset="1" stop-color="#ABAFB8"/>
</linearGradient>
<linearGradient id="paint39_linear_703_4791" x1="152.558" y1="134.888" x2="160.358" y2="84.7541" gradientUnits="userSpaceOnUse">
<stop stop-color="#EBEAE5"/>
<stop offset="1" stop-color="#ABAFB8"/>
</linearGradient>
<linearGradient id="paint40_linear_703_4791" x1="182.766" y1="169.208" x2="188.303" y2="133.615" gradientUnits="userSpaceOnUse">
<stop stop-color="#237C8F"/>
<stop offset="1" stop-color="#2ABDD1"/>
</linearGradient>
<linearGradient id="paint41_linear_703_4791" x1="153.159" y1="131.024" x2="159.756" y2="88.6184" gradientUnits="userSpaceOnUse">
<stop stop-color="#0E218A"/>
<stop offset="1" stop-color="#1F72D2"/>
</linearGradient>
<linearGradient id="paint42_linear_703_4791" x1="74.6552" y1="299.714" x2="74.6552" y2="137.607" gradientUnits="userSpaceOnUse">
<stop stop-color="#0E218A"/>
<stop offset="1" stop-color="#1F72D2"/>
</linearGradient>
<linearGradient id="paint43_linear_703_4791" x1="31.7389" y1="89.0768" x2="51.6864" y2="89.0768" gradientUnits="userSpaceOnUse">
<stop stop-color="#0E218A"/>
<stop offset="1" stop-color="#1F72D2"/>
</linearGradient>
<linearGradient id="paint44_linear_703_4791" x1="65.582" y1="444.911" x2="70.4995" y2="288.578" gradientUnits="userSpaceOnUse">
<stop stop-color="#F6462E"/>
<stop offset="1" stop-color="#FB7D42"/>
</linearGradient>
<linearGradient id="paint45_linear_703_4791" x1="95.2742" y1="445.844" x2="100.191" y2="289.512" gradientUnits="userSpaceOnUse">
<stop stop-color="#F6462E"/>
<stop offset="1" stop-color="#FB7D42"/>
</linearGradient>
<linearGradient id="paint46_linear_703_4791" x1="70.1883" y1="310.921" x2="122.447" y2="144.718" gradientUnits="userSpaceOnUse">
<stop stop-color="#0E218A"/>
<stop offset="1" stop-color="#1F72D2"/>
</linearGradient>
<linearGradient id="paint47_linear_703_4791" x1="180.638" y1="177.832" x2="185.88" y2="146.762" gradientUnits="userSpaceOnUse">
<stop stop-color="#0E218A"/>
<stop offset="1" stop-color="#1F72D2"/>
</linearGradient>
<linearGradient id="paint48_linear_703_4791" x1="50.8033" y1="305.278" x2="146.981" y2="160.047" gradientUnits="userSpaceOnUse">
<stop stop-color="#0E218A"/>
<stop offset="1" stop-color="#1F72D2"/>
</linearGradient>
<linearGradient id="paint49_linear_703_4791" x1="183.945" y1="183.651" x2="190.842" y2="142.774" gradientUnits="userSpaceOnUse">
<stop stop-color="#0E218A"/>
<stop offset="1" stop-color="#1F72D2"/>
</linearGradient>
<linearGradient id="paint50_linear_703_4791" x1="204.947" y1="252.345" x2="257.562" y2="252.345" gradientUnits="userSpaceOnUse">
<stop stop-color="#EBEAE5"/>
<stop offset="1" stop-color="#ABAFB8"/>
</linearGradient>
<linearGradient id="paint51_linear_703_4791" x1="204.699" y1="214.86" x2="254.704" y2="214.86" gradientUnits="userSpaceOnUse">
<stop stop-color="#EBEAE5"/>
<stop offset="1" stop-color="#ABAFB8"/>
</linearGradient>
<linearGradient id="paint52_linear_703_4791" x1="220.861" y1="223.956" x2="223.889" y2="223.956" gradientUnits="userSpaceOnUse">
<stop stop-color="#0E218A"/>
<stop offset="1" stop-color="#1F72D2"/>
</linearGradient>
<linearGradient id="paint53_linear_703_4791" x1="213.138" y1="200.612" x2="232.037" y2="200.612" gradientUnits="userSpaceOnUse">
<stop stop-color="#0E218A"/>
<stop offset="1" stop-color="#1F72D2"/>
</linearGradient>
<linearGradient id="paint54_linear_703_4791" x1="249.97" y1="255.595" x2="260.128" y2="255.595" gradientUnits="userSpaceOnUse">
<stop stop-color="#0E218A"/>
<stop offset="1" stop-color="#1F72D2"/>
</linearGradient>
</defs>
</svg>
