<svg width="738" height="154" viewBox="0 0 738 154" fill="none" xmlns="http://www.w3.org/2000/svg">
<path opacity="0.34" d="M769.493 149.704C783.293 120.643 742.953 83.13 690.793 47.6425C638.633 12.1453 573.833 -23.2253 531.143 -58.6836C488.453 -94.1419 470.013 -131.187 514.303 -152.781C531.453 -161.145 557.153 -166.801 574.993 -174.96C605.183 -188.775 611.193 -209.834 591.473 -232.713C571.753 -255.593 526.513 -280.059 467.383 -299.823C606.253 -271.443 746.443 -245.37 886.943 -221.77C871.463 -215.958 870.653 -206.154 869.803 -196.827C864.453 -138.178 841.813 -82.5075 819.203 -26.9348C811.333 -7.58946 803.463 11.7461 795.593 31.0914C787.763 50.3296 779.893 69.6262 762.793 86.888C748.493 101.326 728.043 116.222 751.613 135.616" fill="url(#paint0_linear_377_89)"/>
<path opacity="0.57" d="M736.933 9.60433C745.023 13.3916 752.883 17.2178 760.473 21.0733C781.223 31.6075 800.333 42.9986 794.593 52.2185C789.953 59.6763 769.053 63.2201 743.973 62.7528C718.893 62.2855 690.173 58.2353 662.803 52.8611C604.643 41.4506 550.703 24.033 508.263 5.19395C428.543 -30.1962 392.133 -68.2831 352.953 -104.53C317.473 -137.36 278.123 -170.403 229.323 -203.389C205.893 -219.219 178.373 -235.858 136.683 -248.729C92.3233 -262.418 26.9833 -269.71 6.58334 -257.774C-9.65666 -248.281 10.4834 -231.039 41.3534 -217.097C87.0834 -196.457 151.833 -177.238 209.473 -160.336C328.323 -125.491 452.933 -93.801 566.363 -56.2982C628.483 -35.7651 687.183 -13.7035 736.943 9.60433H736.933Z" fill="url(#paint1_linear_377_89)"/>
<path opacity="0.34" d="M919.583 101.687C924.313 106.321 928.683 110.975 932.663 115.629C943.513 128.354 950.843 141.799 928.623 150.717C910.663 157.922 877.333 159.616 844.803 156.802C812.273 153.988 780.593 147.163 752.783 139.112C693.693 122.006 649.693 99.1457 623.223 75.8963C573.483 32.2209 585.453 -10.1791 590.843 -50.9629C595.723 -87.8913 595.833 -125.414 583.283 -163.734C577.263 -182.135 567.093 -201.743 532.143 -218.801C494.963 -236.958 419.833 -250.501 373.873 -240.181C337.303 -231.964 336.733 -212.424 355.633 -195.279C383.623 -169.878 439.103 -144.165 488.813 -121.48C591.323 -74.7186 706.463 -30.6635 797.593 18.3082C847.503 45.1307 890.463 73.1897 919.573 101.697L919.583 101.687Z" fill="url(#paint2_linear_377_89)"/>
<path opacity="0.52" d="M853.333 230.454C852.063 234.018 850.423 237.513 848.393 240.95C842.833 250.325 832.903 259.487 799.903 260.655C773.223 261.6 738.553 256.547 710.393 249.011C682.223 241.475 659.983 231.759 643.073 222.033C607.143 201.363 593.243 180.071 596.923 161.728C603.853 127.273 669.363 104.744 726.413 81.9618C778.073 61.3313 825.813 39.4936 862.243 14.9006C879.733 3.09096 894.703 -10.1694 882.273 -26.4479C869.053 -43.7584 812.933 -65.2748 754.993 -67.5822C708.873 -69.4223 683.513 -58.1481 680.173 -44.732C675.223 -24.8609 696.703 0.170188 716.413 22.3973C757.053 68.2146 813.453 114.752 840.193 159.791C854.833 184.462 861.123 208.587 853.333 230.474V230.454Z" fill="url(#paint3_linear_377_89)"/>
<path opacity="0.57" d="M1064.23 243.646C1001.2 226.667 937.393 202.356 893.823 178.737C818.233 137.748 809.563 104.276 739.583 63.6191C710.413 46.6785 671.723 29.222 630.113 12.8656C571.313 -10.2572 502.703 -32.387 442.173 -43.8462C408.213 -50.2816 375.083 -52.3651 377.133 -42.7752" stroke="white" stroke-width="2" stroke-miterlimit="10"/>
<path opacity="0.57" d="M1055.95 245.369C993.723 227.699 933.103 204.06 891.783 180.577C889.893 179.496 888.073 178.377 886.273 177.306C826.193 141.507 817.043 113.428 771.983 79.4789C763.573 73.1408 753.903 66.6859 742.583 60.0071C713.503 42.9108 674.603 25.2692 632.273 8.91286C573.693 -13.84 505.663 -35.483 445.963 -46.5917C412.543 -52.8227 380.093 -54.8088 381.423 -45.5597" stroke="white" stroke-width="2" stroke-miterlimit="10"/>
<path opacity="0.57" d="M1047.68 247.092C983.543 228 923.323 203.631 883.993 179.35C882.153 178.22 880.443 177.003 878.733 175.874C822.083 138.761 820.033 111.685 774.963 76.3046C766.723 69.84 757.033 63.2488 745.583 56.3947C716.593 39.1523 677.483 21.3063 634.433 4.95971C576.073 -17.4329 508.623 -38.5794 449.763 -49.3473C416.883 -55.3739 385.103 -57.2626 385.713 -48.3445" stroke="white" stroke-width="2" stroke-miterlimit="10"/>
<path opacity="0.56" d="M1039.41 248.816C973.363 228.312 913.533 203.164 876.203 178.123C874.423 176.935 872.823 175.621 871.193 174.443C817.983 136.064 823.023 109.962 777.933 73.1309C769.863 66.5397 760.153 59.8122 748.583 52.7926C719.683 35.4042 680.313 17.4706 636.593 1.01687C578.393 -20.8792 511.593 -41.6655 453.553 -52.0829C421.213 -57.905 390.113 -59.6964 390.003 -51.1093" stroke="white" stroke-width="2" stroke-miterlimit="10"/>
<path opacity="0.56" d="M1031.14 250.539C963.183 228.614 903.743 202.638 868.413 176.897C866.693 175.641 865.193 174.239 863.643 173.012C813.883 133.435 825.983 108.258 780.903 69.9473C773.003 63.2295 763.283 56.3365 751.573 49.1806C722.813 31.578 683.173 13.5373 638.743 -2.92617C580.743 -24.4231 514.543 -44.7615 457.343 -54.8284C425.543 -60.4461 395.123 -62.1499 394.283 -53.884" stroke="white" stroke-width="2" stroke-miterlimit="10"/>
<path opacity="0.56" d="M1022.87 252.272C953.003 228.925 893.963 202.064 860.623 175.68C858.963 174.365 857.563 172.876 856.103 171.591C809.783 130.894 828.953 106.593 783.883 66.7832C776.143 59.9486 766.413 52.9095 754.583 45.5784C725.913 27.82 686.053 9.61381 640.913 -6.86913C583.113 -27.9766 517.513 -47.8477 461.143 -57.5641C429.893 -62.9773 400.133 -64.5837 398.583 -56.6587" stroke="white" stroke-width="2" stroke-miterlimit="10"/>
<path opacity="0.56" d="M1014.6 253.996C942.813 229.237 884.203 201.441 852.833 174.453C851.223 173.071 849.943 171.503 848.553 170.16C805.663 128.402 831.893 104.929 786.853 63.6095C779.283 56.6678 769.533 49.4632 757.583 41.9763C729.013 24.0622 688.923 5.69047 643.063 -10.8119C585.473 -31.53 520.463 -50.9337 464.923 -60.2997C434.213 -65.5084 405.133 -67.0175 402.853 -59.4235" stroke="white" stroke-width="2" stroke-miterlimit="10"/>
<path opacity="0.55" d="M1006.33 255.719C932.633 229.539 874.463 200.759 845.043 173.226C843.493 171.775 842.313 170.13 841.013 168.728C801.523 125.997 834.843 103.283 789.833 60.4256C782.423 53.367 772.663 46.0164 760.583 38.3542C732.103 20.2843 691.803 1.73739 645.223 -14.7748C587.843 -35.1131 523.433 -54.0495 468.723 -63.065C438.553 -68.0693 410.153 -69.481 407.153 -62.218" stroke="white" stroke-width="2" stroke-miterlimit="10"/>
<path opacity="0.55" d="M998.063 257.442C922.453 229.841 864.753 200.019 837.253 171.999C835.763 170.481 834.693 168.767 833.473 167.297C797.353 123.66 837.763 101.648 792.813 57.2517C785.563 50.086 775.793 42.5796 763.593 34.7519C735.203 16.536 694.683 -2.19597 647.393 -18.7179C590.223 -38.6863 526.403 -57.1358 472.523 -65.8008C442.893 -70.6104 415.173 -71.915 411.443 -64.983" stroke="white" stroke-width="2" stroke-miterlimit="10"/>
<path opacity="0.55" d="M989.793 259.165C912.273 230.142 855.063 199.25 829.463 170.773C828.033 169.186 827.063 167.404 825.923 165.866C793.113 121.392 840.673 100.041 795.783 54.0777C788.683 46.8147 778.903 39.133 766.593 31.1398C738.303 12.7779 697.563 -6.13906 649.553 -22.6609C592.603 -42.2594 529.363 -60.2222 476.323 -68.5464C447.233 -73.1515 420.183 -74.3685 415.743 -67.7675" stroke="white" stroke-width="2" stroke-miterlimit="10"/>
<path opacity="0.55" d="M981.523 260.899C902.093 230.464 845.413 198.433 821.673 169.566C820.303 167.901 819.433 166.051 818.383 164.445C788.833 119.202 843.563 98.4544 798.763 50.9041C791.823 43.534 782.033 35.6966 769.593 27.5379C741.393 9.02015 700.433 -10.0817 651.713 -26.6036C594.983 -45.8418 532.323 -63.3178 480.113 -71.2818C451.563 -75.6825 425.193 -76.8021 420.033 -70.5322" stroke="white" stroke-width="2" stroke-miterlimit="10"/>
<path opacity="0.54" d="M973.253 262.622C891.903 230.766 835.803 197.576 813.883 168.339C812.583 166.596 811.803 164.698 810.843 163.013C784.493 117.05 846.443 96.8674 801.743 47.7301C794.953 40.2627 785.163 32.2597 772.603 23.9258C744.493 5.27173 703.323 -14.0347 653.883 -30.5565C597.363 -49.4345 535.293 -66.414 483.913 -74.0275C455.913 -78.2237 430.213 -79.2459 424.323 -73.307" stroke="white" stroke-width="2" stroke-miterlimit="10"/>
<path opacity="0.54" d="M964.973 264.345C881.713 231.067 826.233 196.69 806.083 167.112C804.843 165.291 804.153 163.335 803.283 161.582C780.053 114.927 849.283 95.2998 804.703 44.5562C798.053 36.9913 788.263 28.8229 775.593 20.3234C747.563 1.52331 706.193 -17.9875 656.023 -34.4996C599.723 -53.0271 538.243 -69.5003 487.693 -76.7731C460.233 -80.7648 435.203 -81.6897 428.603 -76.0818" stroke="white" stroke-width="2" stroke-miterlimit="10"/>
<path opacity="0.54" d="M956.703 266.068C871.533 231.369 816.713 195.774 798.293 165.885C797.123 163.987 796.513 161.971 795.743 160.151C775.553 112.844 852.133 93.7516 807.673 41.382C801.173 33.7198 791.383 25.3956 778.583 16.7112C750.643 -2.23495 709.073 -21.9502 658.173 -38.4526C602.093 -56.6296 541.193 -72.5966 491.473 -79.5188C464.553 -83.3061 440.203 -84.1336 432.873 -78.8665" stroke="white" stroke-width="2" stroke-miterlimit="10"/>
<path opacity="0.54" d="M948.433 267.801C861.353 231.691 807.243 194.86 790.503 164.669C789.403 162.692 788.873 160.618 788.193 158.73C770.973 110.77 854.943 92.2234 810.643 38.2085C804.283 30.4586 794.493 21.9592 781.583 13.1092C753.733 -5.97322 711.953 -25.9124 660.333 -42.3856C604.483 -60.2121 544.153 -75.6825 495.273 -82.2543C468.893 -85.8371 445.223 -86.577 437.173 -81.6312" stroke="white" stroke-width="2" stroke-miterlimit="10"/>
<path opacity="0.53" d="M940.163 269.524C851.173 231.992 797.813 193.925 782.713 163.442C781.693 161.387 781.233 159.265 780.653 157.298C766.333 108.687 857.743 90.6948 813.623 35.0345C807.403 27.1873 797.623 18.5223 784.583 9.50683C756.813 -9.7119 714.833 -29.875 662.493 -46.3288C606.863 -63.8145 547.113 -78.7689 499.063 -84.9902C473.223 -88.3783 450.233 -89.0111 441.453 -84.3963" stroke="white" stroke-width="2" stroke-miterlimit="10"/>
<path opacity="0.53" d="M931.893 271.247C840.993 232.294 788.433 192.99 774.933 162.215C773.993 160.073 773.593 157.902 773.123 155.867C761.623 106.584 860.533 89.1757 816.613 31.8603C810.533 23.9255 800.753 15.0852 787.603 5.89451C759.913 -13.4703 717.743 -33.8476 664.673 -50.2818C609.273 -67.4365 550.093 -81.8652 502.873 -87.7457C477.573 -90.9294 455.253 -91.4648 445.763 -87.181" stroke="white" stroke-width="2" stroke-miterlimit="10"/>
<path opacity="0.53" d="M923.623 272.971C830.803 232.596 779.093 192.056 767.143 160.988C766.293 158.769 765.943 156.539 765.573 154.436C756.843 104.442 863.283 87.667 819.583 28.677C813.633 20.6448 803.863 11.6488 790.603 2.28285C762.993 -17.2085 720.633 -37.8292 666.833 -54.2343C611.653 -71.0482 553.063 -84.9706 506.673 -90.4909C481.923 -93.4701 460.273 -93.9082 450.063 -89.9554" stroke="white" stroke-width="2" stroke-miterlimit="10"/>
<path opacity="0.53" d="M915.353 274.694C820.623 232.907 769.803 191.14 759.353 159.761C758.583 157.454 758.293 155.176 758.033 153.005C752.013 102.28 866.023 86.1674 822.563 25.5028C816.743 17.383 806.973 8.24099 793.603 -1.32943C766.043 -20.9181 723.523 -41.8212 668.983 -58.1873C614.033 -74.68 556.013 -88.0669 510.453 -93.2367C486.243 -96.0114 465.273 -96.3522 454.333 -92.7401" stroke="white" stroke-width="2" stroke-miterlimit="10"/>
<path opacity="0.52" d="M907.083 276.427C810.443 233.219 760.543 190.254 751.563 158.554C750.883 156.169 750.633 153.832 750.483 151.593C747.133 100.08 868.733 84.6973 825.533 22.3483C819.843 14.141 810.093 4.82366 796.603 -4.91227C769.133 -24.647 726.433 -45.8616 671.143 -62.1012C616.443 -78.3504 558.973 -91.124 514.253 -95.953C490.583 -98.5233 470.283 -98.7764 458.633 -95.4857" stroke="white" stroke-width="2" stroke-miterlimit="10"/>
<path opacity="0.52" d="M898.813 278.15C800.263 233.521 751.323 189.378 743.773 157.327C743.193 154.864 742.973 152.469 742.943 150.152C742.223 97.8017 871.423 83.2076 828.513 19.1548C822.953 10.8598 813.213 1.36728 799.613 -8.5439C772.233 -28.4247 729.323 -49.8437 673.313 -66.0735C618.833 -81.9528 561.943 -94.2493 518.053 -98.7181C494.923 -101.084 475.303 -101.24 462.923 -98.28" stroke="white" stroke-width="2" stroke-miterlimit="10"/>
<path opacity="0.52" d="M890.543 279.873C790.083 233.823 742.133 188.541 735.983 156.101C724.703 96.614 875.993 84.6777 831.483 15.981C815.253 -9.06957 760.733 -45.628 675.463 -70.0165C592.733 -93.6748 505.283 -108.688 467.203 -101.055" stroke="white" stroke-width="2" stroke-miterlimit="10"/>
<defs>
<linearGradient id="paint0_linear_377_89" x1="589.425" y1="109.742" x2="673.964" y2="-269.081" gradientUnits="userSpaceOnUse">
<stop stop-color="#00A388"/>
<stop offset="0.29" stop-color="#02A089"/>
<stop offset="0.49" stop-color="#0B998C"/>
<stop offset="0.66" stop-color="#1B8D92"/>
<stop offset="0.81" stop-color="#307D9A"/>
<stop offset="0.96" stop-color="#4C67A5"/>
<stop offset="1" stop-color="#5660A9"/>
</linearGradient>
<linearGradient id="paint1_linear_377_89" x1="315.945" y1="-324.945" x2="458.8" y2="89.4894" gradientUnits="userSpaceOnUse">
<stop stop-color="#00A388"/>
<stop offset="0.29" stop-color="#02A089"/>
<stop offset="0.49" stop-color="#0B998C"/>
<stop offset="0.66" stop-color="#1B8D92"/>
<stop offset="0.81" stop-color="#307D9A"/>
<stop offset="0.96" stop-color="#4C67A5"/>
<stop offset="1" stop-color="#5660A9"/>
</linearGradient>
<linearGradient id="paint2_linear_377_89" x1="723.019" y1="-349.472" x2="759.182" y2="30.1932" gradientUnits="userSpaceOnUse">
<stop stop-color="#5660A9"/>
<stop offset="0.04" stop-color="#4C67A5"/>
<stop offset="0.19" stop-color="#307D9A"/>
<stop offset="0.34" stop-color="#1B8D92"/>
<stop offset="0.51" stop-color="#0B998C"/>
<stop offset="0.71" stop-color="#02A089"/>
<stop offset="1" stop-color="#00A388"/>
</linearGradient>
<linearGradient id="paint3_linear_377_89" x1="661.772" y1="36.1674" x2="952.494" y2="-138.445" gradientUnits="userSpaceOnUse">
<stop stop-color="#00A8E8"/>
<stop offset="1" stop-color="#FFEF58"/>
</linearGradient>
</defs>
</svg>
