<svg width="625" height="154" viewBox="0 0 625 154" fill="none" xmlns="http://www.w3.org/2000/svg">
<path opacity="0.52" d="M-97.5194 193.814C-116.529 168.354 -88.9894 139.721 -57.4294 118.477C22.4506 64.7152 135.571 26.5893 258.111 12.1022C325.171 4.17717 394.561 3.13544 460.991 -6.31815C527.421 -15.7718 593.751 -35.7402 624.451 -69.8841C533.031 -50.1201 430.391 -53.7808 334.691 -65.6976C238.991 -77.6144 146.911 -97.3881 51.2906 -109.5C22.4506 -113.151 -7.78937 -116.091 -36.4694 -112.06C-65.0894 -108.039 -89.1994 -97.4952 -111.189 -86.5228C-129.849 -77.2152 -147.989 -67.1775 -159.709 -54.8421C-181.729 -31.6608 -178.129 -3.22211 -163.339 21.6824C-148.549 46.5869 -123.609 69.1548 -103.279 92.8131C-92.2194 105.674 -82.3094 119.412 -83.1394 133.665C-83.9694 147.919 -98.1094 162.805 -122.309 167.459" fill="url(#paint0_linear_304_1335)"/>
<path opacity="0.57" d="M232.951 205.876C236.351 208.544 239.611 211.27 242.721 214.055C251.211 221.658 258.531 230.226 252.601 239.407C247.811 246.836 235.091 252.336 221.221 254.546C207.351 256.756 192.501 256.026 178.791 253.923C149.671 249.454 124.661 238.969 106.501 225.932C72.3908 201.456 63.2708 169.902 52.0608 140.344C41.9108 113.58 29.6608 87.0104 12.1108 61.512C3.69082 49.2739 -6.77917 36.7048 -26.2892 29.1497C-47.0392 21.1079 -81.3892 21.2344 -96.2992 34.4753C-108.169 45.0193 -101.989 58.9222 -88.8592 68.6095C-69.3992 82.97 -38.8892 93.9911 -11.6692 103.62C44.4508 123.462 104.731 139.76 157.041 162.639C185.691 175.169 211.991 189.471 232.911 205.886L232.951 205.876Z" fill="url(#paint1_linear_304_1335)"/>
<path opacity="0.57" d="M544.821 128.485C461.091 140.626 367.891 145.552 295.911 141.658C171.021 134.891 122.551 104.369 3.71078 95.305C-45.8192 91.5274 -105.559 91.7124 -166.939 94.3995C-253.679 98.1965 -349.149 107.64 -423.799 124.308C-465.689 133.665 -501.579 147.11 -488.129 156.057" stroke="white" stroke-width="2" stroke-miterlimit="10"/>
<path opacity="0.57" d="M538.531 134.161C453.611 145.708 360.921 149.845 289.741 145.299C266.611 143.741 246.211 141.424 227.681 138.464C144.811 125.184 103.761 99.8708 5.43063 90.8943C-43.3294 86.4352 -103.189 86.3573 -165.269 88.986C-193.339 90.1836 -222.369 92.0139 -251.369 94.555C-311.909 99.8611 -371.999 108.02 -422.299 119.391C-463.859 128.777 -499.309 142.115 -487.099 151.16" stroke="white" stroke-width="2" stroke-miterlimit="10"/>
<path opacity="0.57" d="M532.241 139.847C446.131 150.81 353.941 154.373 283.571 148.95C260.391 147.168 240.061 144.51 221.791 141.171C138.901 126.012 106.941 97.0964 7.15097 86.4842C-40.839 81.3826 -100.829 81.0028 -163.599 83.5731C-191.639 84.7414 -220.689 86.5816 -249.769 89.1908C-310.469 94.6429 -370.659 102.987 -420.789 114.475C-462.029 123.899 -497.029 137.121 -486.059 146.263" stroke="white" stroke-width="2" stroke-miterlimit="10"/>
<path opacity="0.56" d="M525.941 145.523C438.651 155.901 346.951 158.754 277.391 152.591C254.161 150.537 233.901 147.577 215.891 143.868C132.981 126.801 110.131 94.3315 8.87085 82.0642C-38.3492 76.3394 -98.4691 75.6287 -161.929 78.1503C-189.949 79.2797 -219.019 81.1393 -248.179 83.8264C-309.049 89.4245 -369.329 97.963 -419.289 109.558C-460.199 119.022 -494.759 132.126 -485.029 141.366" stroke="white" stroke-width="2" stroke-miterlimit="10"/>
<path opacity="0.56" d="M519.651 151.209C431.171 160.993 339.971 163.135 271.231 156.242C247.951 153.915 227.761 150.654 210.011 146.584C127.081 127.58 113.341 91.6345 10.6008 77.6635C-35.8392 71.3546 -96.0992 70.2836 -160.259 72.7371C-188.259 73.8372 -217.349 75.7065 -246.589 78.4618C-307.619 84.2157 -367.999 92.9391 -417.789 104.651C-458.369 114.154 -492.489 127.141 -483.999 136.488" stroke="white" stroke-width="2" stroke-miterlimit="10"/>
<path opacity="0.56" d="M513.351 156.884C423.681 166.085 332.981 167.487 265.051 159.893C241.721 157.284 221.601 153.71 204.121 149.29C121.161 128.319 116.551 88.9568 12.3207 73.2624C-33.3493 66.3791 -93.7293 64.9382 -158.589 67.3333C-186.559 68.3945 -215.679 70.2735 -244.999 73.1067C-306.199 79.0066 -366.669 87.9248 -416.289 99.7442C-456.549 109.285 -490.219 122.156 -482.969 131.6" stroke="white" stroke-width="2" stroke-miterlimit="10"/>
<path opacity="0.56" d="M507.061 162.57C416.211 171.187 325.991 171.849 258.881 163.544C235.501 160.652 215.451 156.768 198.231 152.007C115.241 129.049 119.751 86.3379 14.0509 68.8619C-30.8391 61.4432 -91.3591 59.5933 -156.909 61.93C-184.859 62.962 -213.989 64.8507 -243.399 67.752C-304.759 73.8078 -365.329 82.9109 -414.779 94.8374C-454.709 104.408 -487.939 117.172 -481.929 126.713" stroke="white" stroke-width="2" stroke-miterlimit="10"/>
<path opacity="0.55" d="M500.771 168.247C408.731 176.279 319.011 176.181 252.711 167.185C229.281 164.011 209.301 159.815 192.341 154.704C109.321 129.722 122.961 83.7387 15.7706 64.4421C-28.3494 56.4976 -88.9994 54.2194 -155.239 56.5073C-183.169 57.5101 -212.319 59.4086 -241.809 62.3781C-303.329 68.5799 -363.999 77.8777 -413.269 89.9113C-452.879 99.5207 -485.659 112.168 -480.889 121.806" stroke="white" stroke-width="2" stroke-miterlimit="10"/>
<path opacity="0.55" d="M494.471 173.932C401.241 181.371 312.021 180.514 246.531 170.836C223.051 167.37 203.141 162.853 186.441 157.42C103.401 130.393 126.161 81.1975 17.4808 60.0413C-25.8692 51.6003 -86.6492 48.8742 -153.589 51.1037C-181.489 52.0676 -210.669 53.9856 -240.239 57.0329C-301.929 63.3905 -362.689 72.8733 -411.789 85.014C-451.069 94.6623 -483.409 107.192 -479.869 116.938" stroke="white" stroke-width="2" stroke-miterlimit="10"/>
<path opacity="0.55" d="M488.181 179.608C393.771 186.463 305.051 184.827 240.361 174.478C216.831 170.72 196.991 165.881 180.551 160.117C97.4907 131.007 129.361 78.6858 19.2108 55.6213C-23.3692 46.7032 -84.2692 43.5099 -151.909 45.681C-179.789 46.6156 -208.989 48.5433 -238.639 51.6588C-300.489 58.1624 -361.349 67.8399 -410.279 80.0878C-449.229 89.775 -481.139 102.188 -478.829 112.031" stroke="white" stroke-width="2" stroke-miterlimit="10"/>
<path opacity="0.55" d="M481.881 185.294C386.281 191.564 298.061 189.13 234.191 178.128C210.611 174.069 190.841 168.918 174.661 162.833C91.5908 131.62 132.551 76.2419 20.9308 51.2303C-20.8892 41.8546 -81.9092 38.1646 -150.239 40.2773C-178.099 41.173 -207.319 43.1105 -237.049 46.3039C-299.069 52.9535 -360.019 62.8258 -408.779 75.1807C-447.409 84.9069 -478.869 97.1936 -477.799 107.144" stroke="white" stroke-width="2" stroke-miterlimit="10"/>
<path opacity="0.54" d="M475.591 190.97C378.801 196.646 291.081 193.413 228.021 181.779C204.391 177.417 184.701 171.936 168.771 165.539C85.711 132.184 135.731 73.8269 22.651 46.8194C-18.409 37.0056 -79.5491 32.8094 -148.569 34.8637C-176.399 35.7302 -205.639 37.6774 -235.459 40.939C-297.639 47.7444 -358.689 57.8016 -407.279 70.2636C-445.579 80.0287 -476.599 92.1986 -476.769 102.246" stroke="white" stroke-width="2" stroke-miterlimit="10"/>
<path opacity="0.54" d="M469.301 196.656C371.331 201.748 284.111 197.707 221.851 185.43C198.181 180.767 178.561 174.964 162.881 168.256C79.8307 132.739 138.901 71.4808 24.3807 42.419C-15.9293 32.1865 -77.1693 27.4646 -146.899 29.4605C-174.709 30.2978 -203.969 32.2547 -233.869 35.5844C-296.209 42.5359 -357.359 52.7878 -405.779 65.3666C-443.759 75.161 -474.329 87.2238 -475.739 97.3784" stroke="white" stroke-width="2" stroke-miterlimit="10"/>
<path opacity="0.54" d="M463.001 202.332C363.841 206.839 277.131 201.971 215.671 189.071C191.951 184.096 172.411 177.963 156.981 170.953C73.961 133.245 142.041 69.1635 26.091 37.9988C-13.469 27.3671 -74.819 22.1 -145.239 24.0374C-173.029 24.8358 -202.309 26.8122 -232.289 30.2198C-294.799 37.327 -356.039 47.7639 -404.279 60.4498C-441.929 70.2831 -472.059 82.2291 -474.709 92.4811" stroke="white" stroke-width="2" stroke-miterlimit="10"/>
<path opacity="0.54" d="M456.711 208.017C356.361 211.931 270.161 206.236 209.501 192.722C185.731 187.426 166.271 180.971 151.091 173.669C68.1206 133.732 145.171 66.9243 27.8106 33.5982C-10.9994 22.5771 -72.4594 16.7453 -143.569 18.634C-171.329 19.4032 -200.639 21.3893 -230.689 24.865C-293.359 32.1183 -354.699 42.75 -402.769 55.543C-440.099 65.4152 -469.779 77.2444 -473.669 87.5937" stroke="white" stroke-width="2" stroke-miterlimit="10"/>
<path opacity="0.53" d="M450.411 213.694C348.871 217.024 263.191 210.481 203.321 196.364C179.511 190.756 160.131 183.97 145.191 176.366C62.2909 134.18 148.271 64.7243 29.5309 29.1882C-8.54912 17.7971 -70.0992 11.3909 -141.899 13.2115C-169.639 13.9417 -198.969 15.9376 -229.099 19.4912C-291.929 26.8905 -353.369 37.7168 -401.269 50.617C-438.269 60.5281 -467.509 72.2405 -472.639 82.6871" stroke="white" stroke-width="2" stroke-miterlimit="10"/>
<path opacity="0.53" d="M444.121 219.37C341.401 222.116 256.231 214.707 197.161 200.005C173.311 194.067 154.011 186.959 139.311 179.073C56.5006 134.619 151.361 62.5827 31.2606 24.7781C-6.08938 13.0268 -67.7194 6.03643 -140.229 7.79863C-167.949 8.49962 -197.289 10.5052 -227.509 14.127C-290.509 21.6821 -352.039 32.6934 -399.769 45.7006C-436.439 55.6507 -465.239 67.2462 -471.609 77.7903" stroke="white" stroke-width="2" stroke-miterlimit="10"/>
<path opacity="0.53" d="M437.831 225.056C333.921 227.207 249.271 218.942 190.991 203.666C167.101 197.406 147.891 189.967 133.421 181.789C50.7209 135.028 154.421 60.5088 32.9809 20.3772C-3.64914 8.27547 -65.3591 0.691172 -138.559 2.39496C-166.249 3.06674 -195.619 5.08211 -225.919 8.78176C-289.079 16.4829 -350.709 27.6889 -398.269 40.8032C-434.619 50.7923 -462.969 62.271 -470.579 72.9221" stroke="white" stroke-width="2" stroke-miterlimit="10"/>
<path opacity="0.53" d="M431.531 230.732C326.431 232.299 242.311 223.157 184.811 207.307C160.881 200.706 141.761 192.956 127.521 184.496C44.9607 135.407 157.431 58.4834 34.7007 15.9666C-1.20932 3.52405 -62.9993 -4.67361 -136.889 -3.0185C-164.559 -2.38566 -193.949 -0.350835 -224.329 3.41697C-287.659 11.2739 -349.379 22.6649 -396.769 35.8863C-432.789 45.9046 -460.709 57.2761 -469.549 68.0246" stroke="white" stroke-width="2" stroke-miterlimit="10"/>
<path opacity="0.52" d="M425.241 236.417C318.961 237.401 235.361 227.373 178.641 210.958C154.671 204.026 135.641 195.945 121.631 187.202C39.241 135.767 160.421 56.5266 36.4209 11.566C1.22093 -1.19777 -60.6291 -10.0185 -135.219 -8.42183C-162.869 -7.8182 -192.279 -5.78339 -222.739 -1.93769C-286.229 6.06524 -348.049 17.651 -395.269 30.9892C-430.969 41.0465 -458.439 52.3012 -468.519 63.147" stroke="white" stroke-width="2" stroke-miterlimit="10"/>
<path opacity="0.52" d="M418.941 242.093C311.471 242.483 228.441 231.462 172.461 214.599C148.471 207.278 129.521 198.924 115.741 189.909C33.5407 136.108 163.371 54.6278 38.1407 7.15537C3.63075 -5.92972 -58.2693 -15.3736 -133.559 -13.8353C-161.179 -13.2609 -190.609 -11.2163 -221.159 -7.30249C-284.809 0.846484 -346.729 12.627 -393.769 26.0723C-429.139 36.1685 -456.169 47.3064 -467.489 58.2496" stroke="white" stroke-width="2" stroke-miterlimit="10"/>
<path opacity="0.52" d="M412.651 247.78C256.671 247.497 154.561 223.264 109.851 192.625C27.871 136.43 166.281 52.8077 39.861 2.75529C-6.23901 -15.4996 -104.629 -27.6111 -219.569 -12.6567C-331.099 1.85956 -437.099 27.543 -466.459 53.3627" stroke="white" stroke-width="2" stroke-miterlimit="10"/>
<defs>
<linearGradient id="paint0_linear_304_1335" x1="224.551" y1="193.814" x2="224.551" y2="-113.988" gradientUnits="userSpaceOnUse">
<stop stop-color="#FFEF58"/>
<stop offset="1" stop-color="#00A8E8"/>
</linearGradient>
<linearGradient id="paint1_linear_304_1335" x1="367.874" y1="-920.713" x2="554.082" y2="-643.847" gradientUnits="userSpaceOnUse">
<stop stop-color="#00A388"/>
<stop offset="0.29" stop-color="#02A089"/>
<stop offset="0.49" stop-color="#0B998C"/>
<stop offset="0.66" stop-color="#1B8D92"/>
<stop offset="0.81" stop-color="#307D9A"/>
<stop offset="0.96" stop-color="#4C67A5"/>
<stop offset="1" stop-color="#5660A9"/>
</linearGradient>
</defs>
</svg>
