<svg width="351" height="294" viewBox="0 0 351 294" fill="none" xmlns="http://www.w3.org/2000/svg">
<g opacity="0.7">
<path d="M103.81 215.222C126.651 221.34 169.887 265.392 142.967 286.195C116.454 306.589 36.9159 196.459 103.81 215.222Z" fill="url(#paint0_radial_703_5354)"/>
</g>
<g opacity="0.7">
<path d="M97.694 208.694C194.364 228.273 165.403 278.443 229.85 290.272C316.73 306.179 357.519 176.063 302.862 95.3013C259.218 30.855 184.166 10.8684 117.681 36.9733C23.8663 74.499 21.419 193.194 97.694 208.694Z" fill="url(#paint1_radial_703_5354)"/>
</g>
<mask id="mask0_703_5354" style="mask-type:luminance" maskUnits="userSpaceOnUse" x="43" y="25" width="285" height="267">
<path d="M97.694 208.694C194.364 228.273 165.403 278.443 229.85 290.272C316.73 306.179 357.519 176.063 302.862 95.3013C259.218 30.855 184.166 10.8684 117.681 36.9733C23.8663 74.499 21.419 193.194 97.694 208.694Z" fill="white"/>
</mask>
<g mask="url(#mask0_703_5354)">
<path d="M277.57 22.6968H295.518V23.1047L277.57 22.6968V39.4202H295.518V39.8281H277.57V56.1436H295.518V56.5515H277.57V72.867H295.518V73.2749H277.57V89.5905H295.518V89.9983H277.57V106.314V122.629H295.518V123.037H277.57V139.353H295.518V139.761H277.57V156.076H295.518V156.484H277.57V163.418V171.576H295.518V171.984H277.57V188.299H295.518V188.707H277.57V205.023H295.518V205.431H277.57V221.746H295.518V222.154H277.57V238.47H295.518V238.877H277.57V255.193H295.518V255.601H277.57V271.916H295.518V272.324H277.57V288.64H295.518V289.048H277.57V305.363H295.518V305.771H277.57V320.863H277.163V305.771H260.439V320.863H260.031V305.771H243.308V320.863H242.9V305.771H226.177V320.863H225.769V305.771H209.045V320.863H208.637V305.771H191.914V320.863H191.506V305.771H174.783V320.863H174.375V305.771H157.651V320.863H157.244V305.771H140.52V320.863H140.112V305.771H123.389V320.863H122.981V305.771H106.258V320.863H105.85V305.771H89.1262V320.863H88.7183V305.771H71.9949V320.863H71.587V305.771H54.8636V320.863H54.4557V305.771H37.7323V320.863H37.3244V305.771H20.601V320.863H20.1931V305.771H3.46972V320.863H3.06181V171.576V163.418V14.5391H4.28548V22.2889H21.0089V14.5391H21.4168V22.2889H38.1402V14.5391H38.5481V22.2889H55.2715V14.5391H55.6794V22.2889H72.4028V14.5391H72.8107V22.2889H89.5341V14.5391H89.942V22.2889H106.258V14.5391H106.665V22.2889H123.389V14.5391H123.797V22.2889H140.52V14.5391H140.928V22.2889H157.651V14.5391H158.059V22.2889H174.783V14.5391H175.191V22.2889H191.914H208.637V14.5391H209.045V22.2889H225.769V14.5391H226.177V22.2889H242.9V14.5391H243.308V22.2889H260.031V14.5391H260.439V22.2889H277.57L277.163 14.5391H277.57V22.6968ZM21.0089 288.64H4.28548V304.955H21.0089V288.64ZM21.0089 271.916H4.28548V288.232H21.0089V271.916ZM21.0089 255.193H4.28548V271.508H21.0089V255.193ZM21.0089 238.47H4.28548V254.785H21.0089V238.47ZM21.0089 221.746H4.28548V238.062H21.0089V221.746ZM21.0089 205.023H4.28548V221.338H21.0089V205.023ZM21.0089 188.707H4.28548V205.023H21.0089V188.707ZM21.0089 171.984H4.28548V188.299H21.0089V171.984ZM21.0089 156.484H4.28548V163.418V171.576H21.0089V163.418V156.484ZM21.0089 139.761H4.28548V156.076H21.0089V139.761ZM21.0089 123.037H4.28548V139.353H21.0089V123.037ZM21.0089 106.314H4.28548V122.629H21.0089V106.314ZM21.0089 89.5905H4.28548V105.906H21.0089V89.5905ZM21.0089 72.867H4.28548V89.1826H21.0089V72.867ZM21.0089 56.1436H4.28548V72.4592H21.0089V56.1436ZM21.0089 39.4202H4.28548V55.7357H21.0089V39.4202ZM21.0089 22.6968H4.28548V39.0123H21.0089V22.6968ZM38.1402 288.64H21.4168V304.955H38.1402V288.64ZM38.1402 271.916H21.4168V288.232H38.1402V271.916ZM38.1402 255.193H21.4168V271.508H38.1402V255.193ZM38.1402 238.47H21.4168V254.785H38.1402V238.47ZM38.1402 221.746H21.4168V238.062H38.1402V221.746ZM38.1402 205.023H21.4168V221.338H38.1402V205.023ZM38.1402 188.707H21.4168V205.023H38.1402V188.707ZM38.1402 171.984H21.4168V188.299H38.1402V171.984ZM38.1402 156.484H21.4168V163.418V171.576H38.1402V163.418V156.484ZM38.1402 139.761H21.4168V156.076H38.1402V139.761ZM38.1402 123.037H21.4168V139.353H38.1402V123.037ZM38.1402 106.314H21.4168V122.629H38.1402V106.314ZM38.1402 89.5905H21.4168V105.906H38.1402V89.5905ZM38.1402 72.867H21.4168V89.1826H38.1402V72.867ZM38.1402 56.1436H21.4168V72.4592H38.1402V56.1436ZM38.1402 39.4202H21.4168V55.7357H38.1402V39.4202ZM38.1402 22.6968H21.4168V39.0123H38.1402V22.6968ZM55.2715 288.64H38.5481V304.955H55.2715V288.64ZM55.2715 271.916H38.5481V288.232H55.2715V271.916ZM55.2715 255.193H38.5481V271.508H55.2715V255.193ZM55.2715 238.47H38.5481V254.785H55.2715V238.47ZM55.2715 221.746H38.5481V238.062H55.2715V221.746ZM55.2715 205.023H38.5481V221.338H55.2715V205.023ZM55.2715 188.707H38.5481V205.023H55.2715V188.707ZM55.2715 171.984H38.5481V188.299H55.2715V171.984ZM55.2715 156.484H38.5481V163.418V171.576H55.2715V163.418V156.484ZM55.2715 139.761H38.5481V156.076H55.2715V139.761ZM55.2715 123.037H38.5481V139.353H55.2715V123.037ZM55.2715 106.314H38.5481V122.629H55.2715V106.314ZM55.2715 89.5905H38.5481V105.906H55.2715V89.5905ZM55.2715 72.867H38.5481V89.1826H55.2715V72.867ZM55.2715 56.1436H38.5481V72.4592H55.2715V56.1436ZM55.2715 39.4202H38.5481V55.7357H55.2715V39.4202ZM55.2715 22.6968H38.5481V39.0123H55.2715V22.6968ZM71.9949 288.64H55.2715V304.955H71.9949V288.64ZM71.9949 271.916H55.2715V288.232H71.9949V271.916ZM71.9949 255.193H55.2715V271.508H71.9949V255.193ZM71.9949 238.47H55.2715V254.785H71.9949V238.47ZM71.9949 221.746H55.2715V238.062H71.9949V221.746ZM71.9949 205.023H55.2715V221.338H71.9949V205.023ZM71.9949 188.707H55.2715V205.023H71.9949V188.707ZM71.9949 171.984H55.2715V188.299H71.9949V171.984ZM71.9949 156.484H55.2715V163.418V171.576H71.9949V163.418V156.484ZM71.9949 139.761H55.2715V156.076H71.9949V139.761ZM71.9949 123.037H55.2715V139.353H71.9949V123.037ZM71.9949 106.314H55.2715V122.629H71.9949V106.314ZM71.9949 89.5905H55.2715V105.906H71.9949V89.5905ZM71.9949 72.867H55.2715V89.1826H71.9949V72.867ZM71.9949 56.1436H55.2715V72.4592H71.9949V56.1436ZM71.9949 39.4202H55.2715V55.7357H71.9949V39.4202ZM71.9949 22.6968H55.2715V39.0123H71.9949V22.6968ZM89.1262 288.64H72.4028V304.955H89.1262V288.64ZM89.1262 271.916H72.4028V288.232H89.1262V271.916ZM89.1262 255.193H72.4028V271.508H89.1262V255.193ZM89.1262 238.47H72.4028V254.785H89.1262V238.47ZM89.1262 221.746H72.4028V238.062H89.1262V221.746ZM89.1262 205.023H72.4028V221.338H89.1262V205.023ZM89.1262 188.707H72.4028V205.023H89.1262V188.707ZM89.1262 171.984H72.4028V188.299H89.1262V171.984ZM89.1262 156.484H72.4028V163.418V171.576H89.1262V163.418V156.484ZM89.1262 139.761H72.4028V156.076H89.1262V139.761ZM89.1262 123.037H72.4028V139.353H89.1262V123.037ZM89.1262 106.314H72.4028V122.629H89.1262V106.314ZM89.1262 89.5905H72.4028V105.906H89.1262V89.5905ZM89.1262 72.867H72.4028V89.1826H89.1262V72.867ZM89.1262 56.1436H72.4028V72.4592H89.1262V56.1436ZM89.1262 39.4202H72.4028V55.7357H89.1262V39.4202ZM89.1262 22.6968H72.4028V39.0123H89.1262V22.6968ZM106.258 288.64H89.5341V304.955H106.258V288.64ZM106.258 271.916H89.5341V288.232H106.258V271.916ZM106.258 255.193H89.5341V271.508H106.258V255.193ZM106.258 238.47H89.5341V254.785H106.258V238.47ZM106.258 221.746H89.5341V238.062H106.258V221.746ZM106.258 205.023H89.5341V221.338H106.258V205.023ZM106.258 188.707H89.5341V205.023H106.258V188.707ZM106.258 171.984H89.5341V188.299H106.258V171.984ZM106.258 156.484H89.5341V163.418V171.576H106.258V163.418V156.484ZM106.258 139.761H89.5341V156.076H106.258V139.761ZM106.258 123.037H89.5341V139.353H106.258V123.037ZM106.258 106.314H89.5341V122.629H106.258V106.314ZM106.258 89.5905H89.5341V105.906H106.258V89.5905ZM106.258 72.867H89.5341V89.1826H106.258V72.867ZM106.258 56.1436H89.5341V72.4592H106.258V56.1436ZM106.258 39.4202H89.5341V55.7357H106.258V39.4202ZM106.258 22.6968H89.5341V39.0123H106.258V22.6968ZM123.389 288.64H106.665V304.955H123.389V288.64ZM123.389 271.916H106.665V288.232H123.389V271.916ZM123.389 255.193H106.665V271.508H123.389V255.193ZM123.389 238.47H106.665V254.785H123.389V238.47ZM123.389 221.746H106.665V238.062H123.389V221.746ZM123.389 205.023H106.665V221.338H123.389V205.023ZM123.389 188.707H106.665V205.023H123.389V188.707ZM123.389 171.984H106.665V188.299H123.389V171.984ZM123.389 156.484H106.665V163.418V171.576H123.389V163.418V156.484ZM123.389 139.761H106.665V156.076H123.389V139.761ZM123.389 123.037H106.665V139.353H123.389V123.037ZM123.389 106.314H106.665V122.629H123.389V106.314ZM123.389 89.5905H106.665V105.906H123.389V89.5905ZM123.389 72.867H106.665V89.1826H123.389V72.867ZM123.389 56.1436H106.665V72.4592H123.389V56.1436ZM123.389 39.4202H106.665V55.7357H123.389V39.4202ZM123.389 22.6968H106.665V39.0123H123.389V22.6968ZM140.52 288.64H123.797V304.955H140.52V288.64ZM140.52 271.916H123.797V288.232H140.52V271.916ZM140.52 255.193H123.797V271.508H140.52V255.193ZM140.52 238.47H123.797V254.785H140.52V238.47ZM140.52 221.746H123.797V238.062H140.52V221.746ZM140.52 205.023H123.797V221.338H140.52V205.023ZM140.52 188.707H123.797V205.023H140.52V188.707ZM140.52 171.984H123.797V188.299H140.52V171.984ZM140.52 156.484H123.797V163.418V171.576H140.52V163.418V156.484ZM140.52 139.761H123.797V156.076H140.52V139.761ZM140.52 123.037H123.797V139.353H140.52V123.037ZM140.52 106.314H123.797V122.629H140.52V106.314ZM140.52 89.5905H123.797V105.906H140.52V89.5905ZM140.52 72.867H123.797V89.1826H140.52V72.867ZM140.52 56.1436H123.797V72.4592H140.52V56.1436ZM140.52 39.4202H123.797V55.7357H140.52V39.4202ZM140.52 22.6968H123.797V39.0123H140.52V22.6968ZM157.651 288.64H140.928V304.955H157.651V288.64ZM157.651 271.916H140.928V288.232H157.651V271.916ZM157.651 255.193H140.928V271.508H157.651V255.193ZM157.651 238.47H140.928V254.785H157.651V238.47ZM157.651 221.746H140.928V238.062H157.651V221.746ZM157.651 205.023H140.928V221.338H157.651V205.023ZM157.651 188.707H140.928V205.023H157.651V188.707ZM157.651 171.984H140.928V188.299H157.651V171.984ZM157.651 156.484H140.928V163.418V171.576H157.651V163.418V156.484ZM157.651 139.761H140.928V156.076H157.651V139.761ZM157.651 123.037H140.928V139.353H157.651V123.037ZM157.651 106.314H140.928V122.629H157.651V106.314ZM157.651 89.5905H140.928V105.906H157.651V89.5905ZM157.651 72.867H140.928V89.1826H157.651V72.867ZM157.651 56.1436H140.928V72.4592H157.651V56.1436ZM157.651 39.4202H140.928V55.7357H157.651V39.4202ZM157.651 22.6968H140.928V39.0123H157.651V22.6968ZM174.783 288.64H158.059V304.955H174.783V288.64ZM174.783 271.916H158.059V288.232H174.783V271.916ZM174.783 255.193H158.059V271.508H174.783V255.193ZM174.783 238.47H158.059V254.785H174.783V238.47ZM174.783 221.746H158.059V238.062H174.783V221.746ZM174.783 205.023H158.059V221.338H174.783V205.023ZM174.783 188.707H158.059V205.023H174.783V188.707ZM174.783 171.984H158.059V188.299H174.783V171.984ZM174.783 156.484H158.059V163.418V171.576H174.783V163.418V156.484ZM174.783 139.761H158.059V156.076H174.783V139.761ZM174.783 123.037H158.059V139.353H174.783V123.037ZM174.783 106.314H158.059V122.629H174.783V106.314ZM174.783 89.5905H158.059V105.906H174.783V89.5905ZM174.783 72.867H158.059V89.1826H174.783V72.867ZM174.783 56.1436H158.059V72.4592H174.783V56.1436ZM174.783 39.4202H158.059V55.7357H174.783V39.4202ZM174.783 22.6968H158.059V39.0123H174.783V22.6968ZM191.506 288.64H174.783V304.955H191.506V288.64ZM191.506 271.916H174.783V288.232H191.506V271.916ZM191.506 255.193H174.783V271.508H191.506V255.193ZM191.506 238.47H174.783V254.785H191.506V238.47ZM191.506 221.746H174.783V238.062H191.506V221.746ZM191.506 205.023H174.783V221.338H191.506V205.023ZM191.506 188.707H174.783V205.023H191.506V188.707ZM191.506 171.984H174.783V188.299H191.506V171.984ZM191.506 156.484H174.783V163.418V171.576H191.506V163.418V156.484ZM191.506 139.761H174.783V156.076H191.506V139.761ZM191.506 123.037H174.783V139.353H191.506V123.037ZM191.506 106.314H174.783V122.629H191.506V106.314ZM191.506 89.5905H174.783V105.906H191.506V89.5905ZM191.506 72.867H174.783V89.1826H191.506V72.867ZM191.506 56.1436H174.783V72.4592H191.506V56.1436ZM191.506 39.4202H174.783V55.7357H191.506V39.4202ZM191.506 22.6968H174.783V39.0123H191.506V22.6968ZM208.637 288.64H191.914V304.955H208.637V288.64ZM208.637 271.916H191.914V288.232H208.637V271.916ZM208.637 255.193H191.914V271.508H208.637V255.193ZM208.637 238.47H191.914V254.785H208.637V238.47ZM208.637 221.746H191.914V238.062H208.637V221.746ZM208.637 205.023H191.914V221.338H208.637V205.023ZM208.637 188.707H191.914V205.023H208.637V188.707ZM208.637 171.984H191.914V188.299H208.637V171.984ZM208.637 156.484H191.914V163.418V171.576H208.637V163.418V156.484ZM208.637 139.761H191.914V156.076H208.637V139.761ZM208.637 123.037H191.914V139.353H208.637V123.037ZM208.637 106.314H191.914V122.629H208.637V106.314ZM208.637 89.5905H191.914V105.906H208.637V89.5905ZM208.637 72.867H191.914V89.1826H208.637V72.867ZM208.637 56.1436H191.914V72.4592H208.637V56.1436ZM208.637 39.4202H191.914V55.7357H208.637V39.4202ZM208.637 22.6968H191.914V39.0123H208.637V22.6968ZM225.769 288.64H209.045V304.955H225.769V288.64ZM225.769 271.916H209.045V288.232H225.769V271.916ZM225.769 255.193H209.045V271.508H225.769V255.193ZM225.769 238.47H209.045V254.785H225.769V238.47ZM225.769 221.746H209.045V238.062H225.769V221.746ZM225.769 205.023H209.045V221.338H225.769V205.023ZM225.769 188.707H209.045V205.023H225.769V188.707ZM225.769 171.984H209.045V188.299H225.769V171.984ZM225.769 156.484H209.045V163.418V171.576H225.769V163.418V156.484ZM225.769 139.761H209.045V156.076H225.769V139.761ZM225.769 123.037H209.045V139.353H225.769V123.037ZM225.769 106.314H209.045V122.629H225.769V106.314ZM225.769 89.5905H209.045V105.906H225.769V89.5905ZM225.769 72.867H209.045V89.1826H225.769V72.867ZM225.769 56.1436H209.045V72.4592H225.769V56.1436ZM225.769 39.4202H209.045V55.7357H225.769V39.4202ZM225.769 22.6968H209.045V39.0123H225.769V22.6968ZM242.9 288.64H226.177V304.955H242.9V288.64ZM242.9 271.916H226.177V288.232H242.9V271.916ZM242.9 255.193H226.177V271.508H242.9V255.193ZM242.9 238.47H226.177V254.785H242.9V238.47ZM242.9 221.746H226.177V238.062H242.9V221.746ZM242.9 205.023H226.177V221.338H242.9V205.023ZM242.9 188.707H226.177V205.023H242.9V188.707ZM242.9 171.984H226.177V188.299H242.9V171.984ZM242.9 156.484H226.177V163.418V171.576H242.9V163.418V156.484ZM242.9 139.761H226.177V156.076H242.9V139.761ZM242.9 123.037H226.177V139.353H242.9V123.037ZM242.9 106.314H226.177V122.629H242.9V106.314ZM242.9 89.5905H226.177V105.906H242.9V89.5905ZM242.9 72.867H226.177V89.1826H242.9V72.867ZM242.9 56.1436H226.177V72.4592H242.9V56.1436ZM242.9 39.4202H226.177V55.7357H242.9V39.4202ZM242.9 22.6968H226.177V39.0123H242.9V22.6968ZM260.031 288.64H243.308V304.955H260.031V288.64ZM260.031 271.916H243.308V288.232H260.031V271.916ZM260.031 255.193H243.308V271.508H260.031V255.193ZM260.031 238.47H243.308V254.785H260.031V238.47ZM260.031 221.746H243.308V238.062H260.031V221.746ZM260.031 205.023H243.308V221.338H260.031V205.023ZM260.031 188.707H243.308V205.023H260.031V188.707ZM260.031 171.984H243.308V188.299H260.031V171.984ZM260.031 156.484H243.308V163.418V171.576H260.031V163.418V156.484ZM260.031 139.761H243.308V156.076H260.031V139.761ZM260.031 123.037H243.308V139.353H260.031V123.037ZM260.031 106.314H243.308V122.629H260.031V106.314ZM260.031 89.5905H243.308V105.906H260.031V89.5905ZM260.031 72.867H243.308V89.1826H260.031V72.867ZM260.031 56.1436H243.308V72.4592H260.031V56.1436ZM260.031 39.4202H243.308V55.7357H260.031V39.4202ZM260.031 22.6968H243.308V39.0123H260.031V22.6968ZM277.163 288.64H260.439V304.955H277.163V288.64ZM277.163 271.916H260.439V288.232H277.163V271.916ZM277.163 255.193H260.439V271.508H277.163V255.193ZM277.163 238.47H260.439V254.785H277.163V238.47ZM277.163 221.746H260.439V238.062H277.163V221.746ZM277.163 205.023H260.439V221.338H277.163V205.023ZM277.163 188.707H260.439V205.023H277.163V188.707ZM277.163 171.984H260.439V188.299H277.163V171.984ZM277.163 156.484H260.439V163.418V171.576H277.163V163.418V156.484ZM277.163 139.761H260.439V156.076H277.163V139.761ZM277.163 123.037H260.439V139.353H277.163V123.037ZM277.163 106.314H260.439V122.629H277.163V106.314ZM277.163 89.5905H260.439V105.906H277.163V89.5905ZM277.163 72.867H260.439V89.1826H277.163V72.867ZM277.163 56.1436H260.439V72.4592H277.163V56.1436ZM277.163 39.4202H260.439V55.7357H277.163V39.4202ZM277.163 22.6968H260.439V39.0123H277.163V22.6968Z" fill="white"/>
<path d="M199.255 30.0371V298.02H129.506V30.0371H199.255ZM146.637 76.5364H181.716V40.2343H146.637V76.5364ZM146.637 124.667H181.716V88.3651H146.637V124.667ZM146.637 171.166H181.716V134.864H146.637V171.166ZM146.637 219.705H181.716V183.403H146.637V219.705Z" fill="#B1CCDD"/>
<path d="M181.716 30.0371V298.02H118.901V30.0371H181.716ZM129.098 76.5364H171.519V40.2343H129.506V76.5364H129.098ZM129.098 124.667H171.519V88.3651H129.506V124.667H129.098ZM129.098 171.166H171.519V134.864H129.506V171.166H129.098ZM129.098 219.705H171.519V183.403H129.506V219.705H129.098Z" fill="#E6F5FF"/>
<path d="M135.215 149.55C133.991 149.55 132.767 150.773 132.767 151.997V168.721C132.767 169.128 133.175 169.536 133.583 169.536H134.807C135.215 169.536 135.623 169.128 135.623 168.721C135.623 167.497 136.438 166.681 137.662 166.273C138.07 166.273 138.07 166.273 138.478 166.273H138.886V152.405C138.886 151.181 140.109 149.958 141.333 149.958H138.886H135.215V149.55Z" fill="#B1CCDD"/>
<path d="M154.791 165.866C156.015 165.866 157.239 167.089 157.239 168.721C157.239 169.129 157.647 169.537 158.055 169.537H162.133C162.541 169.537 162.949 169.129 162.949 168.721V165.866H154.791Z" fill="#B1CCDD"/>
<g opacity="0.55">
<path d="M138.069 145.065H133.99C133.582 145.065 133.582 145.473 133.582 145.473C133.582 145.881 133.99 145.881 133.99 145.881V162.604C133.99 163.828 134.806 164.644 136.029 164.644C137.253 164.644 138.069 163.828 138.069 162.604V145.881C138.477 145.881 138.477 145.473 138.477 145.473C138.477 145.473 138.477 145.065 138.069 145.065Z" fill="#FDFDFD"/>
</g>
<path d="M134.808 163.012C134.808 163.827 135.215 164.235 136.031 164.235C136.847 164.235 137.255 163.827 137.255 163.012V151.999H134.808V163.012Z" fill="#E6F5FF"/>
<g opacity="0.55">
<path d="M143.777 145.063H139.698C139.29 145.063 139.29 145.471 139.29 145.471C139.29 145.879 139.698 145.879 139.698 145.879V162.603C139.698 163.826 140.514 164.642 141.737 164.642C142.961 164.642 143.777 163.826 143.777 162.603V145.879C144.185 145.879 144.185 145.471 144.185 145.471C144.592 145.471 144.185 145.063 143.777 145.063Z" fill="#FDFDFD"/>
</g>
<path d="M140.513 163.012C140.513 163.827 140.921 164.235 141.736 164.235C142.552 164.235 142.96 163.827 142.96 163.012V151.999H140.513V163.012Z" fill="#B1CCDD"/>
<g opacity="0.55">
<path d="M149.901 145.063H145.822C145.414 145.063 145.414 145.471 145.414 145.471C145.414 145.879 145.822 145.879 145.822 145.879V162.602C145.822 163.826 146.638 164.642 147.861 164.642C149.085 164.642 149.901 163.826 149.901 162.602V145.879C150.309 145.879 150.309 145.471 150.309 145.471L149.901 145.063Z" fill="#FDFDFD"/>
</g>
<path d="M146.636 163.012C146.636 163.827 147.044 164.235 147.859 164.235C148.675 164.235 149.083 163.827 149.083 163.012V151.999H146.636V163.012Z" fill="#E6F5FF"/>
<g opacity="0.55">
<path d="M155.609 145.063H151.53C151.122 145.063 151.122 145.471 151.122 145.471C151.122 145.879 151.53 145.879 151.53 145.879V162.603C151.53 163.826 152.346 164.642 153.569 164.642C154.793 164.642 155.609 163.826 155.609 162.603V145.879C156.017 145.879 156.017 145.471 156.017 145.471C156.017 145.471 156.017 145.063 155.609 145.063Z" fill="#FDFDFD"/>
</g>
<path d="M152.344 163.011C152.344 163.827 152.752 164.235 153.567 164.235C154.383 164.235 154.791 163.827 154.791 163.011V151.998H152.344V163.011Z" fill="#B1CCDD"/>
<g opacity="0.55">
<path d="M161.316 145.063H157.237C156.829 145.063 156.829 145.471 156.829 145.471C156.829 145.879 157.237 145.879 157.237 145.879V162.602C157.237 163.826 158.053 164.642 159.276 164.642C160.5 164.642 161.316 163.826 161.316 162.602V145.879C161.724 145.879 161.724 145.471 161.724 145.471C162.132 145.471 161.724 145.063 161.316 145.063Z" fill="#FDFDFD"/>
</g>
<path d="M158.051 163.012C158.051 163.827 158.459 164.235 159.274 164.235C160.09 164.235 160.498 163.827 160.498 163.012V151.999H158.051V163.012Z" fill="#E6F5FF"/>
<path d="M163.765 151.997V168.721C163.765 169.536 162.949 170.352 162.133 170.352C162.133 170.352 162.133 170.352 161.725 170.352H157.646C156.831 170.352 156.015 169.536 156.015 168.721C156.015 167.905 155.199 167.089 154.383 167.089H138.068C137.252 167.089 136.436 167.905 136.436 168.721C136.436 169.536 135.62 170.352 134.805 170.352H134.397H132.765C131.949 170.352 131.134 169.536 131.134 168.721V167.089V165.457V151.997C131.134 149.958 132.765 148.326 134.805 148.326H140.923H160.094C162.133 148.326 163.765 149.958 163.765 151.997ZM162.949 151.997C162.949 150.773 161.725 149.55 160.502 149.55H141.331H138.883H135.212C133.989 149.55 132.765 150.773 132.765 151.997V165.457V167.089V168.721C132.765 169.128 133.173 169.536 133.581 169.536H134.805C135.212 169.536 135.62 169.128 135.62 168.721C135.62 167.497 136.436 166.681 137.66 166.273C138.068 166.273 138.068 166.273 138.476 166.273H138.883H154.791C154.791 166.273 154.791 166.273 155.199 166.273C156.423 166.273 157.646 167.497 157.646 169.128C157.646 169.536 158.054 169.944 158.462 169.944H162.541C162.949 169.944 163.357 169.536 163.357 169.128V151.997H162.949Z" fill="#FDFDFD"/>
<path d="M165.807 148.326H160.096C162.136 148.326 163.767 149.958 163.767 151.997V168.721C163.767 169.536 162.952 170.352 162.136 170.352H167.438C168.254 170.352 169.07 169.536 169.07 168.721V151.997C169.478 149.958 167.846 148.326 165.807 148.326Z" fill="#B1CCDD"/>
<path d="M136.843 168.72C136.843 169.536 136.028 170.351 135.212 170.351H139.291H143.37C144.185 170.351 145.001 169.536 145.001 168.72C145.001 167.904 145.817 167.088 146.633 167.088H138.067C137.659 167.088 136.843 167.904 136.843 168.72Z" fill="#E6F5FF"/>
<g opacity="0.28">
<path d="M143.779 191.97H147.858C148.266 191.97 148.266 191.97 148.266 192.378C148.266 192.785 148.266 192.785 147.858 192.785H147.45V210.325C147.45 211.14 146.634 211.956 145.818 211.956C145.002 211.956 144.595 211.14 144.595 210.325V192.785H144.187C143.779 192.785 143.371 192.786 143.779 191.97Z" fill="white"/>
</g>
<path d="M147.451 210.324C147.451 211.14 146.635 211.956 145.82 211.956C145.004 211.956 144.188 211.14 144.188 210.324V206.246H147.043V210.324H147.451Z" fill="#E6F5FF"/>
<path d="M145.82 204.206C146.228 204.206 146.228 204.206 146.228 204.613C146.228 205.021 146.228 205.021 145.82 205.021C145.412 205.021 145.412 205.021 145.412 204.613C145.412 204.206 145.82 204.206 145.82 204.206Z" fill="#E6F5FF"/>
<path d="M145.414 202.576C145.822 202.576 145.822 202.576 145.414 202.576C145.822 202.984 145.414 202.984 145.414 202.984C145.414 202.984 145.414 202.984 145.414 202.576Z" fill="#E6F5FF"/>
<path d="M146.228 200.536C146.228 200.944 146.228 200.944 146.228 200.944C145.82 200.944 145.82 200.944 146.228 200.536C145.82 200.536 145.82 200.536 146.228 200.536Z" fill="#E6F5FF"/>
<path d="M145.414 198.087C145.822 198.495 145.822 198.087 145.414 198.087C145.822 198.495 145.414 198.495 145.414 198.495C145.414 198.903 145.414 198.903 145.414 198.087Z" fill="#E6F5FF"/>
<path d="M146.636 195.232C147.044 195.64 146.636 195.64 146.636 195.64C146.636 195.64 146.228 195.64 146.636 195.232Z" fill="#E6F5FF"/>
<path d="M142.968 195.643H149.494V196.458H142.968V195.643Z" fill="#B1CCDD"/>
<path opacity="0.55" d="M153.979 214.403C153.979 215.218 153.571 215.626 152.755 215.626C151.939 215.626 151.531 215.218 151.531 214.403V202.166H153.979V214.403Z" fill="white"/>
<path d="M149.493 184.629H150.309V218.892H149.493V184.629Z" fill="#B1CCDD"/>
<path d="M152.755 198.904C153.571 198.904 153.979 199.312 153.979 200.128V203.799H151.531V200.128C151.939 199.312 152.347 198.904 152.755 198.904Z" fill="#B1CCDD"/>
<path d="M156.425 198.904C157.241 198.904 157.648 199.312 157.648 200.128V203.799H155.201V200.128C155.609 199.312 156.017 198.904 156.425 198.904Z" fill="#B1CCDD"/>
<path d="M160.1 198.904C160.915 198.904 161.323 199.312 161.323 200.128V203.799H158.876V200.128C158.876 199.312 159.692 198.904 160.1 198.904Z" fill="#B1CCDD"/>
<path opacity="0.55" d="M157.648 214.403C157.648 215.218 157.241 215.626 156.425 215.626C155.609 215.626 155.201 215.218 155.201 214.403V202.166H157.648V214.403Z" fill="white"/>
<g opacity="0.55">
<path d="M161.325 214.404C161.325 215.22 160.917 215.628 160.102 215.628C159.286 215.628 158.878 215.22 158.878 214.404V202.167H161.325V214.404Z" fill="white"/>
</g>
<path d="M138.48 218.076H167.44V219.3H138.48V218.076Z" fill="#B1CCDD"/>
<path d="M162.138 203.799C162.138 204.207 161.73 204.207 161.73 204.207H150.309V202.983H161.73C162.138 202.983 162.138 203.391 162.138 203.799Z" fill="#B1CCDD"/>
<path d="M266.151 30.0371V298.02H196.403V30.0371H266.151ZM213.942 76.5364H249.02V40.2343H213.942V76.5364ZM213.942 124.667H249.02V88.3651H213.942V124.667ZM213.942 171.166H249.02V134.864H213.942V171.166ZM213.942 219.705H249.02V183.403H213.942V219.705Z" fill="#B1CCDD"/>
<path d="M248.612 30.0371V298.02H185.798V30.0371H248.612ZM196.403 76.5364H238.415V40.2343H196.403V76.5364ZM196.403 124.667H238.415V88.3651H196.403V124.667ZM196.403 171.166H238.415V134.864H196.403V171.166ZM196.403 219.705H238.415V183.403H196.403V219.705Z" fill="#E6F5FF"/>
<path d="M202.113 103.458C200.89 103.458 199.666 104.681 199.666 105.905V122.628C199.666 123.036 200.074 123.444 200.482 123.444H202.113C202.521 123.444 202.929 123.036 202.929 122.628C202.929 121.405 203.745 120.589 204.969 120.181C205.377 120.181 205.377 120.181 205.784 120.181H206.192V106.313C206.192 105.089 207.416 103.865 208.64 103.865H206.192H202.113V103.458Z" fill="#B1CCDD"/>
<path d="M222.098 120.183C223.322 120.183 224.545 121.406 224.545 123.038C224.545 123.446 224.953 123.854 225.361 123.854H229.44C229.848 123.854 230.256 123.446 230.256 123.038V120.183H222.098Z" fill="#B1CCDD"/>
<g opacity="0.55">
<path d="M204.965 99.3799H200.886C200.478 99.3799 200.478 99.7878 200.478 99.7878C200.478 100.196 200.886 100.196 200.886 100.196V116.919C200.886 118.143 201.702 118.959 202.926 118.959C204.149 118.959 204.965 118.143 204.965 116.919V100.196C205.373 100.196 205.373 99.7878 205.373 99.7878C205.781 99.3799 205.373 99.3799 204.965 99.3799Z" fill="#FDFDFD"/>
</g>
<path d="M201.699 117.326C201.699 118.142 202.107 118.55 202.923 118.55C203.739 118.55 204.146 118.142 204.146 117.326V106.313H201.699V117.326Z" fill="#E6F5FF"/>
<g opacity="0.55">
<path d="M211.088 99.3789H207.009C206.601 99.3789 206.601 99.7868 206.601 99.7868C206.601 100.195 207.009 100.195 207.009 100.195V116.918C207.009 118.142 207.825 118.958 209.049 118.958C210.272 118.958 211.088 118.142 211.088 116.918V100.195C211.496 100.195 211.496 99.7868 211.496 99.7868C211.496 99.3789 211.496 99.3789 211.088 99.3789Z" fill="#FDFDFD"/>
</g>
<path d="M207.823 117.327C207.823 118.143 208.231 118.551 209.047 118.551C209.863 118.551 210.271 118.143 210.271 117.327V106.314H207.823V117.327Z" fill="#B1CCDD"/>
<g opacity="0.55">
<path d="M216.797 99.3789H212.718C212.31 99.3789 212.31 99.7868 212.31 99.7868C212.31 100.195 212.718 100.195 212.718 100.195V116.918C212.718 118.142 213.534 118.958 214.758 118.958C215.981 118.958 216.797 118.142 216.797 116.918V100.195C217.205 100.195 217.205 99.7868 217.205 99.7868C217.205 99.3789 217.205 99.3789 216.797 99.3789Z" fill="#FDFDFD"/>
</g>
<path d="M213.531 117.327C213.531 118.143 213.939 118.551 214.755 118.551C215.571 118.551 215.979 118.143 215.979 117.327V106.314H213.531V117.327Z" fill="#E6F5FF"/>
<g opacity="0.55">
<path d="M222.911 99.3789H218.833C218.425 99.3789 218.425 99.7868 218.425 99.7868C218.425 100.195 218.833 100.195 218.833 100.195V116.918C218.833 118.142 219.648 118.958 220.872 118.958C222.096 118.958 222.911 118.142 222.911 116.918V100.195C223.319 100.195 223.319 99.7868 223.319 99.7868C223.319 99.3789 222.911 99.3789 222.911 99.3789Z" fill="#FDFDFD"/>
</g>
<path d="M219.652 117.326C219.652 118.142 220.06 118.55 220.876 118.55C221.692 118.55 222.1 118.142 222.1 117.326V106.313H219.652V117.326Z" fill="#B1CCDD"/>
<g opacity="0.55">
<path d="M228.627 99.3789H224.548C224.141 99.3789 224.141 99.7868 224.141 99.7868C224.141 100.195 224.548 100.195 224.548 100.195V116.918C224.548 118.142 225.364 118.958 226.588 118.958C227.811 118.958 228.627 118.142 228.627 116.918V100.195C229.035 100.195 229.035 99.7868 229.035 99.7868C229.035 99.3789 229.035 99.3789 228.627 99.3789Z" fill="#FDFDFD"/>
</g>
<path d="M225.365 117.326C225.365 118.142 225.773 118.55 226.589 118.55C227.405 118.55 227.812 118.142 227.812 117.326V106.313H225.365V117.326Z" fill="#E6F5FF"/>
<path d="M231.072 106.312V123.035C231.072 123.851 230.256 124.667 229.441 124.667C229.441 124.667 229.441 124.667 229.033 124.667H224.954C224.138 124.667 223.322 123.851 223.322 123.035C223.322 122.219 222.507 121.403 221.691 121.403H205.375C204.56 121.403 203.744 122.219 203.744 123.035C203.744 123.851 202.928 124.667 202.112 124.667H201.704H200.073C199.257 124.667 198.441 123.851 198.441 123.035V121.403V119.772V106.312C198.441 104.272 200.073 102.641 202.112 102.641H208.231H227.401C229.441 102.641 231.072 104.272 231.072 106.312ZM229.849 106.312C229.849 105.088 228.625 103.864 227.401 103.864H208.231H205.783H202.112C200.889 103.864 199.665 105.088 199.665 106.312V119.772V121.403V122.627C199.665 123.035 200.073 123.443 200.481 123.443H202.112C202.52 123.443 202.928 123.035 202.928 122.627C202.928 121.403 203.744 120.588 204.967 120.18C205.375 120.18 205.375 120.18 205.783 120.18H206.191H222.099C222.099 120.18 222.099 120.18 222.507 120.18C223.73 120.18 224.954 121.403 224.954 123.035C224.954 123.443 225.362 123.851 225.77 123.851H229.849C230.257 123.851 230.664 123.443 230.664 123.035V106.312H229.849Z" fill="#FDFDFD"/>
<path d="M233.113 102.641H227.403C229.442 102.641 231.074 104.272 231.074 106.312V123.035C231.074 123.851 230.258 124.667 229.442 124.667H234.745C235.561 124.667 236.377 123.851 236.377 123.035V106.312C236.784 104.272 235.153 102.641 233.113 102.641Z" fill="#B1CCDD"/>
<path d="M203.745 122.628C203.745 123.443 202.929 124.259 202.113 124.259H206.192H210.271C211.087 124.259 211.903 123.443 211.903 122.628C211.903 121.812 212.718 120.996 213.534 120.996H204.969C204.561 121.404 203.745 121.812 203.745 122.628Z" fill="#E6F5FF"/>
<path d="M202.112 54.9194C200.889 54.9194 199.665 56.1431 199.665 57.3668V74.0902C199.665 74.498 200.073 74.9059 200.481 74.9059H202.112C202.52 74.9059 202.928 74.498 202.928 74.0902C202.928 72.8665 203.744 72.0507 204.968 71.6428C205.376 71.6428 205.376 71.6428 205.783 71.6428H206.191V57.3668C206.191 56.1431 207.415 54.9194 208.639 54.9194H206.191H202.112Z" fill="#B1CCDD"/>
<path d="M222.097 71.6426C223.321 71.6426 224.544 72.8662 224.544 74.4978C224.544 74.9057 224.952 75.3136 225.36 75.3136H229.439C229.847 75.3136 230.255 74.9057 230.255 74.4978V71.6426H222.097Z" fill="#B1CCDD"/>
<g opacity="0.55">
<path d="M204.964 50.4326H200.885C200.477 50.4326 200.477 50.8405 200.477 50.8405C200.477 51.2484 200.885 51.2484 200.885 51.2484V67.9718C200.885 69.1955 201.701 70.0112 202.925 70.0112C204.148 70.0112 204.964 69.1955 204.964 67.9718V51.2484C205.372 51.2484 205.372 50.8405 205.372 50.8405C205.78 50.8405 205.372 50.4326 204.964 50.4326Z" fill="#FDFDFD"/>
</g>
<path d="M201.698 68.3802C201.698 69.1959 202.106 69.6038 202.922 69.6038C203.738 69.6038 204.146 69.1959 204.146 68.3802V57.3672H201.698V68.3802Z" fill="#E6F5FF"/>
<g opacity="0.55">
<path d="M211.087 50.4287H207.008C206.6 50.4287 206.6 50.8366 206.6 50.8366C206.6 51.2445 207.008 51.2445 207.008 51.2445V67.9679C207.008 69.1916 207.824 70.0073 209.048 70.0073C210.271 70.0073 211.087 69.1916 211.087 67.9679V51.2445C211.495 51.2445 211.495 50.8366 211.495 50.8366C211.495 50.8366 211.495 50.4287 211.087 50.4287Z" fill="#FDFDFD"/>
</g>
<path d="M207.822 68.3777C207.822 69.1935 208.23 69.6014 209.046 69.6014C209.862 69.6014 210.27 69.1935 210.27 68.3777V57.3647H207.822V68.3777Z" fill="#B1CCDD"/>
<g opacity="0.55">
<path d="M216.796 50.4326H212.717C212.309 50.4326 212.309 50.8405 212.309 50.8405C212.309 51.2484 212.717 51.2484 212.717 51.2484V67.9718C212.717 69.1955 213.533 70.0112 214.757 70.0112C215.98 70.0112 216.796 69.1955 216.796 67.9718V51.2484C217.204 51.2484 217.204 50.8405 217.204 50.8405C217.204 50.8405 217.204 50.4326 216.796 50.4326Z" fill="#FDFDFD"/>
</g>
<path d="M213.531 68.3787C213.531 69.1945 213.939 69.6024 214.755 69.6024C215.571 69.6024 215.979 69.1945 215.979 68.3787V57.3657H213.531V68.3787Z" fill="#E6F5FF"/>
<g opacity="0.55">
<path d="M222.91 50.4287H218.832C218.424 50.4287 218.424 50.8366 218.424 50.8366C218.424 51.2445 218.832 51.2445 218.832 51.2445V67.9679C218.832 69.1916 219.647 70.0073 220.871 70.0073C222.095 70.0073 222.91 69.1916 222.91 67.9679V51.2445C223.318 51.2445 223.318 50.8366 223.318 50.8366L222.91 50.4287Z" fill="#FDFDFD"/>
</g>
<path d="M219.65 68.3758C219.65 69.1916 220.058 69.5994 220.874 69.5994C221.69 69.5994 222.098 69.1916 222.098 68.3758V57.3628H219.65V68.3758Z" fill="#B1CCDD"/>
<g opacity="0.55">
<path d="M228.625 50.4287H224.546C224.139 50.4287 224.139 50.8366 224.139 50.8366C224.139 51.2445 224.546 51.2445 224.546 51.2445V67.9679C224.546 69.1916 225.362 70.0073 226.586 70.0073C227.81 70.0073 228.625 69.1916 228.625 67.9679V51.2445C229.033 51.2445 229.033 50.8366 229.033 50.8366C229.033 50.8366 229.033 50.4287 228.625 50.4287Z" fill="#FDFDFD"/>
</g>
<path d="M225.363 68.3782C225.363 69.194 225.771 69.6019 226.587 69.6019C227.403 69.6019 227.811 69.194 227.811 68.3782V57.3652H225.363V68.3782Z" fill="#E6F5FF"/>
<path d="M231.071 57.3634V74.0868C231.071 74.9026 230.256 75.7183 229.44 75.7183C229.44 75.7183 229.44 75.7183 229.032 75.7183H224.953C224.137 75.7183 223.321 74.9026 223.321 74.0868C223.321 73.271 222.506 72.4552 221.69 72.4552H205.374C204.559 72.4552 203.743 73.271 203.743 74.0868C203.743 74.9026 202.927 75.7183 202.111 75.7183H201.703H200.072C199.256 75.7183 198.44 74.9026 198.44 74.0868V72.4552V70.8237V57.3634C198.44 55.3239 200.072 53.6924 202.111 53.6924H208.23H227.4C229.44 53.6924 231.071 55.3239 231.071 57.3634ZM229.848 57.3634C229.848 56.1397 228.624 54.9161 227.4 54.9161H208.23H205.782H202.111C200.888 54.9161 199.664 56.1397 199.664 57.3634V70.8237V72.4552V74.0868C199.664 74.4947 200.072 74.9026 200.48 74.9026H202.111C202.519 74.9026 202.927 74.4947 202.927 74.0868C202.927 72.8631 203.743 72.0474 204.966 71.6395C205.374 71.6395 205.374 71.6395 205.782 71.6395H206.19H222.098C222.098 71.6395 222.098 71.6395 222.506 71.6395C223.729 71.6395 224.953 72.8631 224.953 74.4947C224.953 74.9026 225.361 75.3105 225.769 75.3105H229.848C230.256 75.3105 230.663 74.9026 230.663 74.4947V57.3634H229.848Z" fill="#FDFDFD"/>
<path d="M233.112 53.6924H227.402C229.441 53.6924 231.073 55.3239 231.073 57.3634V74.0868C231.073 74.9026 230.257 75.7183 229.441 75.7183H234.744C235.56 75.7183 236.376 74.9026 236.376 74.0868V57.3634C236.783 55.3239 235.152 53.6924 233.112 53.6924Z" fill="#B1CCDD"/>
<path d="M203.744 74.0866C203.744 74.9024 202.928 75.7182 202.112 75.7182H206.191H210.27C211.086 75.7182 211.902 74.9024 211.902 74.0866C211.902 73.2708 212.717 72.4551 213.533 72.4551H204.968C204.56 72.4551 203.744 73.2708 203.744 74.0866Z" fill="#E6F5FF"/>
<g opacity="0.28">
<path d="M211.086 191.968H215.165C215.573 191.968 215.573 191.968 215.573 192.376C215.573 192.784 215.573 192.784 215.165 192.784H214.757V210.323C214.757 211.139 213.942 211.954 213.126 211.954C212.31 211.954 211.902 211.139 211.902 210.323V192.784H211.494C210.679 192.784 210.679 192.784 211.086 191.968C210.679 192.376 210.679 191.968 211.086 191.968Z" fill="white"/>
</g>
<path d="M214.354 210.323C214.354 211.138 213.538 211.954 212.722 211.954C211.906 211.954 211.09 211.138 211.09 210.323V206.244H213.946V210.323H214.354Z" fill="#E6F5FF"/>
<path d="M213.126 204.204C213.534 204.204 213.534 204.204 213.534 204.611C213.534 205.019 213.534 205.019 213.126 205.019C212.718 205.019 212.718 205.019 212.718 204.611C212.718 204.204 212.718 204.204 213.126 204.204Z" fill="#E6F5FF"/>
<path d="M212.721 202.574C213.129 202.982 212.721 202.982 212.721 202.982C212.313 202.982 212.313 202.982 212.721 202.574C212.313 202.574 212.313 202.574 212.721 202.574Z" fill="#E6F5FF"/>
<path d="M212.721 198.086C213.129 198.494 212.721 198.494 212.721 198.494C212.313 198.902 212.313 198.902 212.721 198.086C212.313 198.494 212.313 198.086 212.721 198.086Z" fill="#E6F5FF"/>
<path d="M213.535 195.23C213.943 195.23 213.943 195.23 213.535 195.23C213.943 195.638 213.535 195.638 213.535 195.638C213.535 195.638 213.535 195.638 213.535 195.23Z" fill="#E6F5FF"/>
<path d="M210.269 195.64H216.795V196.455H210.269V195.64Z" fill="#B1CCDD"/>
<path opacity="0.55" d="M221.284 214.402C221.284 215.217 220.876 215.625 220.061 215.625C219.245 215.625 218.837 215.217 218.837 214.402V202.165H221.284V214.402Z" fill="white"/>
<path d="M216.387 184.626H217.203V218.889H216.387V184.626Z" fill="#B1CCDD"/>
<path d="M220.061 198.904C220.876 198.904 221.284 199.312 221.284 200.127V203.798H218.837V200.127C218.837 199.312 219.245 198.904 220.061 198.904Z" fill="#B1CCDD"/>
<path d="M223.73 198.904C224.546 198.904 224.954 199.312 224.954 200.127V203.798H222.507V200.127C222.507 199.312 222.915 198.904 223.73 198.904Z" fill="#B1CCDD"/>
<path d="M227.4 198.904C228.216 198.904 228.624 199.312 228.624 200.127V203.798H226.177V200.127C226.177 199.312 226.585 198.904 227.4 198.904Z" fill="#B1CCDD"/>
<path opacity="0.55" d="M224.954 214.402C224.954 215.217 224.546 215.625 223.73 215.625C222.915 215.625 222.507 215.217 222.507 214.402V202.165H224.954V214.402Z" fill="white"/>
<g opacity="0.55">
<path d="M228.624 214.4C228.624 215.216 228.216 215.623 227.4 215.623C226.585 215.623 226.177 215.216 226.177 214.4V202.163H228.624V214.4Z" fill="white"/>
</g>
<path d="M205.377 218.073H234.337V219.297H205.377V218.073Z" fill="#B1CCDD"/>
<path d="M229.441 203.797C229.441 204.205 229.034 204.205 229.034 204.205H217.613V202.981H228.626C229.034 202.981 229.441 203.389 229.441 203.797Z" fill="#B1CCDD"/>
<path d="M202.93 150.364C201.706 150.364 200.482 151.587 200.482 152.811V169.534C200.482 169.942 200.89 170.35 201.298 170.35H202.93C203.338 170.35 203.746 169.942 203.746 169.534C203.746 168.311 204.561 167.495 205.785 167.087C206.193 167.087 206.193 167.087 206.601 167.087H207.009V153.219C207.009 151.995 208.232 150.772 209.456 150.772H207.009H202.93V150.364Z" fill="#B1CCDD"/>
<path d="M222.915 166.68C224.139 166.68 225.363 167.904 225.363 169.535C225.363 169.943 225.771 170.351 226.179 170.351H230.257C230.665 170.351 231.073 169.943 231.073 169.535V166.68H222.915Z" fill="#B1CCDD"/>
<g opacity="0.55">
<path d="M206.191 145.878H202.112C201.704 145.878 201.704 146.286 201.704 146.286C201.704 146.694 202.112 146.694 202.112 146.694V163.418C202.112 164.641 202.928 165.457 204.151 165.457C205.375 165.457 206.191 164.641 206.191 163.418V146.694C206.599 146.694 206.599 146.286 206.599 146.286C206.599 145.878 206.599 145.878 206.191 145.878Z" fill="#FDFDFD"/>
</g>
<path d="M202.93 163.825C202.93 164.641 203.338 165.049 204.153 165.049C204.969 165.049 205.377 164.641 205.377 163.825V152.812H202.93V163.825Z" fill="#E6F5FF"/>
<g opacity="0.55">
<path d="M211.905 145.877H207.826C207.418 145.877 207.418 146.285 207.418 146.285C207.418 146.693 207.826 146.693 207.826 146.693V163.416C207.826 164.64 208.642 165.456 209.865 165.456C211.089 165.456 211.905 164.64 211.905 163.416V146.693C212.313 146.693 212.312 146.285 212.312 146.285C212.312 145.877 212.313 145.877 211.905 145.877Z" fill="#FDFDFD"/>
</g>
<path d="M208.643 163.825C208.643 164.641 209.051 165.049 209.867 165.049C210.683 165.049 211.091 164.641 211.091 163.825V152.812H208.643V163.825Z" fill="#B1CCDD"/>
<g opacity="0.55">
<path d="M218.027 145.877H213.948C213.54 145.877 213.54 146.285 213.54 146.285C213.54 146.693 213.948 146.693 213.948 146.693V163.417C213.948 164.64 214.764 165.456 215.987 165.456C217.211 165.456 218.027 164.64 218.027 163.417V146.693C218.435 146.693 218.435 146.285 218.435 146.285C218.435 145.877 218.027 145.877 218.027 145.877Z" fill="#FDFDFD"/>
</g>
<path d="M214.354 163.824C214.354 164.64 214.762 165.048 215.578 165.048C216.394 165.048 216.802 164.64 216.802 163.824V152.812H214.354V163.824Z" fill="#E6F5FF"/>
<g opacity="0.55">
<path d="M223.731 145.876H219.652C219.244 145.876 219.244 146.284 219.244 146.284C219.244 146.692 219.652 146.692 219.652 146.692V163.416C219.652 164.639 220.468 165.455 221.691 165.455C222.915 165.455 223.731 164.639 223.731 163.416V146.692C224.139 146.692 224.139 146.284 224.139 146.284C224.139 145.876 224.139 145.876 223.731 145.876Z" fill="#FDFDFD"/>
</g>
<path d="M220.47 163.825C220.47 164.641 220.878 165.049 221.693 165.049C222.509 165.049 222.917 164.641 222.917 163.825V152.812H220.47V163.825Z" fill="#B1CCDD"/>
<g opacity="0.55">
<path d="M229.443 145.877H225.364C224.956 145.877 224.956 146.285 224.956 146.285C224.956 146.693 225.364 146.693 225.364 146.693V163.416C225.364 164.64 226.18 165.456 227.403 165.456C228.627 165.456 229.443 164.64 229.443 163.416V146.693C229.851 146.693 229.851 146.285 229.851 146.285C230.258 145.877 229.851 145.877 229.443 145.877Z" fill="#FDFDFD"/>
</g>
<path opacity="0.87" d="M226.18 163.824C226.18 164.639 226.588 165.047 227.403 165.047C228.219 165.047 228.627 164.639 228.627 163.824V152.811H226.18V163.824Z" fill="#B1CCDD"/>
<path d="M231.891 152.811V169.535C231.891 170.35 231.075 171.166 230.259 171.166C230.259 171.166 230.259 171.166 229.851 171.166H225.772C224.957 171.166 224.141 170.35 224.141 169.535C224.141 168.719 223.325 167.903 222.509 167.903H206.194C205.378 167.903 204.562 168.719 204.562 169.535C204.562 170.35 203.746 171.166 202.931 171.166H202.523H200.891C200.075 171.166 199.26 170.35 199.26 169.535V167.903V166.271V152.811C199.26 150.772 200.891 149.14 202.931 149.14H209.049H228.22C230.259 149.14 231.891 150.772 231.891 152.811ZM230.667 152.811C230.667 151.587 229.443 150.364 228.22 150.364H209.049H206.602H202.931C201.707 150.364 200.483 151.587 200.483 152.811V166.271V167.903V169.535C200.483 169.942 200.891 170.35 201.299 170.35H202.931C203.338 170.35 203.746 169.942 203.746 169.535C203.746 168.311 204.562 167.495 205.786 167.087C206.194 167.087 206.194 167.087 206.602 167.087H207.009H222.917C222.917 167.087 222.917 167.087 223.325 167.087C224.549 167.087 225.772 168.311 225.772 169.942C225.772 170.35 226.18 170.758 226.588 170.758H230.667C231.075 170.758 231.483 170.35 231.483 169.942V152.811H230.667Z" fill="#FDFDFD"/>
<path d="M233.931 149.14H228.22C230.26 149.14 231.891 150.772 231.891 152.811V169.535C231.891 170.35 231.076 171.166 230.26 171.166H235.562C236.378 171.166 237.194 170.35 237.194 169.535V152.811C237.602 150.772 235.97 149.14 233.931 149.14Z" fill="#B1CCDD"/>
<path d="M204.968 169.534C204.968 170.35 204.153 171.166 203.337 171.166H207.416H211.495C212.311 171.166 213.126 170.35 213.126 169.534C213.126 168.719 213.942 167.903 214.758 167.903H206.192C205.376 167.903 204.968 168.719 204.968 169.534Z" fill="#E6F5FF"/>
<path d="M332.636 30.4434V298.426H262.887V30.4434H332.636ZM280.018 76.9426H315.097V40.6406H280.018V76.9426ZM280.018 125.073H315.097V88.7713H280.018V125.073ZM280.018 171.573H315.097V135.271H280.018V171.573ZM280.018 219.703H315.097V183.809H280.018V219.703Z" fill="#B1CCDD"/>
<path d="M315.097 30.4434V298.426H252.282V30.4434H315.097ZM262.479 76.9426H304.492V40.6406H262.479V76.9426ZM262.479 125.073H304.492V88.7713H262.479V125.073ZM262.479 171.573H304.492V135.271H262.479V171.573ZM262.479 219.703H304.492V183.809H262.479V219.703Z" fill="#E6F5FF"/>
</g>
<path d="M175.594 142.211H342.421C346.907 142.211 350.986 138.54 350.986 133.646V8.42399C350.986 5.16088 348.131 2.30566 344.868 2.30566H173.555C170.292 2.30566 167.437 5.16088 167.437 8.42399V133.646C167.437 138.54 171.108 142.211 175.594 142.211ZM344.46 4.3451C346.907 4.3451 348.539 6.38454 348.539 8.42399V133.646C348.539 137.317 345.684 140.172 342.013 140.172H175.594C171.923 140.172 169.068 137.317 169.068 133.646V8.42399C169.068 5.97666 171.108 4.3451 173.147 4.3451H344.46Z" fill="#FB6648"/>
<path d="M186.609 10.4678C185.934 10.4678 185.386 9.91999 185.386 9.24418C185.386 8.56837 185.934 8.02051 186.609 8.02051C187.285 8.02051 187.833 8.56837 187.833 9.24418C187.833 9.91999 187.285 10.4678 186.609 10.4678Z" fill="#2B1D40"/>
<path d="M181.715 8.02051C182.531 8.02051 182.938 8.4284 182.938 9.24418C182.938 10.06 182.531 10.4678 181.715 10.4678C180.899 10.4678 180.491 10.06 180.491 9.24418C180.083 8.83629 180.899 8.02051 181.715 8.02051Z" fill="url(#paint2_linear_703_5354)"/>
<path d="M176.411 10.4678C175.735 10.4678 175.187 9.91999 175.187 9.24418C175.187 8.56837 175.735 8.02051 176.411 8.02051C177.087 8.02051 177.635 8.56837 177.635 9.24418C177.635 9.91999 177.087 10.4678 176.411 10.4678Z" fill="url(#paint3_linear_703_5354)"/>
<path d="M219.653 16.5835H348.546V18.6229H219.653V16.5835Z" fill="#FB6648"/>
<path d="M286.538 47.5815H338.34V49.621H286.538V47.5815Z" fill="#1E1916"/>
<path d="M322.024 39.8325H338.34V41.872H322.024V39.8325Z" fill="#1E1916"/>
<path d="M303.262 39.8325H314.683V41.872H303.262V39.8325Z" fill="#1E1916"/>
<path d="M292.248 70.8311H338.34V72.8705H292.248V70.8311Z" fill="#1E1916"/>
<path d="M322.024 63.4878H338.34V65.5272H322.024V63.4878Z" fill="#1E1916"/>
<path d="M284.499 63.4878H314.683V65.5272H284.499V63.4878Z" fill="#1E1916"/>
<path d="M303.669 55.7383H338.34V57.7777H303.669V55.7383Z" fill="#1E1916"/>
<path d="M282.057 55.7383H299.188V57.7777H282.057V55.7383Z" fill="#1E1916"/>
<path d="M292.248 119.372H338.34V121.412H292.248V119.372Z" fill="#1E1916"/>
<path d="M322.024 111.621H338.34V113.66H322.024V111.621Z" fill="#1E1916"/>
<path d="M284.499 111.622H314.683V113.662H284.499V111.622Z" fill="#1E1916"/>
<path d="M303.669 104.279H338.34V106.319H303.669V104.279Z" fill="#1E1916"/>
<path d="M282.058 104.279H299.189V106.319H282.058V104.279Z" fill="#1E1916"/>
<path d="M292.248 95.7129H338.34V97.7523H292.248V95.7129Z" fill="#1E1916"/>
<path d="M322.024 87.9644H338.34V90.0038H322.024V87.9644Z" fill="#1E1916"/>
<path d="M284.499 87.9644H314.683V90.0038H284.499V87.9644Z" fill="#1E1916"/>
<path d="M303.669 80.2134H338.34V82.2528H303.669V80.2134Z" fill="#1E1916"/>
<path d="M282.058 80.2134H299.189V82.2528H282.058V80.2134Z" fill="#1E1916"/>
<path d="M220.052 126.303C229.025 126.303 236.367 105.909 236.367 79.8039C236.367 53.6991 229.025 33.3047 220.052 33.3047C211.078 33.3047 203.736 53.6991 203.736 79.8039C203.736 105.909 210.67 126.303 220.052 126.303ZM220.052 34.5284C227.802 34.5284 234.736 54.9228 234.736 79.3961C234.736 103.869 228.209 124.264 220.052 124.264C212.302 124.264 205.368 103.869 205.368 79.3961C205.368 55.3307 211.894 34.5284 220.052 34.5284Z" fill="url(#paint4_linear_703_5354)"/>
<path d="M192.726 114.472C201.699 114.472 216.791 105.499 231.475 90.8147C249.83 72.4597 259.211 52.8811 253.093 46.3549C246.567 39.8287 226.988 49.2101 208.633 67.973C190.278 86.3279 180.897 105.907 187.015 112.433C188.239 114.064 190.278 114.472 192.726 114.472ZM246.975 46.3549C249.014 46.3549 250.646 46.7628 251.462 47.9865C253.909 50.4338 253.501 56.5521 249.422 64.302C245.343 72.4597 238.409 81.4333 229.843 89.9989C212.712 107.13 193.134 116.92 187.831 111.617C182.121 105.907 191.91 86.7358 209.449 69.6045C218.015 61.0389 227.396 54.1048 235.146 50.0259C240.041 47.5786 244.12 46.3549 246.975 46.3549Z" fill="url(#paint5_linear_703_5354)"/>
<path d="M220.054 95.7101C246.159 95.7101 266.554 88.3682 266.554 79.3946C266.554 70.4211 246.159 63.0791 220.054 63.0791C193.95 63.0791 173.555 70.4211 173.555 79.3946C173.555 88.3682 193.95 95.7101 220.054 95.7101ZM220.054 65.1185C244.528 65.1185 264.922 71.6447 264.922 79.8025C264.922 87.5524 244.528 94.4865 220.054 94.4865C195.581 94.4865 175.187 87.9603 175.187 79.8025C175.187 71.6447 195.581 65.1185 220.054 65.1185Z" fill="url(#paint6_linear_703_5354)"/>
<path d="M247.385 114.472C249.833 114.472 251.872 113.656 253.096 112.433C259.622 105.906 250.241 86.3277 231.478 67.9727C213.123 49.6178 193.544 40.2364 187.018 46.3547C183.755 49.6178 184.571 56.144 188.649 64.7096C192.728 72.8674 199.662 82.2488 208.636 91.2224C222.912 105.498 238.412 114.472 247.385 114.472ZM230.254 69.1964C247.385 86.3277 257.175 105.906 251.872 111.209C249.425 113.656 243.306 113.248 235.557 109.169C227.399 105.091 218.425 98.1565 209.86 89.5908C201.294 81.0252 194.36 71.6437 190.281 63.8939C186.61 56.144 185.794 50.0257 188.242 47.5783C193.952 42.2758 213.123 52.0651 230.254 69.1964Z" fill="url(#paint7_linear_703_5354)"/>
<path d="M213.528 79.3952C213.528 83.4741 216.791 86.7372 220.87 86.7372C224.949 86.7372 228.212 83.4741 228.212 79.3952C228.212 75.3163 224.949 72.0532 220.87 72.0532C216.383 72.4611 213.528 75.7242 213.528 79.3952Z" fill="url(#paint8_linear_703_5354)"/>
<path d="M93.2041 48.3979C102.993 46.3585 109.112 36.5692 107.072 26.7799C105.033 16.9905 95.2435 10.8722 85.4542 12.9117C75.6649 14.9511 69.5465 24.7404 71.586 34.5297C73.6254 44.3191 83.4147 50.4374 93.2041 48.3979Z" fill="url(#paint9_linear_703_5354)"/>
<path d="M89.1249 60.6319V59.8161C87.9012 59.8161 86.6776 59.8161 85.4539 59.4082V60.224C86.6776 60.6319 87.9012 60.6319 89.1249 60.6319ZM95.2432 60.224C95.2432 59.8161 95.2432 59.8161 95.2432 60.224C96.8748 59.8161 98.0984 59.4082 98.9142 59.4082L98.5063 58.5925C97.2826 59.0003 96.4669 59.4082 95.2432 59.4082H94.8353L95.2432 60.224ZM79.3356 59.0004L79.7435 58.1846C78.5198 57.7767 77.704 57.3688 76.4803 56.9609L76.0725 57.7767C76.8882 57.7767 78.1119 58.5925 79.3356 59.0004ZM104.625 56.553C105.848 55.7372 106.664 55.3294 107.48 54.5136L107.072 53.6978C106.256 54.5136 105.033 54.9215 104.217 55.7372L104.625 56.553ZM70.7699 54.1057L71.1778 53.2899C70.362 52.4741 69.5463 51.6584 68.7305 50.8426L67.9147 51.6584C68.7305 52.4741 69.9542 53.2899 70.7699 54.1057ZM111.967 50.0268C112.782 49.211 113.598 47.9874 114.006 47.1716L113.19 46.7637C112.374 47.5795 111.967 48.8031 111.151 49.6189L111.967 50.0268ZM64.2437 46.7637L65.0595 46.3558C64.2437 45.54 63.8358 44.3164 63.4279 43.5006L62.6122 43.9085C63.0201 44.7243 63.4279 45.9479 64.2437 46.7637ZM117.269 41.4612C117.677 40.2375 118.085 39.0138 118.493 38.1981L117.677 37.7902C117.269 39.0138 116.861 39.8296 116.453 41.0533L117.269 41.4612ZM60.1648 37.7902L60.9806 37.3823C60.9806 36.9744 60.9806 36.9744 60.9806 36.5665C60.9806 35.7507 60.5727 34.935 60.5727 34.1192H59.7569C59.7569 34.935 60.1648 35.7507 60.1648 36.9744C60.1648 36.9744 60.1648 37.3823 60.1648 37.7902ZM119.309 32.0797C119.309 31.6718 119.309 31.264 119.309 30.8561C119.309 30.0403 119.309 29.2245 119.309 28.4088H118.493C118.493 29.2245 118.493 30.0403 118.493 30.8561C118.493 31.264 118.493 31.6718 118.493 32.0797H119.309ZM60.5727 28.0009C60.5727 26.7772 60.9806 25.5535 60.9806 24.7378H60.1648C59.7569 25.9614 59.7569 27.1851 59.7569 28.4088L60.5727 28.0009ZM117.269 22.2904L118.085 21.8825C117.677 20.6589 117.269 19.4352 116.861 18.6194L116.046 19.0273C116.453 20.251 116.861 21.4747 117.269 22.2904ZM63.0201 18.6194C63.4279 17.3958 64.2437 16.58 64.6516 15.3563L63.8358 14.9484C63.02 16.1721 62.6122 16.9879 62.2043 18.2116L63.0201 18.6194ZM113.19 13.7248L114.006 13.3169C113.19 12.5011 112.375 11.2775 111.559 10.4617L110.743 10.8696C111.559 12.0932 112.374 12.909 113.19 13.7248ZM68.3226 10.8696C69.1384 10.0538 69.9542 9.23801 70.7699 8.42223L70.362 7.60646C69.5462 8.42223 68.7305 9.23802 67.9147 10.0538L68.3226 10.8696ZM106.256 7.19857L106.664 6.38279C105.848 5.56702 104.625 5.15913 103.809 4.34335L103.401 5.15913C104.217 5.97491 105.44 6.3828 106.256 7.19857ZM75.6646 5.15913C76.8882 4.75125 77.704 3.93546 78.9277 3.52757L78.5198 2.7118C77.2961 3.11969 76.4804 3.52758 75.2567 4.34335L75.6646 5.15913ZM97.6905 3.11969L98.0984 2.30391C96.8748 1.89603 95.6511 1.48813 94.4274 1.48813V2.30391C95.6511 2.30391 96.4669 2.7118 97.6905 3.11969ZM84.6381 1.89602C85.8618 1.89602 87.0854 1.48813 87.9012 1.48813V0.672363C86.6776 0.672363 85.4539 0.672365 84.2302 1.08025L84.6381 1.89602Z" fill="url(#paint10_linear_703_5354)"/>
<path d="M70.3606 56.5528C72.8079 56.1449 74.4395 53.6975 73.6237 51.2502C73.2158 48.8029 70.7685 47.1713 68.3212 47.9871C65.8738 48.395 64.2423 50.8423 65.0581 53.2897C65.466 55.737 67.9133 56.9606 70.3606 56.5528Z" fill="url(#paint11_linear_703_5354)"/>
<mask id="mask1_703_5354" style="mask-type:luminance" maskUnits="userSpaceOnUse" x="49" y="64" width="275" height="228">
<path d="M49.5584 64.3013H323.659V291.087H49.5584V64.3013Z" fill="white"/>
</mask>
<g mask="url(#mask1_703_5354)">
<path d="M223.318 271.915V421.202H147.043L60.9789 216.442H129.504C181.714 239.692 223.318 271.915 223.318 271.915Z" fill="url(#paint12_linear_703_5354)"/>
<path d="M223.318 271.915H149.491L60.9789 216.442H130.728C177.227 238.06 214.753 265.388 223.318 271.915Z" fill="#1E1916"/>
<path d="M149.488 421.202H74.8448C67.5028 421.202 61.3845 415.083 61.3845 407.741V216.442C61.3845 216.442 113.186 236.428 149.488 271.915V421.202Z" fill="url(#paint13_linear_703_5354)"/>
<path d="M161.726 248.665C162.542 255.191 156.423 263.349 156.423 263.349C126.24 228.271 59.346 205.429 59.346 205.429C57.7144 199.311 58.9381 191.969 58.9381 191.969C132.766 210.732 161.726 248.665 161.726 248.665Z" fill="url(#paint14_linear_703_5354)"/>
<path d="M230.661 248.665C228.214 257.23 223.727 262.533 222.911 263.349H156.426C160.097 258.454 161.32 248.665 161.32 248.665H230.661Z" fill="url(#paint15_linear_703_5354)"/>
<path d="M230.661 248.665H161.728C161.728 248.665 130.321 214.81 59.3482 191.969H148.676C148.268 191.969 205.372 217.666 230.661 248.665Z" fill="url(#paint16_linear_703_5354)"/>
<path d="M195.585 226.64H144.599C142.56 225.008 140.112 223.377 137.257 221.745H188.243C190.69 222.969 193.138 224.6 195.585 226.64Z" fill="url(#paint17_linear_703_5354)"/>
<path d="M215.566 242.138H164.172C162.541 240.506 159.686 238.059 155.607 234.796H207.001C209.856 237.243 212.711 239.691 215.566 242.138Z" fill="url(#paint18_linear_703_5354)"/>
<path d="M101.358 171.573V198.086C101.358 198.086 93.6085 193.599 85.8586 191.967L89.9375 169.125L101.358 171.573Z" fill="#1E1916"/>
<path d="M133.178 198.086H101.362V171.574H128.283L133.178 198.086Z" fill="url(#paint19_linear_703_5354)"/>
<path d="M69.1343 96.5229L76.0684 179.324H62.2002C58.1213 179.324 54.8582 176.469 54.4503 172.39C52.8188 161.377 51.5951 137.312 60.5686 105.496C62.2002 101.418 65.0554 98.1545 69.1343 96.5229Z" fill="#1E1916"/>
<path d="M69.5458 96.522H143.781C145.821 96.522 147.452 98.1535 147.86 100.193L156.018 175.244C156.426 177.692 154.387 179.731 151.939 179.731H76.072C74.0326 179.731 72.401 178.1 71.9931 176.06L65.4669 101.009C65.4669 98.5614 67.5064 96.522 69.5458 96.522Z" fill="url(#paint20_linear_703_5354)"/>
<path d="M74.4379 103.865H140.108C140.516 103.865 140.516 104.273 140.516 104.273L147.042 167.087H78.9247L73.6221 104.681C73.6221 104.273 73.6221 104.273 73.6221 104.273C74.03 103.865 74.03 103.865 74.4379 103.865Z" fill="url(#paint21_linear_703_5354)"/>
<path d="M79.3348 112.022H137.255V112.838H79.3348V112.022Z" fill="url(#paint22_linear_703_5354)"/>
<path d="M140.934 162.194C140.934 161.786 140.526 161.786 140.526 161.786H140.118C139.71 161.786 139.71 162.194 139.71 162.194C139.71 162.601 140.118 162.601 140.118 162.601H140.526C140.934 162.601 140.934 162.601 140.934 162.194ZM136.855 162.194C136.855 161.786 136.447 161.786 136.447 161.786H136.039C135.631 161.786 135.631 162.194 135.631 162.194C135.631 162.601 136.039 162.601 136.039 162.601H136.447C136.855 162.601 136.855 162.601 136.855 162.194ZM133.184 162.194C133.184 161.786 132.776 161.786 132.776 161.786H132.368C131.96 161.786 131.96 162.194 131.96 162.194C131.96 162.601 132.368 162.601 132.368 162.601H132.776C132.776 162.601 133.184 162.601 133.184 162.194ZM129.105 162.194C129.105 161.786 128.697 161.786 128.697 161.786H128.289C127.881 161.786 127.881 162.194 127.881 162.194C127.881 162.601 128.289 162.601 128.289 162.601H128.697C128.697 162.601 129.105 162.601 129.105 162.194ZM125.026 162.194C125.026 161.786 124.618 161.786 124.618 161.786H124.21C123.802 161.786 123.802 162.194 123.802 162.194C123.802 162.601 124.21 162.601 124.21 162.601H124.618C124.618 162.601 125.026 162.601 125.026 162.194ZM120.947 162.194C120.947 161.786 120.539 161.786 120.539 161.786H120.131C119.723 161.786 119.723 162.194 119.723 162.194C119.723 162.601 120.131 162.601 120.131 162.601H120.539C120.947 162.601 120.947 162.601 120.947 162.194ZM116.868 162.194C116.868 161.786 116.46 161.786 116.46 161.786H116.052C115.645 161.786 115.645 162.194 115.645 162.194C115.645 162.601 116.052 162.601 116.052 162.601H116.46C116.868 162.601 116.868 162.601 116.868 162.194ZM112.789 162.194C112.789 161.786 112.381 161.786 112.381 161.786H111.974C111.566 161.786 111.566 162.194 111.566 162.194C111.566 162.601 111.974 162.601 111.974 162.601H112.381C112.789 162.601 112.789 162.601 112.789 162.194ZM109.118 162.194C109.118 161.786 108.71 161.786 108.71 161.786H108.303C107.895 161.786 107.895 162.194 107.895 162.194C107.895 162.601 108.303 162.601 108.303 162.601H108.71C108.71 162.601 109.118 162.601 109.118 162.194ZM105.039 162.194C105.039 161.786 104.632 161.786 104.632 161.786H104.224C103.816 161.786 103.816 162.194 103.816 162.194C103.816 162.601 104.224 162.601 104.224 162.601H104.632C104.632 162.601 105.039 162.601 105.039 162.194ZM100.961 162.194C100.961 161.786 100.553 161.786 100.553 161.786H100.145C99.7369 161.786 99.7369 162.194 99.7369 162.194C99.7369 162.601 100.145 162.601 100.145 162.601H100.553C100.553 162.601 100.961 162.601 100.961 162.194ZM96.8817 162.194C96.8817 161.786 96.4738 161.786 96.4738 161.786H96.0659C95.658 161.786 95.658 162.194 95.658 162.194C95.658 162.601 96.0659 162.601 96.0659 162.601H96.4738C96.8817 162.601 96.8817 162.601 96.8817 162.194ZM92.8028 162.194C92.8028 161.786 92.3949 161.786 92.3949 161.786H91.987C91.5791 161.786 91.5791 162.194 91.5791 162.194C91.5791 162.601 91.987 162.601 91.987 162.601H92.3949C92.8028 162.601 92.8028 162.601 92.8028 162.194ZM88.7239 162.194C88.7239 161.786 88.316 161.786 88.316 161.786H87.9081C87.5003 161.786 87.5003 162.194 87.5003 162.194C87.5003 162.601 87.9081 162.601 87.9081 162.601H88.316C88.7239 162.601 88.7239 162.601 88.7239 162.194ZM85.0529 162.194C85.0529 161.786 84.645 161.786 84.645 161.786H84.2371C83.8293 161.786 83.8293 162.194 83.8293 162.194C83.8293 162.601 84.2371 162.601 84.2371 162.601H84.645C84.645 162.601 85.0529 162.601 85.0529 162.194Z" fill="url(#paint23_linear_703_5354)"/>
<path d="M125.428 154.444L125.836 153.628L113.191 143.431L112.376 144.246L125.428 154.444Z" fill="white"/>
<path d="M123.387 154.034C123.387 155.666 124.611 157.297 126.65 157.297C128.282 157.297 129.913 156.074 129.913 154.034C129.913 152.403 128.689 150.771 126.65 150.771C124.611 150.771 123.387 152.403 123.387 154.034Z" fill="url(#paint24_linear_703_5354)"/>
<path d="M115.232 135.68L131.548 126.299L130.732 125.483L114.824 134.864L115.232 135.68Z" fill="white"/>
<path d="M104.623 134.457L105.438 134.049C105.031 133.234 96.8728 122.628 96.057 121.405L95.2413 122.221C98.9123 126.299 104.623 133.641 104.623 134.457Z" fill="white"/>
<path d="M92.7959 142.206L104.217 139.759V138.535L92.388 141.39L92.7959 142.206Z" fill="white"/>
<path d="M129.504 124.668C129.504 126.3 130.728 127.931 132.767 127.931C134.399 127.931 136.03 126.708 136.03 124.668C136.03 123.037 134.807 121.405 132.767 121.405C130.728 121.405 129.504 123.037 129.504 124.668Z" fill="url(#paint25_linear_703_5354)"/>
<path d="M87.8966 141.798C87.8966 143.43 89.1203 145.061 91.1598 145.061C92.7913 145.061 94.4229 143.838 94.4229 141.798C94.4229 140.167 93.1992 138.535 91.1598 138.535C89.1203 138.943 87.8966 140.167 87.8966 141.798Z" fill="url(#paint26_linear_703_5354)"/>
<path d="M91.5705 119.773C91.5705 121.404 92.7941 123.036 94.8336 123.036C96.4651 123.036 98.0967 121.812 98.0967 119.773C98.0967 118.141 96.873 116.51 94.8336 116.51C92.7941 116.918 91.5705 118.141 91.5705 119.773Z" fill="url(#paint27_linear_703_5354)"/>
<path d="M109.521 146.285C105.241 146.285 101.771 142.815 101.771 138.535C101.771 134.255 105.241 130.785 109.521 130.785C113.801 130.785 117.271 134.255 117.271 138.535C117.271 142.815 113.801 146.285 109.521 146.285Z" fill="url(#paint28_linear_703_5354)"/>
<path d="M251.873 139.352C251.873 137.72 251.465 136.496 250.649 135.273C249.834 134.049 248.61 133.233 246.978 133.233C246.571 133.233 242.9 132.825 238.821 134.457L238.413 134.865L241.268 141.799C241.268 141.799 243.715 144.654 247.794 144.654C250.649 144.654 251.873 141.799 251.873 139.352ZM240.044 135.273C243.715 134.049 246.978 134.457 246.978 134.457C248.202 134.457 249.018 134.865 249.426 136.089C249.834 136.904 250.242 138.128 250.242 139.352C250.242 141.391 249.426 143.431 247.794 143.431C244.531 143.431 242.492 141.391 242.084 140.983L240.044 135.273Z" fill="url(#paint29_linear_703_5354)"/>
<path d="M275.123 150.365C275.939 148.326 271.86 125.076 266.149 123.037C263.702 122.221 253.097 123.037 250.65 123.037C241.676 123.037 244.123 134.458 244.531 141.8C244.939 150.365 248.61 163.01 255.544 163.418C256.36 163.418 257.584 163.01 259.215 162.602L262.478 172.391C262.478 172.391 276.754 176.062 282.465 166.273L275.123 150.365Z" fill="#FAAF9A"/>
<path d="M276.344 351.046C264.107 355.533 241.674 354.717 218.424 355.533C195.174 356.757 150.307 361.651 136.439 355.941C126.649 351.862 104.215 338.402 118.491 317.192C132.768 295.574 260.844 286.192 274.305 284.968C287.765 283.745 308.567 338.402 276.344 351.046Z" fill="#1E1916"/>
<path d="M255.953 172.8C237.19 179.326 224.953 194.418 214.756 237.246C207.822 265.39 218.835 271.916 213.124 280.074C210.269 284.153 157.244 289.863 112.784 314.337C116.863 354.718 166.625 393.875 194.361 385.309C197.625 384.493 180.901 360.836 183.756 359.204C183.756 359.204 274.715 375.928 305.307 336.363C328.965 305.363 320.807 233.575 318.359 211.141C315.504 188.707 304.491 169.129 291.439 167.905C280.834 167.089 270.637 167.497 255.953 172.8Z" fill="url(#paint30_linear_703_5354)"/>
<path d="M214.756 219.297C211.493 223.376 206.19 229.902 201.296 236.428C185.388 230.718 167.033 223.784 164.586 222.56C160.915 220.928 159.691 219.297 159.283 211.139C158.875 202.981 156.836 203.389 149.902 200.126C143.375 196.863 144.599 192.376 136.849 196.047C129.099 199.718 120.126 193.192 118.494 195.639C117.271 198.087 129.099 203.389 129.099 203.389C129.099 203.389 127.06 208.692 129.099 210.731C131.139 212.771 131.955 207.468 134.81 205.837C139.297 203.389 144.599 207.06 141.744 212.363C138.889 217.665 143.375 222.968 143.375 222.968C143.375 222.968 180.085 273.138 200.888 280.48C207.822 282.927 213.532 282.519 217.611 280.48C229.44 276.401 242.9 261.717 254.321 243.362C265.742 224.192 231.479 198.087 214.756 219.297Z" fill="#FAAF9A"/>
<path d="M171.521 225.415C168.257 224.191 165.81 222.967 164.994 222.559C161.323 220.928 160.1 219.296 159.692 211.139C159.284 202.981 157.244 203.389 150.31 200.126C143.784 196.863 145.008 192.376 137.258 196.047C129.508 199.718 120.534 193.192 118.903 195.639C117.679 198.086 129.508 203.389 129.508 203.389C129.508 203.389 127.469 208.691 129.508 210.731C131.547 212.77 132.363 207.468 135.218 205.836C139.705 203.389 145.008 207.06 142.153 212.362C139.297 217.665 143.784 222.967 143.784 222.967C143.784 222.967 149.495 230.717 157.652 240.507C159.284 232.349 164.994 228.27 171.521 225.415Z" fill="url(#paint31_linear_703_5354)"/>
<path d="M265.743 175.245C272.269 178.1 279.204 183.403 277.572 200.942C275.533 218.481 260.849 248.257 244.941 268.652C244.941 268.652 215.165 264.165 200.889 231.942C200.889 231.942 227.81 194.824 237.599 183.811C246.98 173.206 258.401 171.982 265.743 175.245Z" fill="url(#paint32_linear_703_5354)"/>
<path d="M246.979 240.099C244.124 240.507 242.492 240.507 242.492 240.507V239.283C242.492 239.283 258.4 239.691 264.518 223.375L265.334 224.191C261.255 235.612 252.282 239.283 246.979 240.099Z" fill="#1E1916"/>
<path d="M244.943 269.468C244.535 269.468 230.259 265.797 218.838 256.416L219.654 255.6C229.851 263.758 242.496 267.429 244.535 268.244C246.983 264.981 269.009 233.982 275.535 207.877L276.351 208.285C269.824 236.021 245.351 269.06 244.943 269.468Z" fill="#1E1916"/>
<path d="M291.44 137.312C288.993 114.879 275.94 107.537 258.401 115.287C250.651 118.957 250.243 116.51 244.941 120.997C239.638 125.076 255.138 145.47 255.138 145.47L258.401 136.089C258.401 136.089 264.52 139.352 266.151 147.918C267.783 156.891 267.375 181.772 267.375 181.772C267.375 181.772 290.216 183.812 302.453 174.838C302.045 175.246 292.256 146.694 291.44 137.312Z" fill="#1E1916"/>
<path d="M266.965 138.944C268.188 142.208 266.557 145.879 263.294 146.694C260.439 147.51 257.175 145.471 255.952 142.208C254.728 138.944 256.36 135.273 259.623 134.458C262.886 133.642 266.149 135.681 266.965 138.944Z" fill="#FAAF9A"/>
<path d="M262.073 145.471C261.257 145.471 260.441 145.063 260.033 144.655L260.849 143.839C261.257 144.247 261.665 144.247 262.073 144.247C262.073 144.247 262.073 144.247 262.48 143.839C262.48 143.431 262.48 143.431 262.073 143.023C261.665 142.615 261.257 141.8 261.257 140.576C261.257 139.76 261.665 138.944 262.073 138.537C262.48 137.721 262.48 137.721 262.073 136.905C261.665 136.905 261.665 136.497 261.257 136.497C260.441 136.497 259.217 137.721 258.809 138.129L257.994 137.313C257.994 136.905 259.625 135.273 261.257 135.273C261.665 135.273 262.48 135.273 262.888 135.681C264.112 136.905 263.704 137.721 263.296 138.537C262.888 138.944 262.888 139.352 262.48 140.168C262.48 140.984 262.888 141.392 262.888 141.8C263.296 142.208 263.704 142.615 263.296 143.839C263.296 144.247 262.888 144.655 262.48 144.655C262.073 145.471 262.073 145.471 262.073 145.471Z" fill="#1E1916"/>
<path d="M259.215 163.01L258.807 162.194C258.807 162.194 262.07 160.971 264.11 159.747L264.518 160.563C262.478 161.787 259.215 163.01 259.215 163.01Z" fill="#ED7662"/>
<path d="M257.99 136.498C257.99 136.09 239.635 135.274 239.635 135.274L241.675 140.169L256.359 139.761C256.359 139.761 257.174 137.313 257.99 136.498Z" fill="url(#paint33_linear_703_5354)"/>
</g>
<path d="M31.6129 161.383C29.9814 161.383 29.1656 162.199 29.1656 163.831C29.1656 164.239 29.1656 164.646 29.1656 165.054C29.1656 166.278 29.9814 167.502 31.2051 167.502C32.4287 167.502 33.6523 166.686 33.6523 165.462C33.6523 165.054 33.6523 164.239 33.6523 163.831C33.6523 162.607 32.8366 161.383 31.6129 161.383Z" fill="url(#paint34_linear_703_5354)"/>
<path d="M29.1651 153.633C27.9415 154.449 26.7178 154.041 25.902 152.817C25.4941 152.002 24.6783 151.186 24.2704 150.37C23.4546 149.554 23.4547 147.923 24.6783 147.107C25.0862 146.699 25.902 146.699 26.3099 146.699C27.1256 146.699 27.5336 147.107 27.9414 147.515C28.7572 148.331 29.573 149.554 29.9809 150.37C30.3888 151.594 30.3888 153.225 29.1651 153.633ZM18.9679 141.396C18.9679 141.804 18.56 141.804 18.56 141.804C17.7442 142.62 16.1127 143.028 15.2969 141.804C14.4811 140.989 13.6654 140.173 12.8496 139.765C12.0338 138.949 12.0338 137.318 12.8496 136.502C13.2575 136.094 14.0733 135.686 14.889 135.686C15.2969 135.686 16.1127 136.094 16.5206 136.502C17.3363 137.318 18.1521 137.725 18.9679 138.541C19.3758 138.949 19.3758 138.949 19.7837 139.357C19.3758 140.173 19.3758 140.581 18.9679 141.396ZM7.9549 130.383C6.73123 130.791 5.50762 130.383 4.69184 129.16C4.28395 127.936 3.87605 127.12 3.46816 125.897C3.06028 124.673 3.87603 123.449 5.09969 123.041C5.50758 123.041 5.50757 123.041 5.91545 123.041C6.73123 123.041 7.54701 123.857 7.9549 124.673C8.36278 125.489 8.36283 126.305 8.77072 127.12C9.5865 128.344 8.77067 129.976 7.9549 130.383ZM9.17857 110.805C8.77068 111.621 8.36281 112.436 8.36281 113.252C7.95492 114.476 6.73127 115.292 5.5076 114.884C4.28394 114.476 3.46813 113.252 3.87601 112.028C4.2839 110.805 4.6918 109.989 5.09969 108.765C5.50758 107.95 6.32338 107.542 7.54704 107.542C7.95493 107.542 7.95492 107.542 8.36281 107.95C9.17858 108.358 9.58646 109.581 9.17857 110.805ZM18.9679 100.608C18.1521 101.423 17.3363 101.831 16.5206 102.239C15.2969 103.055 14.0732 102.647 13.2575 101.831C12.4417 100.608 12.8496 99.384 13.6654 98.5682C14.4811 98.1603 15.2969 97.3445 16.5206 96.5287C16.9285 96.1208 17.3363 96.1209 18.1521 96.1209C18.9679 96.1209 19.3758 96.5287 19.7837 96.9366C20.1916 98.1603 20.1916 99.7918 18.9679 100.608ZM32.0203 91.2262C31.2046 92.042 30.3887 92.4499 29.573 93.2656C28.3493 94.0814 27.1256 93.6735 26.3099 92.8578C25.4941 91.6341 25.902 90.4104 26.7178 89.5947C27.5335 88.7789 28.3493 88.371 29.1651 87.5552C29.573 87.1473 30.3888 86.7394 30.7966 87.1473C31.2045 87.1473 32.0203 87.5552 32.4282 87.9631C33.244 88.7789 33.244 90.4104 32.0203 91.2262ZM39.7702 79.8053C39.3623 81.029 38.1386 81.8448 36.915 81.4369C35.6913 81.029 34.8756 79.8053 35.2834 78.5817C35.6913 77.7659 35.6913 76.9501 36.0992 75.7265C36.0992 74.5028 37.3228 73.687 38.5465 73.687C39.7702 73.687 40.5859 74.9107 40.5859 76.5422C40.178 77.358 40.1781 78.5817 39.7702 79.8053Z" fill="url(#paint35_linear_703_5354)"/>
<path d="M12.444 149.554C11.6282 150.37 10.8125 150.778 10.4046 151.594C9.5888 152.41 7.95723 152.818 7.14146 151.594C6.32568 150.778 6.32568 149.147 7.14146 148.331C7.95723 147.515 8.77304 146.699 9.58881 145.883C9.9967 145.476 10.8125 145.068 11.2203 145.476C11.6282 145.476 12.444 145.883 12.8519 146.291C13.6677 147.107 13.2598 148.739 12.444 149.554ZM25.0886 140.581C24.2728 140.989 23.457 141.805 22.2333 142.212C21.0096 143.028 19.786 142.62 18.9703 141.397C18.9703 141.397 18.9702 140.989 18.5623 140.989C18.1544 140.581 18.1544 139.765 18.5623 138.949C18.5623 138.541 18.9702 138.134 19.3781 138.134C20.1939 137.726 21.0097 136.91 21.8255 136.502C22.2333 136.094 22.6412 136.094 23.457 136.094C24.2728 136.094 24.6807 136.502 25.0886 136.91C26.7201 138.541 26.3122 139.765 25.0886 140.581ZM36.5094 128.344C36.1015 129.568 35.2857 130.384 34.8779 131.607C34.0621 132.831 32.8384 132.831 31.6147 132.423C30.3911 131.607 30.3911 130.384 30.799 129.16C31.2069 128.344 31.6148 127.528 32.0227 126.713C32.4305 125.897 33.2463 125.081 34.4699 125.489C34.8778 125.489 34.8779 125.489 35.2858 125.489C36.5094 125.489 37.3252 127.121 36.5094 128.344ZM36.5094 117.331C35.2857 117.331 34.0621 116.515 33.6542 115.292C33.6542 114.476 33.2463 113.252 33.2463 112.437C32.8384 111.213 33.6542 109.989 34.8779 109.581C35.2857 109.581 35.2857 109.581 35.6936 109.581C36.5094 109.581 37.3252 110.397 37.7331 111.213C38.141 112.437 38.1409 113.66 38.5488 114.476C38.5488 115.7 37.7331 116.923 36.5094 117.331ZM30.3911 103.055C29.5753 103.871 27.9438 103.871 27.128 103.055C26.3122 102.239 25.9043 101.832 25.0886 101.016C24.2728 100.2 24.2728 98.5684 25.0886 97.7526C25.4965 97.3448 26.3122 96.9369 27.128 96.9369C27.5359 96.9369 28.3517 97.3448 28.7595 97.7526C29.5753 98.5684 30.3911 99.3842 31.2069 100.2C31.2069 100.608 31.2068 101.832 30.3911 103.055ZM18.9703 92.0422C18.1545 92.858 16.5229 92.858 15.7071 92.0422C14.8914 91.2264 14.0756 90.4107 13.6677 89.5949C12.8519 88.3712 12.8519 87.1475 14.0755 86.3318C14.4834 85.9239 15.2992 85.9239 15.7071 85.9239C16.5229 85.9239 16.9308 86.3318 17.3387 86.7397C17.7465 87.5554 18.5623 88.3712 19.3781 88.7791C19.786 89.5949 19.786 91.2264 18.9703 92.0422ZM10.4046 78.9898C9.18091 78.9898 7.95722 78.174 7.95722 76.9504C7.95722 75.7267 7.95722 74.503 7.95722 73.2794C7.95722 72.0557 9.18091 70.832 10.4046 70.832C11.6282 70.832 12.444 72.0557 12.444 73.2794C12.444 74.0951 12.444 75.3188 12.444 76.1346C12.444 77.3582 11.6282 78.5819 10.4046 78.9898Z" fill="url(#paint36_linear_703_5354)"/>
<path d="M3.06072 159.345C1.83705 159.345 0.613427 160.161 0.613427 161.385C0.613427 161.793 0.613427 162.608 0.613427 163.016C0.613427 164.24 1.4292 165.464 2.65287 165.464C3.87653 165.464 5.10016 164.648 5.10016 163.424C5.10016 163.016 5.10016 162.608 5.10016 162.2C5.50805 160.569 4.69227 159.345 3.06072 159.345Z" fill="url(#paint37_linear_703_5354)"/>
<path d="M27.1286 165.87C27.5365 165.87 27.9443 165.462 27.9443 165.054C27.9443 164.646 27.5365 164.238 27.1286 164.238L7.54993 162.606C7.14204 162.606 6.73417 163.014 6.73417 163.422C6.73417 163.83 7.14204 164.238 7.54993 164.238L27.1286 165.87Z" fill="#0058C0"/>
<path d="M29.9811 127.937C30.389 127.937 30.7969 127.53 30.7969 127.122C30.7969 126.714 30.389 126.306 29.9811 126.306L10.4025 124.674C9.99458 124.674 9.58671 125.082 9.58671 125.49C9.58671 125.898 9.99458 126.306 10.4025 126.306L29.9811 127.937Z" fill="#0058C0"/>
<path d="M34.0622 77.3559C34.4701 77.3559 34.8779 76.948 34.8779 76.5401C34.8779 76.1322 34.4701 75.7243 34.0622 75.7243L14.4835 74.0928C14.0756 74.0928 13.6678 74.5007 13.6678 74.9086C13.6678 75.3164 14.0756 75.7243 14.4835 75.7243L34.0622 77.3559Z" fill="#0058C0"/>
<path d="M31.2087 114.882C31.6165 114.882 32.0244 114.474 32.0244 114.066C32.0244 113.658 31.6165 113.25 31.2087 113.25L11.63 111.619C11.2221 111.619 10.8142 112.027 10.8142 112.434C10.8142 112.842 11.2221 113.25 11.63 113.25L31.2087 114.882Z" fill="#FF4528"/>
<path d="M23.0534 152.41C23.4613 152.41 23.8691 152.002 23.8691 151.594C23.8691 151.186 23.4613 150.778 23.0534 150.778L12.8562 149.962C12.4483 149.962 12.0403 150.37 12.0403 150.778C12.0403 151.186 12.4483 151.594 12.8562 151.594L23.0534 152.41Z" fill="#FF4528"/>
<path d="M24.6794 103.462C25.0872 103.462 25.4951 103.054 25.4951 102.647C25.4951 102.239 25.0872 101.831 24.6794 101.831L19.3768 101.423C18.9689 101.423 18.561 101.831 18.561 102.239C18.561 102.647 18.9689 103.054 19.3768 103.054L24.6794 103.462Z" fill="#0058C0"/>
<path d="M25.901 88.7777C26.3089 88.7777 26.7168 88.3698 26.7168 87.9619C26.7168 87.5541 26.3089 87.1462 25.901 87.1462L20.5985 86.7383C20.1906 86.7383 19.7827 87.1462 19.7827 87.5541C19.7827 87.9619 20.1906 88.3698 20.5985 88.3698L25.901 88.7777Z" fill="#FF4528"/>
<path d="M45.4744 291.089H320.799V293.129H45.4744V291.089Z" fill="#1A1A1A"/>
<defs>
<radialGradient id="paint0_radial_703_5354" cx="0" cy="0" r="1" gradientUnits="userSpaceOnUse" gradientTransform="translate(114.581 250.901) rotate(180) scale(37.3923 37.3923)">
<stop stop-color="#B3D6FF"/>
<stop offset="1" stop-color="#E6F2FE"/>
</radialGradient>
<radialGradient id="paint1_radial_703_5354" cx="0" cy="0" r="1" gradientUnits="userSpaceOnUse" gradientTransform="translate(185.68 158.806) rotate(180) scale(137.486 137.486)">
<stop stop-color="#B3D6FF"/>
<stop offset="1" stop-color="#E6F2FE"/>
</radialGradient>
<linearGradient id="paint2_linear_703_5354" x1="182.766" y1="9.33676" x2="180.281" y2="9.33676" gradientUnits="userSpaceOnUse">
<stop stop-color="#0E218A"/>
<stop offset="1" stop-color="#1F72D2"/>
</linearGradient>
<linearGradient id="paint3_linear_703_5354" x1="177.523" y1="9.33676" x2="175.038" y2="9.33676" gradientUnits="userSpaceOnUse">
<stop stop-color="#F6462E"/>
<stop offset="1" stop-color="#FB7D42"/>
</linearGradient>
<linearGradient id="paint4_linear_703_5354" x1="236.313" y1="79.5869" x2="203.706" y2="79.5869" gradientUnits="userSpaceOnUse">
<stop stop-color="#0E218A"/>
<stop offset="1" stop-color="#1F72D2"/>
</linearGradient>
<linearGradient id="paint5_linear_703_5354" x1="255.003" y1="79.5855" x2="185.024" y2="79.5855" gradientUnits="userSpaceOnUse">
<stop stop-color="#FEA235"/>
<stop offset="1" stop-color="#FFB44F"/>
</linearGradient>
<linearGradient id="paint6_linear_703_5354" x1="220.014" y1="95.8913" x2="220.014" y2="63.2839" gradientUnits="userSpaceOnUse">
<stop stop-color="#0E218A"/>
<stop offset="1" stop-color="#1F72D2"/>
</linearGradient>
<linearGradient id="paint7_linear_703_5354" x1="255.006" y1="79.5841" x2="185.019" y2="79.5841" gradientUnits="userSpaceOnUse">
<stop stop-color="#FEA235"/>
<stop offset="1" stop-color="#FFB44F"/>
</linearGradient>
<linearGradient id="paint8_linear_703_5354" x1="227.656" y1="79.5861" x2="213.364" y2="79.5861" gradientUnits="userSpaceOnUse">
<stop stop-color="#F6462E"/>
<stop offset="1" stop-color="#FB7D42"/>
</linearGradient>
<linearGradient id="paint9_linear_703_5354" x1="85.6182" y1="12.9183" x2="93.0881" y2="48.473" gradientUnits="userSpaceOnUse">
<stop stop-color="#F6462E"/>
<stop offset="1" stop-color="#FB7D42"/>
</linearGradient>
<linearGradient id="paint10_linear_703_5354" x1="83.1685" y1="1.4759" x2="95.4553" y2="59.9691" gradientUnits="userSpaceOnUse">
<stop stop-color="#0E218A"/>
<stop offset="1" stop-color="#1F72D2"/>
</linearGradient>
<linearGradient id="paint11_linear_703_5354" x1="68.4503" y1="47.9921" x2="70.2689" y2="56.6482" gradientUnits="userSpaceOnUse">
<stop stop-color="#0E218A"/>
<stop offset="1" stop-color="#1F72D2"/>
</linearGradient>
<linearGradient id="paint12_linear_703_5354" x1="61.1519" y1="318.866" x2="223.299" y2="318.866" gradientUnits="userSpaceOnUse">
<stop stop-color="#EBEAE5"/>
<stop offset="1" stop-color="#ABAFB8"/>
</linearGradient>
<linearGradient id="paint13_linear_703_5354" x1="61.1495" y1="318.866" x2="149.419" y2="318.866" gradientUnits="userSpaceOnUse">
<stop stop-color="#EBEAE5"/>
<stop offset="1" stop-color="#ABAFB8"/>
</linearGradient>
<linearGradient id="paint14_linear_703_5354" x1="58.5053" y1="227.758" x2="161.592" y2="227.758" gradientUnits="userSpaceOnUse">
<stop stop-color="#EBEAE5"/>
<stop offset="1" stop-color="#ABAFB8"/>
</linearGradient>
<linearGradient id="paint15_linear_703_5354" x1="156.461" y1="256.077" x2="230.518" y2="256.077" gradientUnits="userSpaceOnUse">
<stop stop-color="#EBEAE5"/>
<stop offset="1" stop-color="#ABAFB8"/>
</linearGradient>
<linearGradient id="paint16_linear_703_5354" x1="59.0255" y1="220.326" x2="230.518" y2="220.326" gradientUnits="userSpaceOnUse">
<stop stop-color="#EBEAE5"/>
<stop offset="1" stop-color="#ABAFB8"/>
</linearGradient>
<linearGradient id="paint17_linear_703_5354" x1="137.53" y1="224.007" x2="195.694" y2="224.007" gradientUnits="userSpaceOnUse">
<stop stop-color="#0E218A"/>
<stop offset="1" stop-color="#1F72D2"/>
</linearGradient>
<linearGradient id="paint18_linear_703_5354" x1="155.84" y1="238.606" x2="215.586" y2="238.606" gradientUnits="userSpaceOnUse">
<stop stop-color="#237C8F"/>
<stop offset="1" stop-color="#2ABDD1"/>
</linearGradient>
<linearGradient id="paint19_linear_703_5354" x1="101.389" y1="184.846" x2="133.192" y2="184.846" gradientUnits="userSpaceOnUse">
<stop stop-color="#EBEAE5"/>
<stop offset="1" stop-color="#ABAFB8"/>
</linearGradient>
<linearGradient id="paint20_linear_703_5354" x1="65.7957" y1="137.917" x2="155.843" y2="137.917" gradientUnits="userSpaceOnUse">
<stop stop-color="#EBEAE5"/>
<stop offset="1" stop-color="#ABAFB8"/>
</linearGradient>
<linearGradient id="paint21_linear_703_5354" x1="73.8261" y1="135.488" x2="147.361" y2="135.488" gradientUnits="userSpaceOnUse">
<stop stop-color="#0E218A"/>
<stop offset="1" stop-color="#1F72D2"/>
</linearGradient>
<linearGradient id="paint22_linear_703_5354" x1="79.4241" y1="112.427" x2="137.269" y2="112.427" gradientUnits="userSpaceOnUse">
<stop stop-color="#CAF0DB"/>
<stop offset="1" stop-color="#F8F7DB"/>
</linearGradient>
<linearGradient id="paint23_linear_703_5354" x1="83.6938" y1="162.238" x2="141.033" y2="162.238" gradientUnits="userSpaceOnUse">
<stop stop-color="#CAF0DB"/>
<stop offset="1" stop-color="#F8F7DB"/>
</linearGradient>
<linearGradient id="paint24_linear_703_5354" x1="129.526" y1="153.913" x2="123.34" y2="153.913" gradientUnits="userSpaceOnUse">
<stop stop-color="#CAF0DB"/>
<stop offset="1" stop-color="#F8F7DB"/>
</linearGradient>
<linearGradient id="paint25_linear_703_5354" x1="135.711" y1="124.666" x2="129.525" y2="124.666" gradientUnits="userSpaceOnUse">
<stop stop-color="#CAF0DB"/>
<stop offset="1" stop-color="#F8F7DB"/>
</linearGradient>
<linearGradient id="paint26_linear_703_5354" x1="93.9672" y1="141.849" x2="87.7812" y2="141.849" gradientUnits="userSpaceOnUse">
<stop stop-color="#CAF0DB"/>
<stop offset="1" stop-color="#F8F7DB"/>
</linearGradient>
<linearGradient id="paint27_linear_703_5354" x1="97.7381" y1="119.929" x2="91.5521" y2="119.929" gradientUnits="userSpaceOnUse">
<stop stop-color="#CAF0DB"/>
<stop offset="1" stop-color="#F8F7DB"/>
</linearGradient>
<linearGradient id="paint28_linear_703_5354" x1="117.431" y1="138.541" x2="101.657" y2="138.541" gradientUnits="userSpaceOnUse">
<stop stop-color="#CAF0DB"/>
<stop offset="1" stop-color="#F8F7DB"/>
</linearGradient>
<linearGradient id="paint29_linear_703_5354" x1="238.733" y1="138.86" x2="251.814" y2="138.86" gradientUnits="userSpaceOnUse">
<stop stop-color="#0E218A"/>
<stop offset="1" stop-color="#1F72D2"/>
</linearGradient>
<linearGradient id="paint30_linear_703_5354" x1="198.604" y1="351.263" x2="278.512" y2="167.262" gradientUnits="userSpaceOnUse">
<stop stop-color="#237C8F"/>
<stop offset="1" stop-color="#2ABDD1"/>
</linearGradient>
<linearGradient id="paint31_linear_703_5354" x1="123.65" y1="220.459" x2="168.702" y2="211.368" gradientUnits="userSpaceOnUse">
<stop stop-color="#237C8F"/>
<stop offset="1" stop-color="#2ABDD1"/>
</linearGradient>
<linearGradient id="paint32_linear_703_5354" x1="210.018" y1="352.998" x2="251.951" y2="156.829" gradientUnits="userSpaceOnUse">
<stop stop-color="#237C8F"/>
<stop offset="1" stop-color="#2ABDD1"/>
</linearGradient>
<linearGradient id="paint33_linear_703_5354" x1="239.437" y1="137.525" x2="257.881" y2="137.525" gradientUnits="userSpaceOnUse">
<stop stop-color="#0E218A"/>
<stop offset="1" stop-color="#1F72D2"/>
</linearGradient>
<linearGradient id="paint34_linear_703_5354" x1="31.5025" y1="161.453" x2="31.0062" y2="167.747" gradientUnits="userSpaceOnUse">
<stop stop-color="#0E218A"/>
<stop offset="1" stop-color="#1F72D2"/>
</linearGradient>
<linearGradient id="paint35_linear_703_5354" x1="23.704" y1="72.4652" x2="17.3265" y2="153.352" gradientUnits="userSpaceOnUse">
<stop stop-color="#0E218A"/>
<stop offset="1" stop-color="#1F72D2"/>
</linearGradient>
<linearGradient id="paint36_linear_703_5354" x1="-6.27698" y1="116.629" x2="38.7618" y2="102.262" gradientUnits="userSpaceOnUse">
<stop stop-color="#F6462E"/>
<stop offset="1" stop-color="#FB7D42"/>
</linearGradient>
<linearGradient id="paint37_linear_703_5354" x1="0.365488" y1="163.183" x2="113.622" y2="127.054" gradientUnits="userSpaceOnUse">
<stop stop-color="#F6462E"/>
<stop offset="1" stop-color="#FB7D42"/>
</linearGradient>
</defs>
</svg>
