<svg width="132" height="100" viewBox="0 0 132 100" fill="none" xmlns="http://www.w3.org/2000/svg">
<g clip-path="url(#clip0_657_97)">
<path d="M52.0594 38.7998C47.0594 38.3998 42.2594 36.6998 37.9594 33.8998C34.0594 31.3998 29.3594 29.8998 24.3594 29.9998C11.2594 30.0998 0.559374 40.7998 0.359374 53.8998C0.159374 67.4998 11.1594 78.5998 24.6594 78.5998C29.6594 78.5998 34.2594 77.0998 38.0594 74.5998C42.9594 71.3998 48.5594 69.6998 54.4594 69.6998H55.3594C62.9594 69.6998 70.2594 72.5998 75.7594 77.8998C81.6594 83.5998 89.6594 87.0998 98.5594 87.0998C114.159 87.0998 127.259 76.1998 130.559 61.4998C122.059 66.9998 111.959 70.2998 101.059 70.2998C79.2594 70.2998 60.5594 57.3998 52.0594 38.7998Z" fill="black"/>
<path d="M49.1594 1.8999C43.5594 4.3999 39.7594 9.9999 39.7594 16.3999C39.7594 22.8999 43.6594 28.3999 49.1594 30.8999C47.8594 26.2999 47.1594 21.3999 47.1594 16.3999C47.1594 11.3999 47.8594 6.4999 49.1594 1.8999Z" fill="black"/>
<path d="M55.6593 99.4002C62.0658 99.4002 67.2593 94.2067 67.2593 87.8002C67.2593 81.3937 62.0658 76.2002 55.6593 76.2002C49.2528 76.2002 44.0593 81.3937 44.0593 87.8002C44.0593 94.2067 49.2528 99.4002 55.6593 99.4002Z" fill="black"/>
<path d="M99.4593 21.5001C90.3593 21.3001 82.0593 24.7001 75.9593 30.5001C70.3593 35.8001 63.0593 38.9001 55.3593 38.9001H54.4593C53.6593 38.9001 52.8593 38.9001 52.0593 38.8001C60.5593 57.4001 79.2593 70.3001 101.059 70.3001C111.959 70.3001 122.059 67.1001 130.559 61.5001C131.059 59.3001 131.359 57.0001 131.359 54.7001C131.559 36.8001 117.259 22.0001 99.4593 21.5001Z" fill="#676767"/>
<path d="M71.6594 16.4C71.6594 7.6 64.4594 0.5 55.6594 0.5C53.3594 0.5 51.1594 1 49.1594 1.9C47.8594 6.5 47.1594 11.4 47.1594 16.4C47.1594 21.4 47.8594 26.3 49.1594 30.9C51.1594 31.8 53.3594 32.3 55.6594 32.3C64.4594 32.3 71.6594 25.2 71.6594 16.4Z" fill="#676767"/>
</g>
<defs>
<clipPath id="clip0_657_97">
<rect width="131" height="99" fill="white" transform="translate(0.359375 0.5)"/>
</clipPath>
</defs>
</svg>
