<svg width="25" height="24" viewBox="0 0 25 24" fill="none" xmlns="http://www.w3.org/2000/svg">
<path d="M16.4688 6V17.5C16.4688 19.71 14.6788 21.5 12.4688 21.5C10.2587 21.5 8.46875 19.71 8.46875 17.5V5C8.46875 3.62 9.58875 2.5 10.9688 2.5C12.3487 2.5 13.4688 3.62 13.4688 5V15.5C13.4688 16.05 13.0188 16.5 12.4688 16.5C11.9187 16.5 11.4688 16.05 11.4688 15.5V6H9.96875V15.5C9.96875 16.88 11.0888 18 12.4688 18C13.8487 18 14.9688 16.88 14.9688 15.5V5C14.9688 2.79 13.1788 1 10.9688 1C8.75875 1 6.96875 2.79 6.96875 5V17.5C6.96875 20.54 9.42875 23 12.4688 23C15.5087 23 17.9688 20.54 17.9688 17.5V6H16.4688Z" fill="black"/>
</svg>
