<svg width="43" height="67" viewBox="0 0 43 67" fill="none" xmlns="http://www.w3.org/2000/svg">
<g clip-path="url(#clip0_613_98)">
<path d="M21.2 62.1001C12 62.1001 4.5 63.1001 4.5 64.4001C4.5 65.7001 12 66.7001 21.2 66.7001C30.4 66.7001 37.9 65.7001 37.9 64.4001C37.8 63.1001 30.4 62.1001 21.2 62.1001Z" fill="#B1DAF5"/>
<path d="M21.2 0C9.5 0 0 10.1 0 22.6C0 35 21.2 65.1 21.2 65.1C21.2 65.1 42.4 35 42.4 22.6C42.4 10.1 32.9 0 21.2 0Z" fill="#7AB6E4"/>
<path d="M21.2 12.7998C16.5 12.7998 12.7 16.5998 12.7 21.2998C12.7 25.9998 16.5 29.7998 21.2 29.7998C25.9 29.7998 29.7 25.9998 29.7 21.2998C29.7 16.6998 25.9 12.7998 21.2 12.7998Z" fill="white"/>
</g>
<defs>
<clipPath id="clip0_613_98">
<rect width="42.4" height="66.6" fill="white"/>
</clipPath>
</defs>
</svg>
