<svg width="21" height="19" viewBox="0 0 21 19" fill="none" xmlns="http://www.w3.org/2000/svg">
<path d="M10.2483 4.87793V0.87793H0.248291V18.8779H20.2483V4.87793H10.2483ZM4.24829 16.8779H2.24829V14.8779H4.24829V16.8779ZM4.24829 12.8779H2.24829V10.8779H4.24829V12.8779ZM4.24829 8.87793H2.24829V6.87793H4.24829V8.87793ZM4.24829 4.87793H2.24829V2.87793H4.24829V4.87793ZM8.24829 16.8779H6.24829V14.8779H8.24829V16.8779ZM8.24829 12.8779H6.24829V10.8779H8.24829V12.8779ZM8.24829 8.87793H6.24829V6.87793H8.24829V8.87793ZM8.24829 4.87793H6.24829V2.87793H8.24829V4.87793ZM18.2483 16.8779H10.2483V14.8779H12.2483V12.8779H10.2483V10.8779H12.2483V8.87793H10.2483V6.87793H18.2483V16.8779ZM14.2483 8.87793H16.2483V10.8779H14.2483V8.87793ZM14.2483 12.8779H16.2483V14.8779H14.2483V12.8779Z" fill="#595857"/>
<path opacity="0.3" d="M10.2483 8.87793H12.2483V10.8779H10.2483V12.8779H12.2483V14.8779H10.2483V16.8779H18.2483V6.87793H10.2483V8.87793ZM14.2483 8.87793H16.2483V10.8779H14.2483V8.87793ZM14.2483 12.8779H16.2483V14.8779H14.2483V12.8779Z" fill="#595857"/>
</svg>
