<svg width="24" height="25" viewBox="0 0 24 25" fill="none" xmlns="http://www.w3.org/2000/svg">
<path opacity="0.3" d="M6 10.9692V20.9692H11.29C11.1 20.3392 11 19.6692 11 18.9692C11 15.0992 14.13 11.9692 18 11.9692V10.9692H6Z" fill="#565656"/>
<path d="M6 20.9692V10.9692H18V11.9692C18.7 11.9692 19.37 12.0692 20 12.2592V10.9692C20 9.86924 19.1 8.96924 18 8.96924H17V6.96924C17 4.20924 14.76 1.96924 12 1.96924C9.24 1.96924 7 4.20924 7 6.96924V8.96924H6C4.9 8.96924 4 9.86924 4 10.9692V20.9692C4 22.0692 4.9 22.9692 6 22.9692H12.26C11.84 22.3692 11.51 21.6892 11.29 20.9692H6ZM9 6.96924C9 5.30924 10.34 3.96924 12 3.96924C13.66 3.96924 15 5.30924 15 6.96924V8.96924H9V6.96924Z" fill="#565656"/>
<path d="M18 13.9692C15.24 13.9692 13 16.2092 13 18.9692C13 21.7292 15.24 23.9692 18 23.9692C20.76 23.9692 23 21.7292 23 18.9692C23 16.2092 20.76 13.9692 18 13.9692ZM18 15.9692C18.83 15.9692 19.5 16.6392 19.5 17.4692C19.5 18.2992 18.83 18.9692 18 18.9692C17.17 18.9692 16.5 18.2992 16.5 17.4692C16.5 16.6392 17.17 15.9692 18 15.9692ZM18 21.9692C16.97 21.9692 16.06 21.4492 15.52 20.6492C16.25 20.2292 17.09 19.9692 18 19.9692C18.91 19.9692 19.75 20.2292 20.48 20.6492C19.94 21.4492 19.03 21.9692 18 21.9692Z" fill="#565656"/>
</svg>
