<svg width="25" height="26" viewBox="0 0 25 26" fill="none" xmlns="http://www.w3.org/2000/svg">
<g clip-path="url(#clip0_520_94)">
<path d="M12.5 14.9004C16.3818 14.9004 19.5312 11.751 19.5312 7.86914C19.5312 3.9873 16.3818 0.837891 12.5 0.837891C8.61816 0.837891 5.46875 3.9873 5.46875 7.86914C5.46875 11.751 8.61816 14.9004 12.5 14.9004ZM18.75 16.4629H16.0596C14.9756 16.9609 13.7695 17.2441 12.5 17.2441C11.2305 17.2441 10.0293 16.9609 8.94043 16.4629H6.25C2.79785 16.4629 0 19.2607 0 22.7129V23.4941C0 24.7881 1.0498 25.8379 2.34375 25.8379H22.6562C23.9502 25.8379 25 24.7881 25 23.4941V22.7129C25 19.2607 22.2021 16.4629 18.75 16.4629Z" fill="#D7D7D7"/>
</g>
<defs>
<clipPath id="clip0_520_94">
<rect width="25" height="25" fill="white" transform="translate(0 0.837891)"/>
</clipPath>
</defs>
</svg>
