<svg width="25" height="24" viewBox="0 0 25 24" fill="none" xmlns="http://www.w3.org/2000/svg">
<path opacity="0.3" d="M12.6709 16C9.9809 16 6.9009 17.28 6.6709 18H18.6709C18.4709 17.29 15.3709 16 12.6709 16Z" fill="#767676"/>
<path opacity="0.3" d="M12.6709 10C13.7755 10 14.6709 9.10457 14.6709 8C14.6709 6.89543 13.7755 6 12.6709 6C11.5663 6 10.6709 6.89543 10.6709 8C10.6709 9.10457 11.5663 10 12.6709 10Z" fill="#767676"/>
<path d="M12.6709 14C10.0009 14 4.6709 15.34 4.6709 18V20H20.6709V18C20.6709 15.34 15.3409 14 12.6709 14ZM6.6709 18C6.8909 17.28 9.9809 16 12.6709 16C15.3709 16 18.4709 17.29 18.6709 18H6.6709ZM12.6709 12C14.8809 12 16.6709 10.21 16.6709 8C16.6709 5.79 14.8809 4 12.6709 4C10.4609 4 8.6709 5.79 8.6709 8C8.6709 10.21 10.4609 12 12.6709 12ZM12.6709 6C13.7709 6 14.6709 6.9 14.6709 8C14.6709 9.1 13.7709 10 12.6709 10C11.5709 10 10.6709 9.1 10.6709 8C10.6709 6.9 11.5709 6 12.6709 6Z" fill="#767676"/>
</svg>
