<svg width="25" height="25" viewBox="0 0 25 25" fill="none" xmlns="http://www.w3.org/2000/svg">
<path d="M9.43335 12.124C11.3633 12.124 12.9333 10.554 12.9333 8.62402C12.9333 6.69402 11.3633 5.12402 9.43335 5.12402C7.50335 5.12402 5.93335 6.69402 5.93335 8.62402C5.93335 10.554 7.50335 12.124 9.43335 12.124ZM9.43335 7.12402C10.2633 7.12402 10.9333 7.79402 10.9333 8.62402C10.9333 9.45402 10.2633 10.124 9.43335 10.124C8.60335 10.124 7.93335 9.45402 7.93335 8.62402C7.93335 7.79402 8.60335 7.12402 9.43335 7.12402ZM9.43335 13.874C7.09335 13.874 2.43335 15.044 2.43335 17.374V19.124H16.4333V17.374C16.4333 15.044 11.7733 13.874 9.43335 13.874ZM4.77335 17.124C5.61335 16.544 7.64335 15.874 9.43335 15.874C11.2233 15.874 13.2533 16.544 14.0933 17.124H4.77335ZM16.4734 13.934C17.6334 14.774 18.4333 15.894 18.4333 17.374V19.124H22.4333V17.374C22.4333 15.354 18.9333 14.204 16.4734 13.934ZM15.4333 12.124C17.3633 12.124 18.9333 10.554 18.9333 8.62402C18.9333 6.69402 17.3633 5.12402 15.4333 5.12402C14.8933 5.12402 14.3933 5.25402 13.9333 5.47402C14.5633 6.36402 14.9333 7.45402 14.9333 8.62402C14.9333 9.79402 14.5633 10.884 13.9333 11.774C14.3933 11.994 14.8933 12.124 15.4333 12.124Z" fill="#595857"/>
</svg>
