<svg width="20" height="20" viewBox="0 0 20 20" fill="none" xmlns="http://www.w3.org/2000/svg">
<g clip-path="url(#clip0_304_1138)">
<path d="M5.13695 19.1425C4.16436 19.1425 3.37744 18.3556 3.37744 17.383V10.958H6.89645V17.383C6.89645 18.3556 6.10954 19.1425 5.13695 19.1425Z" fill="#FFBF77"/>
<path d="M17.9133 10.7636C19.0657 10.7636 20 9.82941 20 8.67698C20 7.52456 19.0657 6.59033 17.9133 6.59033C16.7609 6.59033 15.8267 7.52456 15.8267 8.67698C15.8267 9.82941 16.7609 10.7636 17.9133 10.7636Z" fill="#FFBF77"/>
<path d="M1.99504 11.4678L16.5191 16.4309C17.2824 16.6933 18.0782 16.1244 18.0782 15.3169V2.03661C18.0782 1.22906 17.2824 0.660243 16.5191 0.922548L1.99504 5.88571C-0.666317 6.79641 -0.666317 10.56 1.99504 11.4678Z" fill="url(#paint0_linear_304_1138)"/>
<path d="M7.48294 14.9988C7.48294 14.5655 7.13222 14.2178 6.70192 14.2178C6.27162 14.2178 5.9209 14.5685 5.9209 14.9988C5.9209 15.4291 6.27162 15.7798 6.70192 15.7798C7.13222 15.7798 7.48294 15.4291 7.48294 14.9988Z" fill="#FFBF77"/>
</g>
<defs>
<linearGradient id="paint0_linear_304_1138" x1="15.7999" y1="17.3122" x2="7.37082" y2="2.71153" gradientUnits="userSpaceOnUse">
<stop stop-color="#F9951F"/>
<stop offset="1" stop-color="#ECF8A8"/>
</linearGradient>
<clipPath id="clip0_304_1138">
<rect width="20" height="18.2847" fill="white" transform="translate(0 0.85791)"/>
</clipPath>
</defs>
</svg>
