<svg width="30" height="29" viewBox="0 0 30 29" fill="none" xmlns="http://www.w3.org/2000/svg">
<g clip-path="url(#clip0_314_299)">
<path d="M8.40344 0.196777H21.2668C22.3068 0.196777 23.1468 1.04011 23.1468 2.07678V9.91011C23.1468 10.9468 22.3034 11.7901 21.2668 11.7901H8.40344C7.36677 11.7901 6.52344 10.9468 6.52344 9.91011V2.08011C6.52344 1.04011 7.36677 0.20011 8.40344 0.20011V0.196777Z" fill="url(#paint0_linear_314_299)"/>
<path d="M26.3233 7.99023H3.34667C1.49835 7.99023 0 9.48859 0 11.3369V21.6102C0 23.4585 1.49835 24.9569 3.34667 24.9569H26.3233C28.1716 24.9569 29.67 23.4585 29.67 21.6102V11.3369C29.67 9.48859 28.1716 7.99023 26.3233 7.99023Z" fill="url(#paint1_linear_314_299)"/>
<path d="M26.4702 18.367C26.4702 18.8503 26.0802 19.2403 25.5969 19.2403H4.07353C3.5902 19.2403 3.2002 18.8503 3.2002 18.367C3.2002 17.8837 3.5902 17.4937 4.07353 17.4937H25.5969C26.0802 17.4937 26.4702 17.8837 26.4702 18.367Z" fill="url(#paint2_linear_314_299)"/>
<path d="M6.52344 17.4937V27.0737C6.52344 28.1137 7.36677 28.9537 8.40344 28.9537H21.2668C22.3068 28.9537 23.1468 28.1103 23.1468 27.0737V17.4937H6.52344Z" fill="url(#paint3_linear_314_299)"/>
<path d="M20.4601 21.0636C20.4601 21.5202 20.0901 21.8869 19.6368 21.8869H10.0401C9.58346 21.8869 9.2168 21.5169 9.2168 21.0636C9.2168 20.6069 9.5868 20.2402 10.0401 20.2402H19.6368C20.0935 20.2402 20.4601 20.6102 20.4601 21.0636Z" fill="url(#paint4_linear_314_299)"/>
<path d="M20.4601 24.94C20.4601 25.3967 20.0901 25.7634 19.6368 25.7634H10.0401C9.58346 25.7634 9.2168 25.3934 9.2168 24.94C9.2168 24.4834 9.5868 24.1167 10.0401 24.1167H19.6368C20.0935 24.1167 20.4601 24.4867 20.4601 24.94Z" fill="url(#paint5_linear_314_299)"/>
<g style="mix-blend-mode:multiply">
<path d="M23.1468 21.1637V17.4937H6.52344V21.1637" fill="#DDDDDE"/>
</g>
<path d="M24.5699 12.7102C24.5699 12.3768 24.1799 12.1035 23.6966 12.1035C23.2132 12.1035 22.8232 12.3735 22.8232 12.7102C22.8232 13.0468 23.2132 13.3169 23.6966 13.3169C24.1799 13.3169 24.5699 13.0468 24.5699 12.7102Z" fill="url(#paint6_linear_314_299)"/>
<path d="M27.4801 11.0267C27.4801 10.5433 27.0901 10.1533 26.6067 10.1533C26.1234 10.1533 25.7334 10.5433 25.7334 11.0267C25.7334 11.51 26.1234 11.9 26.6067 11.9C27.0901 11.9 27.4801 11.51 27.4801 11.0267Z" fill="url(#paint7_linear_314_299)"/>
</g>
<defs>
<linearGradient id="paint0_linear_314_299" x1="8.3301" y1="-0.509889" x2="21.3401" y2="12.5001" gradientUnits="userSpaceOnUse">
<stop stop-color="#D9F0FD"/>
<stop offset="1" stop-color="#DBDEEE"/>
</linearGradient>
<linearGradient id="paint1_linear_314_299" x1="4.83333" y1="9.16683" x2="29.67" y2="24.9569" gradientUnits="userSpaceOnUse">
<stop stop-color="#54AAFD"/>
<stop offset="1" stop-color="#1D58A5"/>
</linearGradient>
<linearGradient id="paint2_linear_314_299" x1="8.83686" y1="12.367" x2="20.8335" y2="24.3637" gradientUnits="userSpaceOnUse">
<stop stop-color="#006732"/>
<stop offset="1" stop-color="#002C3A"/>
</linearGradient>
<linearGradient id="paint3_linear_314_299" x1="8.0901" y1="15.927" x2="21.5834" y2="29.4203" gradientUnits="userSpaceOnUse">
<stop stop-color="#D8EFFC"/>
<stop offset="1" stop-color="#DAE2F1"/>
</linearGradient>
<linearGradient id="paint4_linear_314_299" x1="11.8535" y1="18.0802" x2="17.8168" y2="24.0436" gradientUnits="userSpaceOnUse">
<stop stop-color="#0091D3"/>
<stop offset="1" stop-color="#1D58A5"/>
</linearGradient>
<linearGradient id="paint5_linear_314_299" x1="11.8535" y1="21.9567" x2="17.8168" y2="27.9234" gradientUnits="userSpaceOnUse">
<stop stop-color="#0091D3"/>
<stop offset="1" stop-color="#1D58A5"/>
</linearGradient>
<linearGradient id="paint6_linear_314_299" x1="22.8266" y1="12.7102" x2="24.5699" y2="12.7102" gradientUnits="userSpaceOnUse">
<stop stop-color="#EBB743"/>
<stop offset="1" stop-color="#F29045"/>
</linearGradient>
<linearGradient id="paint7_linear_314_299" x1="25.7334" y1="11.0267" x2="27.4801" y2="11.0267" gradientUnits="userSpaceOnUse">
<stop stop-color="#E3AF47"/>
<stop offset="1" stop-color="#E89047"/>
</linearGradient>
<clipPath id="clip0_314_299">
<rect width="30" height="29" fill="white"/>
</clipPath>
</defs>
</svg>
