<svg width="25" height="25" viewBox="0 0 25 25" fill="none" xmlns="http://www.w3.org/2000/svg">
<g clip-path="url(#clip0_314_290)">
<path d="M16.7076 2.5H3.52235C1.57701 2.5 0 4.15999 0 6.20769V20.0868C0 22.1345 1.57701 23.7945 3.52235 23.7945H16.7076C18.653 23.7945 20.23 22.1345 20.23 20.0868V6.20769C20.23 4.15999 18.653 2.5 16.7076 2.5Z" fill="url(#paint0_linear_314_290)"/>
<path d="M21.2327 4.28027L6.10645 11.6423L21.2327 19.0009" stroke="white" stroke-width="2" stroke-miterlimit="10"/>
<path d="M9.89603 13.0852C10.6924 11.1482 9.76779 8.93236 7.83077 8.13595C5.89375 7.33955 3.67788 8.2642 2.88147 10.2012C2.08507 12.1382 3.00972 14.3541 4.94673 15.1505C6.88375 15.9469 9.09963 15.0223 9.89603 13.0852Z" fill="url(#paint1_linear_314_290)"/>
<path d="M23.8842 6.67853C25.3651 5.1976 25.3651 2.79654 23.8842 1.31561C22.4033 -0.165316 20.0022 -0.165316 18.5213 1.31561C17.0404 2.79654 17.0404 5.1976 18.5213 6.67853C20.0022 8.15946 22.4033 8.15946 23.8842 6.67853Z" fill="url(#paint2_linear_314_290)"/>
<path d="M22.0825 22.9759C24.1202 22.4923 25.3802 20.4484 24.8966 18.4106C24.413 16.3729 22.369 15.113 20.3313 15.5966C18.2935 16.0801 17.0336 18.1241 17.5172 20.1618C18.0008 22.1996 20.0447 23.4595 22.0825 22.9759Z" fill="url(#paint3_linear_314_290)"/>
</g>
<defs>
<linearGradient id="paint0_linear_314_290" x1="21.5105" y1="23.7944" x2="-1.00831" y2="23.7944" gradientUnits="userSpaceOnUse">
<stop stop-color="#2673BA"/>
<stop offset="1" stop-color="#54AAFD"/>
</linearGradient>
<linearGradient id="paint1_linear_314_290" x1="8.28745" y1="14.9267" x2="4.49177" y2="8.35482" gradientUnits="userSpaceOnUse">
<stop stop-color="#E89333"/>
<stop offset="1" stop-color="#F6FFBC"/>
</linearGradient>
<linearGradient id="paint2_linear_314_290" x1="23.1002" y1="7.28298" x2="19.3045" y2="0.711091" gradientUnits="userSpaceOnUse">
<stop stop-color="#E89333"/>
<stop offset="1" stop-color="#F6FFBC"/>
</linearGradient>
<linearGradient id="paint3_linear_314_290" x1="23.1033" y1="22.5735" x2="19.3076" y2="16.0016" gradientUnits="userSpaceOnUse">
<stop stop-color="#E89333"/>
<stop offset="1" stop-color="#F6FFBC"/>
</linearGradient>
<clipPath id="clip0_314_290">
<rect width="25" height="24.5943" fill="white" transform="translate(0 0.202637)"/>
</clipPath>
</defs>
</svg>
