<svg width="21" height="23" viewBox="0 0 21 23" fill="none" xmlns="http://www.w3.org/2000/svg">
<path d="M0 9.9225C0 9.51657 0.313401 9.1875 0.7 9.1875H20.3C20.6866 9.1875 21 9.51657 21 9.9225V12.1275C21 12.5334 20.6866 12.8625 20.3 12.8625H0.700001C0.313401 12.8625 0 12.5334 0 12.1275V9.9225Z" fill="#848484"/>
<path d="M11.55 9.63836e-08C11.9366 1.14127e-07 12.25 0.329071 12.25 0.735L12.25 21.315C12.25 21.7209 11.9366 22.05 11.55 22.05H9.45C9.0634 22.05 8.75 21.7209 8.75 21.315L8.75 0.735001C8.75 0.329071 9.0634 -1.77437e-08 9.45 0L11.55 9.63836e-08Z" fill="#848484"/>
</svg>
