<svg width="20" height="17" viewBox="0 0 20 17" fill="none" xmlns="http://www.w3.org/2000/svg">
<path d="M9.82411 12.4508C11.9887 14.8887 14.0436 16.2378 14.9129 15.6289C16.0576 14.8284 14.7149 10.936 11.9134 6.93598C9.11404 2.93597 5.91446 0.343163 4.7719 1.14575C3.6272 1.94618 4.96986 5.83861 7.77138 9.83863" stroke="white" stroke-miterlimit="10"/>
<path d="M13.9794 6.43811C13.4329 7.52257 12.7357 8.69095 11.9095 9.86793C9.10797 13.8679 5.91055 16.4607 4.768 15.6582C3.62329 14.8577 4.96594 10.9653 7.76746 6.96528C10.569 2.96526 13.7664 0.37246 14.909 1.17505C15.5136 1.59893 15.4232 2.8878 14.7885 4.60271" stroke="white" stroke-miterlimit="10"/>
<path d="M4.15439 6.4843C2.22647 6.94906 1 7.64406 1 8.42083C1 9.81729 4.95699 10.9491 9.8392 10.9491C14.7214 10.9491 18.6784 9.81729 18.6784 8.42083C18.6784 7.02437 14.7214 5.89258 9.8392 5.89258C8.35883 5.89258 6.96453 5.99586 5.73806 6.18091" stroke="white" stroke-miterlimit="10"/>
<path d="M11.1713 2.42877C11.2401 2.81392 11.6059 3.07213 11.9932 3.00327C12.3784 2.93442 12.6366 2.56863 12.5677 2.18132C12.4989 1.79617 12.1331 1.53797 11.7458 1.60682C11.3606 1.67567 11.1024 2.04146 11.1713 2.42877Z" fill="white"/>
<path d="M1.37891 9.62197C1.37891 10.0136 1.6952 10.3299 2.08681 10.3299C2.47842 10.3299 2.79472 10.0136 2.79472 9.62197C2.79472 9.23036 2.47842 8.91406 2.08681 8.91406C1.6952 8.91406 1.37891 9.23036 1.37891 9.62197Z" fill="white"/>
<path d="M14.5033 13.2791C14.4345 13.6642 14.6927 14.0322 15.0778 14.101C15.463 14.1699 15.8309 13.9117 15.8998 13.5265C15.9686 13.1413 15.7104 12.7734 15.3253 12.7045C14.9401 12.6357 14.5722 12.8917 14.5033 13.2791Z" fill="white"/>
<path d="M8.52344 8.41821C8.52344 9.14333 9.11085 9.7329 9.83813 9.7329C10.5632 9.7329 11.1528 9.14549 11.1528 8.41821C11.1528 7.69309 10.5654 7.10352 9.83813 7.10352C9.11085 7.10567 8.52344 7.69309 8.52344 8.41821Z" fill="white"/>
</svg>
