<svg width="31" height="35" viewBox="0 0 31 35" fill="none" xmlns="http://www.w3.org/2000/svg">
<g clip-path="url(#clip0_1188_703)">
<path d="M28.0612 34.9998H2.59771C1.16551 34.9998 0 33.8343 0 32.3972V6.93365C0 5.49651 1.16551 4.33594 2.59771 4.33594H28.0612C29.4984 4.33594 30.659 5.50145 30.659 6.93365V32.3972C30.6639 33.8343 29.4984 34.9998 28.0612 34.9998Z" fill="url(#paint0_linear_1188_703)"/>
<path d="M18.0992 2.47919C17.9461 1.0865 16.7658 0 15.3286 0C13.8915 0 12.7112 1.0865 12.5581 2.47919H9.93566C8.59729 2.47919 7.50586 3.56568 7.50586 4.90899V5.00776C7.50586 6.34613 8.59236 7.43756 9.93566 7.43756H20.7216C22.06 7.43756 23.1514 6.35107 23.1514 5.00776V4.90899C23.1514 3.57062 22.0649 2.47919 20.7216 2.47919H18.0992Z" fill="#74F8C2"/>
<path d="M7.48616 13.4042C7.48616 12.5004 6.75525 11.7695 5.85148 11.7695C4.94771 11.7695 4.2168 12.5004 4.2168 13.4042C4.2168 14.308 4.94771 15.0389 5.85148 15.0389C6.75525 15.0389 7.48616 14.308 7.48616 13.4042Z" fill="white"/>
<path d="M6.31641 28.752H24.3424" stroke="white" stroke-width="3" stroke-miterlimit="10"/>
<path d="M6.31641 24.7129H24.3424" stroke="white" stroke-width="3" stroke-miterlimit="10"/>
</g>
<defs>
<linearGradient id="paint0_linear_1188_703" x1="25.3269" y1="36.9803" x2="5.33514" y2="2.35353" gradientUnits="userSpaceOnUse">
<stop stop-color="#3883FF"/>
<stop offset="1" stop-color="#9188FF"/>
</linearGradient>
<clipPath id="clip0_1188_703">
<rect width="30.6639" height="35" fill="white"/>
</clipPath>
</defs>
</svg>
