<svg width="35" height="35" viewBox="0 0 35 35" fill="none" xmlns="http://www.w3.org/2000/svg">
<g clip-path="url(#clip0_1188_664)">
<path d="M25.7144 30.5884C31.5967 24.7061 31.5967 15.1689 25.7144 9.2866C19.8321 3.40427 10.2949 3.40427 4.41262 9.2866C-1.46971 15.1689 -1.46971 24.7061 4.41262 30.5884C10.2949 36.4707 19.8321 36.4707 25.7144 30.5884Z" fill="#3883FF"/>
<path d="M7.80326 20.1007L6.63775 25.7258C6.3118 27.2963 7.69955 28.684 9.27003 28.3581L14.8951 27.1926C15.6754 27.0296 16.3866 26.6444 16.9496 26.0814L33.3261 9.7049C35.5484 7.48252 35.5484 3.88227 33.3261 1.66483C31.1037 -0.557548 27.5034 -0.557548 25.286 1.66483L8.91445 18.0462C8.35145 18.6043 7.96624 19.3204 7.80326 20.1007Z" fill="url(#paint0_linear_1188_664)"/>
<path d="M22.5156 4.44531L30.5557 12.4854" stroke="white" stroke-width="3" stroke-miterlimit="10"/>
</g>
<defs>
<linearGradient id="paint0_linear_1188_664" x1="24.5022" y1="21.8883" x2="15.8454" y2="6.89429" gradientUnits="userSpaceOnUse">
<stop stop-color="#74F8C2"/>
<stop offset="1" stop-color="#FFED7D"/>
</linearGradient>
<clipPath id="clip0_1188_664">
<rect width="35" height="35" fill="white"/>
</clipPath>
</defs>
</svg>
