<svg width="41" height="35" viewBox="0 0 41 35" fill="none" xmlns="http://www.w3.org/2000/svg">
<g clip-path="url(#clip0_1188_611)">
<path d="M16.3175 14.0075L1.7551 21.2201C-0.582428 22.3746 -0.582428 25.7123 1.7551 26.8668L16.3175 34.0794C18.7979 35.3081 21.7069 35.3081 24.1873 34.0794L38.7497 26.8668C41.0872 25.7123 41.0872 22.3746 38.7497 21.2201L24.1873 14.0075C21.7069 12.7787 18.7979 12.7787 16.3175 14.0075Z" fill="#9188FF"/>
<path d="M16.3175 7.46455L1.7551 14.6772C-0.582428 15.8316 -0.582428 19.1693 1.7551 20.3238L16.3175 27.5364C18.7979 28.7652 21.7069 28.7652 24.1873 27.5364L38.7497 20.3238C41.0872 19.1693 41.0872 15.8316 38.7497 14.6772L24.1873 7.46455C21.7069 6.23578 18.7979 6.23578 16.3175 7.46455Z" fill="#3883FF"/>
<path d="M16.3175 0.919626L1.7551 8.13223C-0.582428 9.28671 -0.582428 12.6244 1.7551 13.7789L16.3175 20.9915C18.7979 22.2202 21.7069 22.2202 24.1873 20.9915L38.7497 13.7789C41.0872 12.6244 41.0872 9.28671 38.7497 8.13223L24.1873 0.919626C21.7069 -0.309146 18.7979 -0.309146 16.3175 0.919626Z" fill="url(#paint0_linear_1188_611)"/>
</g>
<defs>
<linearGradient id="paint0_linear_1188_611" x1="26.102" y1="21.0893" x2="14.4007" y2="0.821895" gradientUnits="userSpaceOnUse">
<stop stop-color="#74F8C2"/>
<stop offset="1" stop-color="#FFED7D"/>
</linearGradient>
<clipPath id="clip0_1188_611">
<rect width="40.5038" height="35" fill="white"/>
</clipPath>
</defs>
</svg>
