<svg width="51" height="50" viewBox="0 0 51 50" fill="none" xmlns="http://www.w3.org/2000/svg">
<g clip-path="url(#clip0_1184_574)">
<path d="M48.4295 50.001H21.2062C19.9405 50.001 18.9199 48.9738 18.9199 47.7147V20.4914C18.9199 19.2256 19.9471 18.2051 21.2062 18.2051H48.4295C49.6953 18.2051 50.7158 19.2322 50.7158 20.4914V47.7147C50.7224 48.9738 49.6953 50.001 48.4295 50.001Z" fill="#74F8C2"/>
<path d="M3.4385 27.0513C2.95474 27.5351 2.61014 28.1249 2.42459 28.7809L0.15156 36.8128C-0.690057 39.8015 2.06674 42.5649 5.05547 41.7167L13.0873 39.4503C13.7433 39.2647 14.3398 38.9135 14.8169 38.4364L40.8871 12.3661C42.1926 11.0606 42.1926 8.94662 40.8871 7.64112L34.2337 0.981078C32.9282 -0.324422 30.8143 -0.324422 29.5088 0.981078L3.4385 27.0513Z" fill="url(#paint0_linear_1184_574)"/>
</g>
<defs>
<linearGradient id="paint0_linear_1184_574" x1="25.7137" y1="32.306" x2="13.04" y2="10.3546" gradientUnits="userSpaceOnUse">
<stop stop-color="#3883FF"/>
<stop offset="1" stop-color="#9188FF"/>
</linearGradient>
<clipPath id="clip0_1184_574">
<rect width="50.7223" height="50" fill="white"/>
</clipPath>
</defs>
</svg>
