<svg width="44" height="50" viewBox="0 0 44 50" fill="none" xmlns="http://www.w3.org/2000/svg">
<g clip-path="url(#clip0_1184_578)">
<path d="M40.0875 50.0009H3.71102C1.66502 50.0009 0 48.3358 0 46.2828V9.90633C0 7.85328 1.66502 6.19531 3.71102 6.19531H40.0875C42.1405 6.19531 43.7985 7.86033 43.7985 9.90633V46.2828C43.8056 48.3358 42.1405 50.0009 40.0875 50.0009Z" fill="url(#paint0_linear_1184_578)"/>
<path d="M25.858 3.5417C25.6392 1.55214 23.9531 0 21.9 0C19.8469 0 18.1608 1.55214 17.942 3.5417H14.1958C12.2838 3.5417 10.7246 5.09383 10.7246 7.01284V7.15394C10.7246 9.0659 12.2767 10.6251 14.1958 10.6251H29.6042C31.5162 10.6251 33.0754 9.07295 33.0754 7.15394V7.01284C33.0754 5.10089 31.5233 3.5417 29.6042 3.5417H25.858Z" fill="#74F8C2"/>
<path d="M10.6959 19.1478C10.6959 17.8567 9.65175 16.8125 8.36065 16.8125C7.06956 16.8125 6.02539 17.8567 6.02539 19.1478C6.02539 20.4389 7.06956 21.483 8.36065 21.483C9.65175 21.483 10.6959 20.4389 10.6959 19.1478Z" fill="white"/>
<path d="M9.02344 41.0762H34.7748" stroke="white" stroke-width="3" stroke-miterlimit="10"/>
<path d="M9.02344 35.3047H34.7748" stroke="white" stroke-width="3" stroke-miterlimit="10"/>
</g>
<defs>
<linearGradient id="paint0_linear_1184_578" x1="36.1813" y1="52.8301" x2="7.62162" y2="3.3633" gradientUnits="userSpaceOnUse">
<stop stop-color="#3883FF"/>
<stop offset="1" stop-color="#9188FF"/>
</linearGradient>
<clipPath id="clip0_1184_578">
<rect width="43.8056" height="50" fill="white"/>
</clipPath>
</defs>
</svg>
