<svg width="80" height="80" viewBox="0 0 80 80" fill="none" xmlns="http://www.w3.org/2000/svg">
<circle cx="40" cy="40" r="37.5" stroke="#54AAFD" stroke-width="5"/>
<path d="M34.7521 58V30.7273H43.4347V58H34.7521ZM39.1023 27.549C37.883 27.549 36.8355 27.1465 35.9595 26.3416C35.0836 25.5249 34.6456 24.5424 34.6456 23.3942C34.6456 22.2578 35.0836 21.2872 35.9595 20.4822C36.8355 19.6655 37.883 19.2571 39.1023 19.2571C40.3333 19.2571 41.3809 19.6655 42.245 20.4822C43.121 21.2872 43.5589 22.2578 43.5589 23.3942C43.5589 24.5424 43.121 25.5249 42.245 26.3416C41.3809 27.1465 40.3333 27.549 39.1023 27.549Z" fill="#54AAFD"/>
</svg>
