<svg width="23" height="25" viewBox="0 0 23 25" fill="none" xmlns="http://www.w3.org/2000/svg">
<path d="M18.4997 24.3304C20.4325 24.3304 21.9993 22.7636 21.9993 20.8307C21.9993 18.8979 20.4325 17.3311 18.4997 17.3311C16.5668 17.3311 15 18.8979 15 20.8307C15 22.7636 16.5668 24.3304 18.4997 24.3304Z" fill="#848484" stroke="#848484" stroke-linecap="round" stroke-linejoin="round"/>
<path d="M18.4997 7.99933C20.4325 7.99933 21.9993 6.43247 21.9993 4.49966C21.9993 2.56686 20.4325 1 18.4997 1C16.5668 1 15 2.56686 15 4.49966C15 6.43247 16.5668 7.99933 18.4997 7.99933Z" fill="#848484" stroke="#848484" stroke-linecap="round" stroke-linejoin="round"/>
<path d="M4.49966 16.1644C6.43247 16.1644 7.99933 14.5976 7.99933 12.6647C7.99933 10.7318 6.43247 9.16504 4.49966 9.16504C2.56686 9.16504 1 10.7318 1 12.6647C1 14.5976 2.56686 16.1644 4.49966 16.1644Z" fill="#848484" stroke="#848484" stroke-linecap="round" stroke-linejoin="round"/>
<path d="M15.5799 6.24951L7.41406 10.9157Z" fill="#848484"/>
<path d="M15.5799 6.24951L7.41406 10.9157" stroke="#848484" stroke-width="2"/>
<path d="M7.41406 14.415L15.5799 19.0813Z" fill="#848484"/>
<path d="M7.41406 14.415L15.5799 19.0813" stroke="#848484" stroke-width="2"/>
</svg>
