<svg width="36" height="35" viewBox="0 0 36 35" fill="none" xmlns="http://www.w3.org/2000/svg">
<g clip-path="url(#clip0_1188_712)">
<path d="M33.9009 35.0013H14.8445C13.9585 35.0013 13.2441 34.2822 13.2441 33.4009V14.3445C13.2441 13.4585 13.9632 12.7441 14.8445 12.7441H33.9009C34.7869 12.7441 35.5013 13.4632 35.5013 14.3445V33.4009C35.5059 34.2822 34.7869 35.0013 33.9009 35.0013Z" fill="#74F8C2"/>
<path d="M2.40832 18.9365C2.06969 19.2751 1.82847 19.688 1.69858 20.1472L0.107459 25.7695C-0.481673 27.8616 1.44808 29.796 3.5402 29.2023L9.16246 27.6158C9.62171 27.4859 10.0392 27.24 10.3732 26.906L28.6224 8.65686C29.5362 7.74301 29.5362 6.26322 28.6224 5.34937L23.965 0.687341C23.0511 -0.226509 21.5713 -0.226509 20.6575 0.687341L2.40832 18.9365Z" fill="url(#paint0_linear_1188_712)"/>
</g>
<defs>
<linearGradient id="paint0_linear_1188_712" x1="18.0009" y1="22.6148" x2="9.12939" y2="7.24883" gradientUnits="userSpaceOnUse">
<stop stop-color="#3883FF"/>
<stop offset="1" stop-color="#9188FF"/>
</linearGradient>
<clipPath id="clip0_1188_712">
<rect width="35.5056" height="35" fill="white"/>
</clipPath>
</defs>
</svg>
