<svg width="29" height="29" viewBox="0 0 29 29" fill="none" xmlns="http://www.w3.org/2000/svg">
<path d="M24.3888 28.2109H4.59067C2.32482 28.2109 0.489746 26.3759 0.489746 24.11V4.31186C0.489746 2.04601 2.32482 0.210938 4.59067 0.210938H24.3888C26.6547 0.210938 28.4897 2.04601 28.4897 4.31186V24.11C28.4897 26.3716 26.6547 28.2109 24.3888 28.2109Z" fill="#3B5998"/>
<path d="M10.8276 11.1351H12.4516V10.3037C12.4516 9.37329 12.5507 8.67975 12.7489 8.22313C12.947 7.76652 13.3089 7.39175 13.843 7.10313C14.3772 6.81452 15.0449 6.67236 15.8547 6.67236C16.6861 6.67236 17.5003 6.79729 18.2972 7.04713L17.9009 9.08467C17.4356 8.97267 16.9876 8.91667 16.5612 8.91667C16.139 8.91667 15.8332 9.01575 15.6523 9.2139C15.467 9.41206 15.3766 9.79113 15.3766 10.3511V11.1308H17.5606V13.4311H15.3766V22.1801H12.4516V13.4354H10.8276V11.1351Z" fill="white"/>
</svg>
