<svg width="29" height="29" viewBox="0 0 29 29" fill="none" xmlns="http://www.w3.org/2000/svg">
<path d="M24.3888 28.2109H4.59067C2.32482 28.2109 0.489746 26.3759 0.489746 24.11V4.31186C0.489746 2.04601 2.32482 0.210938 4.59067 0.210938H24.3888C26.6547 0.210938 28.4897 2.04601 28.4897 4.31186V24.11C28.4897 26.3716 26.6547 28.2109 24.3888 28.2109Z" fill="url(#paint0_linear_304_789)"/>
<path d="M18.7207 20.8879H10.6912C9.33854 20.8879 8.24438 19.7938 8.24438 18.4412V10.4116C8.24438 9.059 9.33854 7.96484 10.6912 7.96484H18.7207C20.0733 7.96484 21.1675 9.059 21.1675 10.4116V18.4412C21.1675 19.7895 20.0733 20.8879 18.7207 20.8879Z" stroke="white" stroke-miterlimit="10"/>
<path d="M14.7061 17.4419C16.3714 17.4419 17.7214 16.0919 17.7214 14.4265C17.7214 12.7612 16.3714 11.4111 14.7061 11.4111C13.0407 11.4111 11.6907 12.7612 11.6907 14.4265C11.6907 16.0919 13.0407 17.4419 14.7061 17.4419Z" stroke="white" stroke-miterlimit="10"/>
<path d="M18.4058 11.4972C18.8317 11.4972 19.1769 11.152 19.1769 10.7262C19.1769 10.3003 18.8317 9.95508 18.4058 9.95508C17.98 9.95508 17.6348 10.3003 17.6348 10.7262C17.6348 11.152 17.98 11.4972 18.4058 11.4972Z" fill="white"/>
<defs>
<linearGradient id="paint0_linear_304_789" x1="14.4897" y1="0.210937" x2="14.4897" y2="28.2109" gradientUnits="userSpaceOnUse">
<stop stop-color="#6256C7"/>
<stop offset="0.484375" stop-color="#D62D7D"/>
<stop offset="1" stop-color="#FCCD75"/>
</linearGradient>
</defs>
</svg>
