<svg width="29" height="29" viewBox="0 0 29 29" fill="none" xmlns="http://www.w3.org/2000/svg">
<path d="M24.3888 27.7109H4.59067C2.60096 27.7109 0.989746 26.0997 0.989746 24.11V4.31186C0.989746 2.32216 2.60096 0.710938 4.59067 0.710938H24.3888C26.3785 0.710938 27.9897 2.32216 27.9897 4.31186V24.11C27.9897 26.0958 26.3782 27.7109 24.3888 27.7109Z" fill="white" stroke="#C0C0C0"/>
<path d="M10.943 14.4263C10.943 13.8362 11.0809 13.2805 11.3264 12.7851L9.28455 11.79C8.89686 12.587 8.67285 13.4787 8.67285 14.4263C8.67285 15.3783 8.89685 16.2743 9.28885 17.0713L11.3307 16.0719C11.0809 15.5765 10.943 15.0165 10.943 14.4263Z" fill="#FCBD06"/>
<path d="M14.6996 10.6657C15.6301 10.6657 16.4787 11.006 17.1334 11.566L18.8522 10.0583C17.771 9.02874 16.3107 8.39551 14.6996 8.39551C12.3174 8.39551 10.2627 9.78259 9.28052 11.79L11.3224 12.785C11.9341 11.5315 13.2134 10.6657 14.6996 10.6657Z" fill="#EA4335"/>
<path d="M14.6992 18.1825C13.2173 18.1825 11.938 17.321 11.3263 16.0718L9.28442 17.0712C10.2666 19.0742 12.317 20.457 14.6992 20.457C16.2241 20.457 17.6112 19.8884 18.6709 18.9579L17.1718 17.2478C16.5127 17.825 15.6469 18.1825 14.6992 18.1825Z" fill="#34A858"/>
<path d="M20.6477 13.4741H18.3301H14.6987V14.4218V15.3394H15.5043H18.3387C18.1492 16.0889 17.7357 16.748 17.1757 17.239L18.6747 18.9492C19.9326 17.8421 20.7338 16.2267 20.7338 14.4175C20.7295 14.0987 20.695 13.7843 20.6477 13.4741Z" fill="#4284F5"/>
</svg>
