<svg width="29" height="29" viewBox="0 0 29 29" fill="none" xmlns="http://www.w3.org/2000/svg">
<path d="M24.3888 28.2109H4.59067C2.32482 28.2109 0.489746 26.3759 0.489746 24.11V4.31186C0.489746 2.04601 2.32482 0.210938 4.59067 0.210938H24.3888C26.6547 0.210938 28.4897 2.04601 28.4897 4.31186V24.11C28.4897 26.3716 26.6547 28.2109 24.3888 28.2109Z" fill="#FAE301"/>
<path d="M14.804 5.38037C9.51418 5.38037 5.22803 8.77914 5.22803 12.9662C5.22803 15.7231 7.08464 18.1354 9.8588 19.4665L9.08772 22.3096C9.08772 22.3096 8.92403 22.8955 8.99295 22.9644C9.06187 23.0333 9.66926 22.6758 9.66926 22.6758L13.0637 20.4271C13.628 20.509 14.2096 20.5521 14.804 20.5521C20.0939 20.5521 24.38 17.1533 24.38 12.9662C24.38 8.77914 20.0939 5.38037 14.804 5.38037Z" fill="#391B1B"/>
<path d="M10.9491 10.8423H8.11028C7.86905 10.8423 7.6709 11.0404 7.6709 11.2817C7.6709 11.5229 7.86905 11.7211 8.11028 11.7211H9.08813V15.094C9.08813 15.3352 9.28629 15.5334 9.52752 15.5334C9.76875 15.5334 9.9669 15.3352 9.9669 15.094V11.7211H10.9447C11.186 11.7211 11.3841 11.5229 11.3841 11.2817C11.3884 11.0361 11.1903 10.8423 10.9491 10.8423Z" fill="#FAE301"/>
<path d="M14.8776 14.9217L14.4726 13.9481L13.2923 11.1137C13.2923 11.1094 13.288 11.1051 13.288 11.1007C13.2794 11.0792 13.2665 11.0577 13.2536 11.0361C13.2449 11.0232 13.2363 11.0146 13.2277 11.006C13.2191 10.9931 13.2105 10.9801 13.1976 10.9715C13.1846 10.9586 13.176 10.95 13.1631 10.9414C13.1545 10.9327 13.1416 10.9241 13.133 10.9155C13.1114 10.9026 13.0899 10.8897 13.0683 10.8811C13.064 10.8811 13.0597 10.8767 13.0554 10.8767C13.0296 10.8638 12.9994 10.8595 12.9736 10.8509C12.9606 10.8466 12.9477 10.8466 12.9391 10.8466C12.9219 10.8466 12.9046 10.8423 12.8917 10.8423C12.8788 10.8423 12.8616 10.8466 12.8486 10.8466C12.8357 10.8466 12.8228 10.8466 12.8056 10.8509C12.7754 10.8552 12.7496 10.8638 12.7237 10.8767C12.7194 10.8811 12.7108 10.8854 12.7065 10.8854C12.685 10.894 12.6677 10.9026 12.6462 10.9155C12.6333 10.9241 12.6246 10.9327 12.6117 10.9414C12.5988 10.95 12.5902 10.9586 12.5773 10.9715C12.5643 10.9844 12.5557 10.9974 12.5471 11.006C12.5385 11.0146 12.5299 11.0232 12.5213 11.0361C12.5083 11.0577 12.4954 11.0792 12.4868 11.1007C12.4868 11.1051 12.4825 11.1094 12.4825 11.1137L11.3022 13.9481C11.3022 13.9481 11.3022 13.9481 11.3022 13.9524L10.8973 14.926C10.8025 15.15 10.9102 15.4084 11.1342 15.4989C11.1902 15.5204 11.2462 15.5334 11.3022 15.5334C11.4745 15.5334 11.6382 15.43 11.7071 15.262L12 14.5598H13.7748L14.0677 15.262C14.1366 15.43 14.3003 15.5334 14.4726 15.5334C14.5286 15.5334 14.5846 15.5204 14.6406 15.4989C14.8603 15.4041 14.968 15.1457 14.8776 14.9217ZM12.3662 13.6811L12.8874 12.4232L13.4086 13.6811H12.3662Z" fill="#FAE301"/>
<path d="M21.7223 14.8312L20.2706 12.8454L21.5242 11.5918C21.6965 11.4195 21.6965 11.1438 21.5242 10.9715C21.3519 10.7992 21.0762 10.7992 20.9039 10.9715L19.3273 12.5481V11.2817C19.3273 11.0404 19.1291 10.8423 18.8879 10.8423C18.6466 10.8423 18.4485 11.0404 18.4485 11.2817V13.6078V15.094C18.4485 15.3352 18.6466 15.5334 18.8879 15.5334C19.1291 15.5334 19.3273 15.3352 19.3273 15.094V13.7887L19.6417 13.4743L21.0159 15.3524C21.102 15.4687 21.2356 15.5334 21.3691 15.5334C21.4596 15.5334 21.55 15.5075 21.6276 15.4472C21.8214 15.3007 21.8645 15.0294 21.7223 14.8312Z" fill="#FAE301"/>
<path d="M17.5953 14.6508H16.2642C16.2599 14.6508 16.2599 14.6508 16.2599 14.6465V11.2778C16.2599 11.0237 16.0402 10.8169 15.7817 10.8385C15.5491 10.86 15.3811 11.0668 15.3811 11.2994V15.0901C15.3811 15.3314 15.5793 15.5295 15.8205 15.5295H17.5737C17.8063 15.5295 18.0131 15.3615 18.0346 15.1289C18.0519 14.8705 17.8494 14.6508 17.5953 14.6508Z" fill="#FAE301"/>
</svg>
