<svg width="23" height="24" viewBox="0 0 23 24" fill="none" xmlns="http://www.w3.org/2000/svg">
<path d="M21.0801 10.9414L11.6245 20.397C10.4662 21.5554 8.89508 22.2062 7.25689 22.2062C5.61869 22.2062 4.0476 21.5554 2.88923 20.397C1.73084 19.2386 1.08008 17.6675 1.08008 16.0293C1.08008 14.3911 1.73084 12.8201 2.88923 11.6616L12.3447 2.20609C13.117 1.43384 14.1645 1 15.2565 1C16.3487 1 17.3961 1.43384 18.1683 2.20609C18.9406 2.97835 19.3745 4.02575 19.3745 5.11787C19.3745 6.21 18.9406 7.2574 18.1683 8.02965L8.70249 17.4852C8.31637 17.8713 7.79266 18.0882 7.24661 18.0882C6.70054 18.0882 6.17684 17.8713 5.79072 17.4852C5.40459 17.099 5.18766 16.5754 5.18766 16.0293C5.18766 15.4833 5.40459 14.9596 5.79072 14.5734L14.526 5.84839" stroke="#6AA8F3" stroke-width="2" stroke-linecap="round" stroke-linejoin="round"/>
</svg>
