<svg width="306" height="229" viewBox="0 0 306 229" fill="none" xmlns="http://www.w3.org/2000/svg">
<path d="M19.4499 95.2175C14.3993 95.2175 9.5555 97.2239 5.98415 100.795C2.4128 104.367 0.406433 109.21 0.406433 114.261C0.406433 119.312 2.4128 124.155 5.98415 127.727C9.5555 131.298 14.3993 133.305 19.4499 133.305V95.2175ZM286.059 133.305C291.11 133.305 295.953 131.298 299.525 127.727C303.096 124.155 305.102 119.312 305.102 114.261C305.102 109.21 303.096 104.367 299.525 100.795C295.953 97.2239 291.11 95.2175 286.059 95.2175V133.305ZM19.4499 0C14.3993 0 9.5555 2.00637 5.98415 5.57772C2.4128 9.14907 0.406433 13.9929 0.406433 19.0435C0.406433 24.0942 2.4128 28.9379 5.98415 32.5093C9.5555 36.0806 14.3993 38.087 19.4499 38.087V0ZM286.059 38.087C291.11 38.087 295.953 36.0806 299.525 32.5093C303.096 28.9379 305.102 24.0942 305.102 19.0435C305.102 13.9929 303.096 9.14907 299.525 5.57772C295.953 2.00637 291.11 0 286.059 0V38.087ZM19.4499 190.435C14.3993 190.435 9.5555 192.441 5.98415 196.013C2.4128 199.584 0.406433 204.428 0.406433 209.479C0.406433 214.529 2.4128 219.373 5.98415 222.944C9.5555 226.516 14.3993 228.522 19.4499 228.522V190.435ZM286.059 228.522C291.11 228.522 295.953 226.516 299.525 222.944C303.096 219.373 305.102 214.529 305.102 209.479C305.102 204.428 303.096 199.584 299.525 196.013C295.953 192.441 291.11 190.435 286.059 190.435V228.522ZM19.4499 133.305H286.059V95.2175H19.4499V133.305ZM19.4499 38.087H286.059V0H19.4499V38.087ZM19.4499 228.522H286.059V190.435H19.4499V228.522Z" fill="black"/>
</svg>
